%TF.GenerationSoftware,KiCad,Pcbnew,7.0.8*%
%TF.CreationDate,2024-09-18T17:33:38+05:30*%
%TF.ProjectId,Esp32_relay,45737033-325f-4726-956c-61792e6b6963,rev?*%
%TF.SameCoordinates,Original*%
%TF.FileFunction,Copper,L1,Top*%
%TF.FilePolarity,Positive*%
%FSLAX46Y46*%
G04 Gerber Fmt 4.6, Leading zero omitted, Abs format (unit mm)*
G04 Created by KiCad (PCBNEW 7.0.8) date 2024-09-18 17:33:38*
%MOMM*%
%LPD*%
G01*
G04 APERTURE LIST*
G04 Aperture macros list*
%AMRoundRect*
0 Rectangle with rounded corners*
0 $1 Rounding radius*
0 $2 $3 $4 $5 $6 $7 $8 $9 X,Y pos of 4 corners*
0 Add a 4 corners polygon primitive as box body*
4,1,4,$2,$3,$4,$5,$6,$7,$8,$9,$2,$3,0*
0 Add four circle primitives for the rounded corners*
1,1,$1+$1,$2,$3*
1,1,$1+$1,$4,$5*
1,1,$1+$1,$6,$7*
1,1,$1+$1,$8,$9*
0 Add four rect primitives between the rounded corners*
20,1,$1+$1,$2,$3,$4,$5,0*
20,1,$1+$1,$4,$5,$6,$7,0*
20,1,$1+$1,$6,$7,$8,$9,0*
20,1,$1+$1,$8,$9,$2,$3,0*%
G04 Aperture macros list end*
%ADD10C,0.300000*%
%TA.AperFunction,NonConductor*%
%ADD11C,0.300000*%
%TD*%
%TA.AperFunction,NonConductor*%
%ADD12C,0.200000*%
%TD*%
%TA.AperFunction,SMDPad,CuDef*%
%ADD13RoundRect,0.243750X-0.243750X-0.456250X0.243750X-0.456250X0.243750X0.456250X-0.243750X0.456250X0*%
%TD*%
%TA.AperFunction,SMDPad,CuDef*%
%ADD14RoundRect,0.250000X0.450000X-0.262500X0.450000X0.262500X-0.450000X0.262500X-0.450000X-0.262500X0*%
%TD*%
%TA.AperFunction,SMDPad,CuDef*%
%ADD15RoundRect,0.250000X0.475000X-0.250000X0.475000X0.250000X-0.475000X0.250000X-0.475000X-0.250000X0*%
%TD*%
%TA.AperFunction,SMDPad,CuDef*%
%ADD16C,1.500000*%
%TD*%
%TA.AperFunction,SMDPad,CuDef*%
%ADD17RoundRect,0.250000X-0.475000X0.250000X-0.475000X-0.250000X0.475000X-0.250000X0.475000X0.250000X0*%
%TD*%
%TA.AperFunction,SMDPad,CuDef*%
%ADD18RoundRect,0.150000X0.150000X-0.587500X0.150000X0.587500X-0.150000X0.587500X-0.150000X-0.587500X0*%
%TD*%
%TA.AperFunction,SMDPad,CuDef*%
%ADD19RoundRect,0.250000X-0.450000X0.262500X-0.450000X-0.262500X0.450000X-0.262500X0.450000X0.262500X0*%
%TD*%
%TA.AperFunction,ComponentPad*%
%ADD20R,2.600000X2.000000*%
%TD*%
%TA.AperFunction,ComponentPad*%
%ADD21C,2.600000*%
%TD*%
%TA.AperFunction,ComponentPad*%
%ADD22C,1.500000*%
%TD*%
%TA.AperFunction,SMDPad,CuDef*%
%ADD23RoundRect,0.250000X-0.625000X0.375000X-0.625000X-0.375000X0.625000X-0.375000X0.625000X0.375000X0*%
%TD*%
%TA.AperFunction,ComponentPad*%
%ADD24C,5.000000*%
%TD*%
%TA.AperFunction,ComponentPad*%
%ADD25R,1.980000X1.980000*%
%TD*%
%TA.AperFunction,ComponentPad*%
%ADD26C,1.980000*%
%TD*%
%TA.AperFunction,ComponentPad*%
%ADD27C,1.935000*%
%TD*%
%TA.AperFunction,ComponentPad*%
%ADD28R,2.600000X2.600000*%
%TD*%
%TA.AperFunction,SMDPad,CuDef*%
%ADD29R,1.500000X0.900000*%
%TD*%
%TA.AperFunction,SMDPad,CuDef*%
%ADD30R,0.900000X1.500000*%
%TD*%
%TA.AperFunction,SMDPad,CuDef*%
%ADD31R,0.900000X0.900000*%
%TD*%
%TA.AperFunction,SMDPad,CuDef*%
%ADD32RoundRect,0.250000X0.262500X0.450000X-0.262500X0.450000X-0.262500X-0.450000X0.262500X-0.450000X0*%
%TD*%
%TA.AperFunction,SMDPad,CuDef*%
%ADD33RoundRect,0.250000X-0.262500X-0.450000X0.262500X-0.450000X0.262500X0.450000X-0.262500X0.450000X0*%
%TD*%
%TA.AperFunction,ComponentPad*%
%ADD34R,1.700000X1.700000*%
%TD*%
%TA.AperFunction,ComponentPad*%
%ADD35O,1.700000X1.700000*%
%TD*%
%TA.AperFunction,SMDPad,CuDef*%
%ADD36R,2.000000X1.500000*%
%TD*%
%TA.AperFunction,SMDPad,CuDef*%
%ADD37R,2.000000X3.800000*%
%TD*%
%TA.AperFunction,SMDPad,CuDef*%
%ADD38RoundRect,0.250000X0.625000X-0.375000X0.625000X0.375000X-0.625000X0.375000X-0.625000X-0.375000X0*%
%TD*%
%TA.AperFunction,ViaPad*%
%ADD39C,0.900000*%
%TD*%
%TA.AperFunction,ViaPad*%
%ADD40C,0.800000*%
%TD*%
%TA.AperFunction,Conductor*%
%ADD41C,0.800000*%
%TD*%
%TA.AperFunction,Conductor*%
%ADD42C,0.500000*%
%TD*%
%TA.AperFunction,Conductor*%
%ADD43C,1.000000*%
%TD*%
G04 APERTURE END LIST*
D10*
D11*
X200275645Y-74659577D02*
X200277391Y-75659575D01*
X200277391Y-75659575D02*
X198776271Y-75019339D01*
X200135407Y-76159824D02*
X200206961Y-76231127D01*
X200206961Y-76231127D02*
X200278639Y-76373860D01*
X200278639Y-76373860D02*
X200279262Y-76731002D01*
X200279262Y-76731002D02*
X200208083Y-76873984D01*
X200208083Y-76873984D02*
X200136780Y-76945537D01*
X200136780Y-76945537D02*
X199994047Y-77017215D01*
X199994047Y-77017215D02*
X199851191Y-77017464D01*
X199851191Y-77017464D02*
X199636780Y-76946410D01*
X199636780Y-76946410D02*
X198778142Y-76090765D01*
X198778142Y-76090765D02*
X198779764Y-77019335D01*
X198923743Y-77661942D02*
X198852440Y-77733495D01*
X198852440Y-77733495D02*
X198780886Y-77662191D01*
X198780886Y-77662191D02*
X198852190Y-77590638D01*
X198852190Y-77590638D02*
X198923743Y-77661942D01*
X198923743Y-77661942D02*
X198780886Y-77662191D01*
X200281882Y-78230999D02*
X200283628Y-79230998D01*
X200283628Y-79230998D02*
X198782508Y-78590761D01*
X200141645Y-79731246D02*
X200213198Y-79802550D01*
X200213198Y-79802550D02*
X200284876Y-79945282D01*
X200284876Y-79945282D02*
X200285500Y-80302424D01*
X200285500Y-80302424D02*
X200214321Y-80445406D01*
X200214321Y-80445406D02*
X200143017Y-80516959D01*
X200143017Y-80516959D02*
X200000285Y-80588637D01*
X200000285Y-80588637D02*
X199857428Y-80588887D01*
X199857428Y-80588887D02*
X199643018Y-80517833D01*
X199643018Y-80517833D02*
X198784379Y-79662188D01*
X198784379Y-79662188D02*
X198786001Y-80590758D01*
X200287620Y-81516708D02*
X200287870Y-81659565D01*
X200287870Y-81659565D02*
X200216691Y-81802546D01*
X200216691Y-81802546D02*
X200145387Y-81874100D01*
X200145387Y-81874100D02*
X200002655Y-81945778D01*
X200002655Y-81945778D02*
X199717066Y-82017705D01*
X199717066Y-82017705D02*
X199359923Y-82018329D01*
X199359923Y-82018329D02*
X199074085Y-81947399D01*
X199074085Y-81947399D02*
X198931103Y-81876220D01*
X198931103Y-81876220D02*
X198859550Y-81804917D01*
X198859550Y-81804917D02*
X198787872Y-81662184D01*
X198787872Y-81662184D02*
X198787622Y-81519328D01*
X198787622Y-81519328D02*
X198858801Y-81376346D01*
X198858801Y-81376346D02*
X198930105Y-81304793D01*
X198930105Y-81304793D02*
X199072837Y-81233115D01*
X199072837Y-81233115D02*
X199358426Y-81161187D01*
X199358426Y-81161187D02*
X199715569Y-81160564D01*
X199715569Y-81160564D02*
X200001407Y-81231493D01*
X200001407Y-81231493D02*
X200144389Y-81302672D01*
X200144389Y-81302672D02*
X200215942Y-81373976D01*
X200215942Y-81373976D02*
X200287620Y-81516708D01*
X200289367Y-82516706D02*
X200290988Y-83445276D01*
X200290988Y-83445276D02*
X199718687Y-82946275D01*
X199718687Y-82946275D02*
X199719062Y-83160560D01*
X199719062Y-83160560D02*
X199647883Y-83303542D01*
X199647883Y-83303542D02*
X199576579Y-83375095D01*
X199576579Y-83375095D02*
X199433847Y-83446773D01*
X199433847Y-83446773D02*
X199076704Y-83447397D01*
X199076704Y-83447397D02*
X198933723Y-83376218D01*
X198933723Y-83376218D02*
X198862170Y-83304914D01*
X198862170Y-83304914D02*
X198790492Y-83162182D01*
X198790492Y-83162182D02*
X198789743Y-82733611D01*
X198789743Y-82733611D02*
X198860922Y-82590629D01*
X198860922Y-82590629D02*
X198932226Y-82519076D01*
X198794109Y-85233607D02*
X199794108Y-85231860D01*
X199651251Y-85232110D02*
X199722804Y-85303413D01*
X199722804Y-85303413D02*
X199794482Y-85446146D01*
X199794482Y-85446146D02*
X199794856Y-85660431D01*
X199794856Y-85660431D02*
X199723677Y-85803413D01*
X199723677Y-85803413D02*
X199580945Y-85875091D01*
X199580945Y-85875091D02*
X198795232Y-85876463D01*
X199580945Y-85875091D02*
X199723927Y-85946270D01*
X199723927Y-85946270D02*
X199795605Y-86089002D01*
X199795605Y-86089002D02*
X199795979Y-86303287D01*
X199795979Y-86303287D02*
X199724800Y-86446269D01*
X199724800Y-86446269D02*
X199582068Y-86517947D01*
X199582068Y-86517947D02*
X198796355Y-86519319D01*
X198797602Y-87233604D02*
X199797600Y-87231857D01*
X199654744Y-87232107D02*
X199726297Y-87303410D01*
X199726297Y-87303410D02*
X199797975Y-87446142D01*
X199797975Y-87446142D02*
X199798349Y-87660428D01*
X199798349Y-87660428D02*
X199727170Y-87803410D01*
X199727170Y-87803410D02*
X199584438Y-87875087D01*
X199584438Y-87875087D02*
X198798725Y-87876460D01*
X199584438Y-87875087D02*
X199727419Y-87946266D01*
X199727419Y-87946266D02*
X199799097Y-88088999D01*
X199799097Y-88088999D02*
X199799472Y-88303284D01*
X199799472Y-88303284D02*
X199728293Y-88446266D01*
X199728293Y-88446266D02*
X199585560Y-88517944D01*
X199585560Y-88517944D02*
X198799847Y-88519316D01*
D12*
X184609399Y-45922327D02*
X203299663Y-45889686D01*
X184736399Y-118642527D02*
X203426663Y-118609886D01*
X202713245Y-45890710D02*
X202840245Y-118610910D01*
X202713245Y-45890710D02*
X202840245Y-118610910D01*
X202713245Y-45890710D02*
X203301632Y-47016188D01*
X202713245Y-45890710D02*
X202128793Y-47018236D01*
X202840245Y-118610910D02*
X202251858Y-117485432D01*
X202840245Y-118610910D02*
X203424697Y-117483384D01*
D10*
D11*
X118903687Y-32380928D02*
X118046544Y-32380928D01*
X118475115Y-32380928D02*
X118475115Y-30880928D01*
X118475115Y-30880928D02*
X118332258Y-31095214D01*
X118332258Y-31095214D02*
X118189401Y-31238071D01*
X118189401Y-31238071D02*
X118046544Y-31309500D01*
X120332258Y-32380928D02*
X119475115Y-32380928D01*
X119903686Y-32380928D02*
X119903686Y-30880928D01*
X119903686Y-30880928D02*
X119760829Y-31095214D01*
X119760829Y-31095214D02*
X119617972Y-31238071D01*
X119617972Y-31238071D02*
X119475115Y-31309500D01*
X121617972Y-30880928D02*
X121332257Y-30880928D01*
X121332257Y-30880928D02*
X121189400Y-30952357D01*
X121189400Y-30952357D02*
X121117972Y-31023785D01*
X121117972Y-31023785D02*
X120975114Y-31238071D01*
X120975114Y-31238071D02*
X120903686Y-31523785D01*
X120903686Y-31523785D02*
X120903686Y-32095214D01*
X120903686Y-32095214D02*
X120975114Y-32238071D01*
X120975114Y-32238071D02*
X121046543Y-32309500D01*
X121046543Y-32309500D02*
X121189400Y-32380928D01*
X121189400Y-32380928D02*
X121475114Y-32380928D01*
X121475114Y-32380928D02*
X121617972Y-32309500D01*
X121617972Y-32309500D02*
X121689400Y-32238071D01*
X121689400Y-32238071D02*
X121760829Y-32095214D01*
X121760829Y-32095214D02*
X121760829Y-31738071D01*
X121760829Y-31738071D02*
X121689400Y-31595214D01*
X121689400Y-31595214D02*
X121617972Y-31523785D01*
X121617972Y-31523785D02*
X121475114Y-31452357D01*
X121475114Y-31452357D02*
X121189400Y-31452357D01*
X121189400Y-31452357D02*
X121046543Y-31523785D01*
X121046543Y-31523785D02*
X120975114Y-31595214D01*
X120975114Y-31595214D02*
X120903686Y-31738071D01*
X122403685Y-32238071D02*
X122475114Y-32309500D01*
X122475114Y-32309500D02*
X122403685Y-32380928D01*
X122403685Y-32380928D02*
X122332257Y-32309500D01*
X122332257Y-32309500D02*
X122403685Y-32238071D01*
X122403685Y-32238071D02*
X122403685Y-32380928D01*
X123332257Y-31523785D02*
X123189400Y-31452357D01*
X123189400Y-31452357D02*
X123117971Y-31380928D01*
X123117971Y-31380928D02*
X123046543Y-31238071D01*
X123046543Y-31238071D02*
X123046543Y-31166642D01*
X123046543Y-31166642D02*
X123117971Y-31023785D01*
X123117971Y-31023785D02*
X123189400Y-30952357D01*
X123189400Y-30952357D02*
X123332257Y-30880928D01*
X123332257Y-30880928D02*
X123617971Y-30880928D01*
X123617971Y-30880928D02*
X123760829Y-30952357D01*
X123760829Y-30952357D02*
X123832257Y-31023785D01*
X123832257Y-31023785D02*
X123903686Y-31166642D01*
X123903686Y-31166642D02*
X123903686Y-31238071D01*
X123903686Y-31238071D02*
X123832257Y-31380928D01*
X123832257Y-31380928D02*
X123760829Y-31452357D01*
X123760829Y-31452357D02*
X123617971Y-31523785D01*
X123617971Y-31523785D02*
X123332257Y-31523785D01*
X123332257Y-31523785D02*
X123189400Y-31595214D01*
X123189400Y-31595214D02*
X123117971Y-31666642D01*
X123117971Y-31666642D02*
X123046543Y-31809500D01*
X123046543Y-31809500D02*
X123046543Y-32095214D01*
X123046543Y-32095214D02*
X123117971Y-32238071D01*
X123117971Y-32238071D02*
X123189400Y-32309500D01*
X123189400Y-32309500D02*
X123332257Y-32380928D01*
X123332257Y-32380928D02*
X123617971Y-32380928D01*
X123617971Y-32380928D02*
X123760829Y-32309500D01*
X123760829Y-32309500D02*
X123832257Y-32238071D01*
X123832257Y-32238071D02*
X123903686Y-32095214D01*
X123903686Y-32095214D02*
X123903686Y-31809500D01*
X123903686Y-31809500D02*
X123832257Y-31666642D01*
X123832257Y-31666642D02*
X123760829Y-31595214D01*
X123760829Y-31595214D02*
X123617971Y-31523785D01*
X125189400Y-31380928D02*
X125189400Y-32380928D01*
X124832257Y-30809500D02*
X124475114Y-31880928D01*
X124475114Y-31880928D02*
X125403685Y-31880928D01*
X126260828Y-30880928D02*
X126403685Y-30880928D01*
X126403685Y-30880928D02*
X126546542Y-30952357D01*
X126546542Y-30952357D02*
X126617971Y-31023785D01*
X126617971Y-31023785D02*
X126689399Y-31166642D01*
X126689399Y-31166642D02*
X126760828Y-31452357D01*
X126760828Y-31452357D02*
X126760828Y-31809500D01*
X126760828Y-31809500D02*
X126689399Y-32095214D01*
X126689399Y-32095214D02*
X126617971Y-32238071D01*
X126617971Y-32238071D02*
X126546542Y-32309500D01*
X126546542Y-32309500D02*
X126403685Y-32380928D01*
X126403685Y-32380928D02*
X126260828Y-32380928D01*
X126260828Y-32380928D02*
X126117971Y-32309500D01*
X126117971Y-32309500D02*
X126046542Y-32238071D01*
X126046542Y-32238071D02*
X125975113Y-32095214D01*
X125975113Y-32095214D02*
X125903685Y-31809500D01*
X125903685Y-31809500D02*
X125903685Y-31452357D01*
X125903685Y-31452357D02*
X125975113Y-31166642D01*
X125975113Y-31166642D02*
X126046542Y-31023785D01*
X126046542Y-31023785D02*
X126117971Y-30952357D01*
X126117971Y-30952357D02*
X126260828Y-30880928D01*
X127689399Y-30880928D02*
X127832256Y-30880928D01*
X127832256Y-30880928D02*
X127975113Y-30952357D01*
X127975113Y-30952357D02*
X128046542Y-31023785D01*
X128046542Y-31023785D02*
X128117970Y-31166642D01*
X128117970Y-31166642D02*
X128189399Y-31452357D01*
X128189399Y-31452357D02*
X128189399Y-31809500D01*
X128189399Y-31809500D02*
X128117970Y-32095214D01*
X128117970Y-32095214D02*
X128046542Y-32238071D01*
X128046542Y-32238071D02*
X127975113Y-32309500D01*
X127975113Y-32309500D02*
X127832256Y-32380928D01*
X127832256Y-32380928D02*
X127689399Y-32380928D01*
X127689399Y-32380928D02*
X127546542Y-32309500D01*
X127546542Y-32309500D02*
X127475113Y-32238071D01*
X127475113Y-32238071D02*
X127403684Y-32095214D01*
X127403684Y-32095214D02*
X127332256Y-31809500D01*
X127332256Y-31809500D02*
X127332256Y-31452357D01*
X127332256Y-31452357D02*
X127403684Y-31166642D01*
X127403684Y-31166642D02*
X127475113Y-31023785D01*
X127475113Y-31023785D02*
X127546542Y-30952357D01*
X127546542Y-30952357D02*
X127689399Y-30880928D01*
X129975112Y-32380928D02*
X129975112Y-31380928D01*
X129975112Y-31523785D02*
X130046541Y-31452357D01*
X130046541Y-31452357D02*
X130189398Y-31380928D01*
X130189398Y-31380928D02*
X130403684Y-31380928D01*
X130403684Y-31380928D02*
X130546541Y-31452357D01*
X130546541Y-31452357D02*
X130617970Y-31595214D01*
X130617970Y-31595214D02*
X130617970Y-32380928D01*
X130617970Y-31595214D02*
X130689398Y-31452357D01*
X130689398Y-31452357D02*
X130832255Y-31380928D01*
X130832255Y-31380928D02*
X131046541Y-31380928D01*
X131046541Y-31380928D02*
X131189398Y-31452357D01*
X131189398Y-31452357D02*
X131260827Y-31595214D01*
X131260827Y-31595214D02*
X131260827Y-32380928D01*
X131975112Y-32380928D02*
X131975112Y-31380928D01*
X131975112Y-31523785D02*
X132046541Y-31452357D01*
X132046541Y-31452357D02*
X132189398Y-31380928D01*
X132189398Y-31380928D02*
X132403684Y-31380928D01*
X132403684Y-31380928D02*
X132546541Y-31452357D01*
X132546541Y-31452357D02*
X132617970Y-31595214D01*
X132617970Y-31595214D02*
X132617970Y-32380928D01*
X132617970Y-31595214D02*
X132689398Y-31452357D01*
X132689398Y-31452357D02*
X132832255Y-31380928D01*
X132832255Y-31380928D02*
X133046541Y-31380928D01*
X133046541Y-31380928D02*
X133189398Y-31452357D01*
X133189398Y-31452357D02*
X133260827Y-31595214D01*
X133260827Y-31595214D02*
X133260827Y-32380928D01*
D12*
X67269400Y-45423200D02*
X67269400Y-32916180D01*
X184109400Y-45423200D02*
X184109400Y-32916180D01*
X67269400Y-33502600D02*
X184109400Y-33502600D01*
X67269400Y-33502600D02*
X184109400Y-33502600D01*
X67269400Y-33502600D02*
X68395904Y-32916179D01*
X67269400Y-33502600D02*
X68395904Y-34089021D01*
X184109400Y-33502600D02*
X182982896Y-34089021D01*
X184109400Y-33502600D02*
X182982896Y-32916179D01*
D13*
%TO.P,D8,1,K*%
%TO.N,+5V*%
X135165900Y-84937200D03*
%TO.P,D8,2,A*%
%TO.N,/Relay_4_T*%
X137040900Y-84937200D03*
%TD*%
D14*
%TO.P,R3,1*%
%TO.N,+3.3V*%
X115767200Y-81475900D03*
%TO.P,R3,2*%
%TO.N,/Led_3*%
X115767200Y-79650900D03*
%TD*%
D15*
%TO.P,C1,1*%
%TO.N,GND*%
X165023400Y-83905200D03*
%TO.P,C1,2*%
%TO.N,/RESET*%
X165023400Y-82005200D03*
%TD*%
D16*
%TO.P,FID3,*%
%TO.N,*%
X172120600Y-114731800D03*
%TD*%
D15*
%TO.P,C5,1*%
%TO.N,+3.3V*%
X139329200Y-61808400D03*
%TO.P,C5,2*%
%TO.N,GND*%
X139329200Y-59908400D03*
%TD*%
D17*
%TO.P,C3,1*%
%TO.N,+5V*%
X129956600Y-72430600D03*
%TO.P,C3,2*%
%TO.N,GND*%
X129956600Y-74330600D03*
%TD*%
D18*
%TO.P,Q3,1*%
%TO.N,/Relay_3_T*%
X120802400Y-85062300D03*
%TO.P,Q3,2*%
%TO.N,/Relay_3_R*%
X122702400Y-85062300D03*
%TO.P,Q3,3*%
%TO.N,GND*%
X121752400Y-83187300D03*
%TD*%
D15*
%TO.P,C2,1*%
%TO.N,+3.3V*%
X140421400Y-56525200D03*
%TO.P,C2,2*%
%TO.N,GND*%
X140421400Y-54625200D03*
%TD*%
D19*
%TO.P,R8,1*%
%TO.N,/Relay_4*%
X140650000Y-79150200D03*
%TO.P,R8,2*%
%TO.N,/Relay_4_R*%
X140650000Y-80975200D03*
%TD*%
D20*
%TO.P,PS1,1,AC/L*%
%TO.N,/P_AC*%
X82986900Y-57009200D03*
D21*
%TO.P,PS1,2,AC/N*%
%TO.N,/N_AC*%
X82986900Y-64809200D03*
%TO.P,PS1,3,-Vout*%
%TO.N,GND*%
X125486900Y-49609200D03*
%TO.P,PS1,4,+Vout*%
%TO.N,+5V*%
X125486900Y-72209200D03*
%TD*%
D22*
%TO.P,S1,1,1*%
%TO.N,/RESET*%
X162483400Y-80265200D03*
%TO.P,S1,2,2*%
%TO.N,GND*%
X162483400Y-86765200D03*
%TO.P,S1,3,3*%
%TO.N,/RESET*%
X157983400Y-80265200D03*
%TO.P,S1,4,4*%
%TO.N,GND*%
X157983400Y-86765200D03*
%TD*%
D18*
%TO.P,Q4,1*%
%TO.N,/Relay_4_T*%
X138658600Y-84909900D03*
%TO.P,Q4,2*%
%TO.N,/Relay_4_R*%
X140558600Y-84909900D03*
%TO.P,Q4,3*%
%TO.N,GND*%
X139608600Y-83034900D03*
%TD*%
D23*
%TO.P,D2,1,K*%
%TO.N,/Relay_2_T*%
X99857600Y-79905400D03*
%TO.P,D2,2,A*%
%TO.N,/Led_2*%
X99857600Y-82705400D03*
%TD*%
D15*
%TO.P,C4,1*%
%TO.N,+3.3V*%
X143215400Y-56525200D03*
%TO.P,C4,2*%
%TO.N,GND*%
X143215400Y-54625200D03*
%TD*%
D19*
%TO.P,R11,1*%
%TO.N,+3.3V*%
X72679600Y-75693900D03*
%TO.P,R11,2*%
%TO.N,Net-(D9-A)*%
X72679600Y-77518900D03*
%TD*%
D24*
%TO.P,H2,1,1*%
%TO.N,GND*%
X71612800Y-114071400D03*
%TD*%
D25*
%TO.P,K4,A1*%
%TO.N,+5V*%
X133075200Y-102267000D03*
D26*
%TO.P,K4,A2*%
%TO.N,/Relay_4_T*%
X145075200Y-102267000D03*
D27*
%TO.P,K4,COM*%
%TO.N,/COM_4*%
X139075200Y-104267000D03*
D26*
%TO.P,K4,NC*%
%TO.N,unconnected-(K4-PadNC)*%
X133075200Y-90067000D03*
%TO.P,K4,NO*%
%TO.N,/NO_4*%
X145075200Y-90067000D03*
%TD*%
D25*
%TO.P,K3,A1*%
%TO.N,+5V*%
X114578400Y-102344600D03*
D26*
%TO.P,K3,A2*%
%TO.N,/Relay_3_T*%
X126578400Y-102344600D03*
D27*
%TO.P,K3,COM*%
%TO.N,/COM_3*%
X120578400Y-104344600D03*
D26*
%TO.P,K3,NC*%
%TO.N,unconnected-(K3-PadNC)*%
X114578400Y-90144600D03*
%TO.P,K3,NO*%
%TO.N,/NO_3*%
X126578400Y-90144600D03*
%TD*%
D28*
%TO.P,J8,1,Pin_1*%
%TO.N,/Switch_1*%
X163662400Y-111709200D03*
D21*
%TO.P,J8,2,Pin_2*%
%TO.N,GND*%
X156162400Y-111709200D03*
%TD*%
D29*
%TO.P,IC1,1,GND_1*%
%TO.N,GND*%
X147051400Y-54633200D03*
%TO.P,IC1,2,3V3*%
%TO.N,+3.3V*%
X147051400Y-55903200D03*
%TO.P,IC1,3,EN*%
%TO.N,/EN*%
X147051400Y-57173200D03*
%TO.P,IC1,4,SENSOR_VP*%
%TO.N,unconnected-(IC1-SENSOR_VP-Pad4)*%
X147051400Y-58443200D03*
%TO.P,IC1,5,SENSOR_VN*%
%TO.N,unconnected-(IC1-SENSOR_VN-Pad5)*%
X147051400Y-59713200D03*
%TO.P,IC1,6,IO34*%
%TO.N,unconnected-(IC1-IO34-Pad6)*%
X147051400Y-60983200D03*
%TO.P,IC1,7,IO35*%
%TO.N,unconnected-(IC1-IO35-Pad7)*%
X147051400Y-62253200D03*
%TO.P,IC1,8,IO32*%
%TO.N,unconnected-(IC1-IO32-Pad8)*%
X147051400Y-63523200D03*
%TO.P,IC1,9,IO33*%
%TO.N,unconnected-(IC1-IO33-Pad9)*%
X147051400Y-64793200D03*
%TO.P,IC1,10,IO25*%
%TO.N,/Relay_1*%
X147051400Y-66063200D03*
%TO.P,IC1,11,IO26*%
%TO.N,/Relay_2*%
X147051400Y-67333200D03*
%TO.P,IC1,12,IO27*%
%TO.N,/Relay_3*%
X147051400Y-68603200D03*
%TO.P,IC1,13,IO14*%
%TO.N,/Relay_4*%
X147051400Y-69873200D03*
%TO.P,IC1,14,IO12*%
%TO.N,unconnected-(IC1-IO12-Pad14)*%
X147051400Y-71143200D03*
D30*
%TO.P,IC1,15,GND_2*%
%TO.N,GND*%
X150086400Y-72393200D03*
%TO.P,IC1,16,IO13*%
%TO.N,unconnected-(IC1-IO13-Pad16)*%
X151356400Y-72393200D03*
%TO.P,IC1,17,NC_1*%
%TO.N,unconnected-(IC1-NC_1-Pad17)*%
X152626400Y-72393200D03*
%TO.P,IC1,18,NC_2*%
%TO.N,unconnected-(IC1-NC_2-Pad18)*%
X153896400Y-72393200D03*
%TO.P,IC1,19,NC_3*%
%TO.N,unconnected-(IC1-NC_3-Pad19)*%
X155166400Y-72393200D03*
%TO.P,IC1,20,NC_4*%
%TO.N,unconnected-(IC1-NC_4-Pad20)*%
X156436400Y-72393200D03*
%TO.P,IC1,21,NC_5*%
%TO.N,unconnected-(IC1-NC_5-Pad21)*%
X157706400Y-72393200D03*
%TO.P,IC1,22,NC_6*%
%TO.N,unconnected-(IC1-NC_6-Pad22)*%
X158976400Y-72393200D03*
%TO.P,IC1,23,IO15*%
%TO.N,unconnected-(IC1-IO15-Pad23)*%
X160246400Y-72393200D03*
%TO.P,IC1,24,IO2*%
%TO.N,unconnected-(IC1-IO2-Pad24)*%
X161516400Y-72393200D03*
D29*
%TO.P,IC1,25,IO0*%
%TO.N,/RESET*%
X164551400Y-71143200D03*
%TO.P,IC1,26,IO4*%
%TO.N,unconnected-(IC1-IO4-Pad26)*%
X164551400Y-69873200D03*
%TO.P,IC1,27,IO16*%
%TO.N,/Switch_1*%
X164551400Y-68603200D03*
%TO.P,IC1,28,IO17*%
%TO.N,/Switch_2*%
X164551400Y-67333200D03*
%TO.P,IC1,29,IO5*%
%TO.N,unconnected-(IC1-IO5-Pad29)*%
X164551400Y-66063200D03*
%TO.P,IC1,30,IO18*%
%TO.N,/Switch_3*%
X164551400Y-64793200D03*
%TO.P,IC1,31,IO19*%
%TO.N,/Switch_4*%
X164551400Y-63523200D03*
%TO.P,IC1,32,NC_7*%
%TO.N,unconnected-(IC1-NC_7-Pad32)*%
X164551400Y-62253200D03*
%TO.P,IC1,33,IO21*%
%TO.N,unconnected-(IC1-IO21-Pad33)*%
X164551400Y-60983200D03*
%TO.P,IC1,34,RXD0*%
%TO.N,/Rx*%
X164551400Y-59713200D03*
%TO.P,IC1,35,TXD0*%
%TO.N,/Tx*%
X164551400Y-58443200D03*
%TO.P,IC1,36,IO22*%
%TO.N,unconnected-(IC1-IO22-Pad36)*%
X164551400Y-57173200D03*
%TO.P,IC1,37,IO23*%
%TO.N,unconnected-(IC1-IO23-Pad37)*%
X164551400Y-55903200D03*
%TO.P,IC1,38,GND_3*%
%TO.N,GND*%
X164551400Y-54633200D03*
D31*
%TO.P,IC1,39,GND_4*%
X152901400Y-60953200D03*
%TO.P,IC1,40,GND_5*%
X152901400Y-62353200D03*
%TO.P,IC1,41,GND_6*%
X152901400Y-63753200D03*
%TO.P,IC1,42,GND_7*%
X154301400Y-63753200D03*
%TO.P,IC1,43,GND_8*%
X155701400Y-63753200D03*
%TO.P,IC1,44,GND_9*%
X155701400Y-62353200D03*
%TO.P,IC1,45,GND_10*%
X155701400Y-60953200D03*
%TO.P,IC1,46,GND_11*%
X154301400Y-60953200D03*
%TO.P,IC1,47,GND_12*%
X154301400Y-62353200D03*
%TD*%
D28*
%TO.P,J9,1,Pin_1*%
%TO.N,/Switch_2*%
X177759400Y-99161600D03*
D21*
%TO.P,J9,2,Pin_2*%
%TO.N,GND*%
X177759400Y-106661600D03*
%TD*%
D14*
%TO.P,R2,1*%
%TO.N,+3.3V*%
X97216000Y-81760700D03*
%TO.P,R2,2*%
%TO.N,/Led_2*%
X97216000Y-79935700D03*
%TD*%
D18*
%TO.P,Q2,1*%
%TO.N,/Relay_2_T*%
X102133400Y-84935300D03*
%TO.P,Q2,2*%
%TO.N,/Relay_2_R*%
X104033400Y-84935300D03*
%TO.P,Q2,3*%
%TO.N,GND*%
X103083400Y-83060300D03*
%TD*%
D32*
%TO.P,R9,1*%
%TO.N,+3.3V*%
X164206900Y-77055000D03*
%TO.P,R9,2*%
%TO.N,/RESET*%
X162381900Y-77055000D03*
%TD*%
D25*
%TO.P,K2,A1*%
%TO.N,+5V*%
X96118200Y-102317800D03*
D26*
%TO.P,K2,A2*%
%TO.N,/Relay_2_T*%
X108118200Y-102317800D03*
D27*
%TO.P,K2,COM*%
%TO.N,/COM_2*%
X102118200Y-104317800D03*
D26*
%TO.P,K2,NC*%
%TO.N,unconnected-(K2-PadNC)*%
X96118200Y-90117800D03*
%TO.P,K2,NO*%
%TO.N,/NO_2*%
X108118200Y-90117800D03*
%TD*%
D24*
%TO.P,H4,1,1*%
%TO.N,GND*%
X179232600Y-114071400D03*
%TD*%
D16*
%TO.P,FID1,*%
%TO.N,*%
X77302400Y-49352200D03*
%TD*%
D24*
%TO.P,H1,1,1*%
%TO.N,GND*%
X71435000Y-49631600D03*
%TD*%
D28*
%TO.P,J2,1,Pin_1*%
%TO.N,/NO_1*%
X87854000Y-112306600D03*
D21*
%TO.P,J2,2,Pin_2*%
%TO.N,/COM_1*%
X80354000Y-112306600D03*
%TD*%
D18*
%TO.P,Q1,1*%
%TO.N,/Relay_1_T*%
X85111000Y-85187000D03*
%TO.P,Q1,2*%
%TO.N,/Relay_1_R*%
X87011000Y-85187000D03*
%TO.P,Q1,3*%
%TO.N,GND*%
X86061000Y-83312000D03*
%TD*%
D13*
%TO.P,D5,1,K*%
%TO.N,+5V*%
X81571900Y-85226200D03*
%TO.P,D5,2,A*%
%TO.N,/Relay_1_T*%
X83446900Y-85226200D03*
%TD*%
D14*
%TO.P,R1,1*%
%TO.N,+3.3V*%
X80477400Y-81670200D03*
%TO.P,R1,2*%
%TO.N,/Led_1*%
X80477400Y-79845200D03*
%TD*%
D13*
%TO.P,D7,1,K*%
%TO.N,+5V*%
X116912500Y-85005400D03*
%TO.P,D7,2,A*%
%TO.N,/Relay_3_T*%
X118787500Y-85005400D03*
%TD*%
D28*
%TO.P,J1,1,Pin_1*%
%TO.N,/N_AC*%
X73619400Y-64853200D03*
D21*
%TO.P,J1,2,Pin_2*%
%TO.N,/P_AC*%
X73619400Y-57353200D03*
%TD*%
D23*
%TO.P,D3,1,K*%
%TO.N,/Relay_3_T*%
X118053200Y-79795400D03*
%TO.P,D3,2,A*%
%TO.N,/Led_3*%
X118053200Y-82595400D03*
%TD*%
D28*
%TO.P,J3,1,Pin_1*%
%TO.N,/NO_2*%
X105868200Y-112219800D03*
D21*
%TO.P,J3,2,Pin_2*%
%TO.N,/COM_2*%
X98368200Y-112219800D03*
%TD*%
D28*
%TO.P,J7,1,Pin_1*%
%TO.N,/Switch_3*%
X177810200Y-79222600D03*
D21*
%TO.P,J7,2,Pin_2*%
%TO.N,GND*%
X177810200Y-86722600D03*
%TD*%
D23*
%TO.P,D1,1,K*%
%TO.N,/Led_1*%
X83017400Y-80016200D03*
%TO.P,D1,2,A*%
%TO.N,/Relay_1_T*%
X83017400Y-82816200D03*
%TD*%
D13*
%TO.P,D6,1,K*%
%TO.N,+5V*%
X98589900Y-84861400D03*
%TO.P,D6,2,A*%
%TO.N,/Relay_2_T*%
X100464900Y-84861400D03*
%TD*%
D24*
%TO.P,H3,1,1*%
%TO.N,GND*%
X179283400Y-49834800D03*
%TD*%
D32*
%TO.P,R7,1*%
%TO.N,/Relay_3*%
X124807700Y-80687400D03*
%TO.P,R7,2*%
%TO.N,/Relay_3_R*%
X122982700Y-80687400D03*
%TD*%
D28*
%TO.P,J5,1,Pin_1*%
%TO.N,/NO_4*%
X142825200Y-112169000D03*
D21*
%TO.P,J5,2,Pin_2*%
%TO.N,/COM_4*%
X135325200Y-112169000D03*
%TD*%
D14*
%TO.P,R5,1*%
%TO.N,/Relay_1_R*%
X87335400Y-81162200D03*
%TO.P,R5,2*%
%TO.N,/Relay_1*%
X87335400Y-79337200D03*
%TD*%
D33*
%TO.P,R10,1*%
%TO.N,+3.3V*%
X147002400Y-77361000D03*
%TO.P,R10,2*%
%TO.N,/EN*%
X148827400Y-77361000D03*
%TD*%
D34*
%TO.P,J6,1,Pin_1*%
%TO.N,GND*%
X168717000Y-50647600D03*
D35*
%TO.P,J6,2,Pin_2*%
%TO.N,/Tx*%
X171257000Y-50647600D03*
%TO.P,J6,3,Pin_3*%
%TO.N,/Rx*%
X173797000Y-50647600D03*
%TD*%
D28*
%TO.P,J10,1,Pin_1*%
%TO.N,/Switch_4*%
X177962600Y-59800800D03*
D21*
%TO.P,J10,2,Pin_2*%
%TO.N,GND*%
X177962600Y-67300800D03*
%TD*%
D36*
%TO.P,U1,1,GND*%
%TO.N,GND*%
X130159400Y-60996800D03*
%TO.P,U1,2,VO*%
%TO.N,+3.3V*%
X130159400Y-63296800D03*
D37*
X136459400Y-63296800D03*
D36*
%TO.P,U1,3,VI*%
%TO.N,+5V*%
X130159400Y-65596800D03*
%TD*%
D38*
%TO.P,D9,1,K*%
%TO.N,GND*%
X72705000Y-82532500D03*
%TO.P,D9,2,A*%
%TO.N,Net-(D9-A)*%
X72705000Y-79732500D03*
%TD*%
D23*
%TO.P,D4,1,K*%
%TO.N,/Relay_4_T*%
X136611400Y-79981200D03*
%TO.P,D4,2,A*%
%TO.N,/Led_4*%
X136611400Y-82781200D03*
%TD*%
D32*
%TO.P,R6,1*%
%TO.N,/Relay_2*%
X105926300Y-80518000D03*
%TO.P,R6,2*%
%TO.N,/Relay_2_R*%
X104101300Y-80518000D03*
%TD*%
D25*
%TO.P,K1,A1*%
%TO.N,+5V*%
X78104000Y-102400600D03*
D26*
%TO.P,K1,A2*%
%TO.N,/Relay_1_T*%
X90104000Y-102400600D03*
D27*
%TO.P,K1,COM*%
%TO.N,/COM_1*%
X84104000Y-104400600D03*
D26*
%TO.P,K1,NC*%
%TO.N,unconnected-(K1-PadNC)*%
X78104000Y-90200600D03*
%TO.P,K1,NO*%
%TO.N,/NO_1*%
X90104000Y-90200600D03*
%TD*%
D16*
%TO.P,FID2,*%
%TO.N,*%
X71714400Y-105079800D03*
%TD*%
D28*
%TO.P,J4,1,Pin_1*%
%TO.N,/NO_3*%
X124328400Y-112246600D03*
D21*
%TO.P,J4,2,Pin_2*%
%TO.N,/COM_3*%
X116828400Y-112246600D03*
%TD*%
D22*
%TO.P,S2,1,1*%
%TO.N,/EN*%
X153354200Y-79910800D03*
%TO.P,S2,2,2*%
%TO.N,GND*%
X153354200Y-86410800D03*
%TO.P,S2,3,3*%
%TO.N,/EN*%
X148854200Y-79910800D03*
%TO.P,S2,4,4*%
%TO.N,GND*%
X148854200Y-86410800D03*
%TD*%
D14*
%TO.P,R4,1*%
%TO.N,+3.3V*%
X134071400Y-81661700D03*
%TO.P,R4,2*%
%TO.N,/Led_4*%
X134071400Y-79836700D03*
%TD*%
D39*
%TO.N,GND*%
X104648000Y-50292000D03*
X101854000Y-67310000D03*
X106934000Y-50292000D03*
X85151000Y-81508600D03*
X94996000Y-53848000D03*
X153162000Y-69596000D03*
X151638000Y-66548000D03*
X93472000Y-56896000D03*
X155194000Y-69342000D03*
X109220000Y-50292000D03*
X98552000Y-62992000D03*
X138389400Y-54813200D03*
X102108000Y-50292000D03*
X150368000Y-66548000D03*
X95758000Y-67564000D03*
X91694000Y-59944000D03*
X93472000Y-50292000D03*
X151851400Y-62179200D03*
X151597400Y-63703200D03*
X95504000Y-60706000D03*
X101346000Y-64262000D03*
D40*
X72730400Y-84226400D03*
D39*
X93472000Y-63754000D03*
X101092000Y-57150000D03*
X154137400Y-64973200D03*
X138567200Y-81203800D03*
X121142800Y-81229200D03*
X118872000Y-50292000D03*
X153416000Y-66548000D03*
D40*
X130159800Y-58877200D03*
D39*
X113792000Y-50292000D03*
X111506000Y-50292000D03*
X156931400Y-63703200D03*
X155448000Y-66548000D03*
X95504000Y-56642000D03*
X93726000Y-67818000D03*
X154178000Y-68326000D03*
X162306000Y-66548000D03*
X91694000Y-67818000D03*
X159004000Y-66548000D03*
X101346000Y-60198000D03*
X97536000Y-50292000D03*
D40*
X141081800Y-59893200D03*
D39*
X159258000Y-67818000D03*
X160528000Y-66548000D03*
X91694000Y-53594000D03*
X157988000Y-67818000D03*
X102346800Y-81432400D03*
X91694000Y-56642000D03*
X116332000Y-50292000D03*
X97028000Y-53848000D03*
D40*
X131785400Y-74320400D03*
D39*
X156972000Y-69088000D03*
X152867400Y-59639200D03*
X93726000Y-59944000D03*
X155661400Y-59639200D03*
X150327400Y-70307200D03*
X93472000Y-53594000D03*
X157480000Y-66548000D03*
X156931400Y-62179200D03*
X100330000Y-53086000D03*
X158496000Y-69342000D03*
X95504000Y-50292000D03*
X95504000Y-64262000D03*
X165059400Y-85293200D03*
X91694000Y-50292000D03*
X99822000Y-50292000D03*
X155956000Y-67818000D03*
X99060000Y-67056000D03*
X152400000Y-68326000D03*
X91694000Y-63754000D03*
X154137400Y-59639200D03*
X160528000Y-69342000D03*
X98298000Y-59182000D03*
X98552000Y-56896000D03*
D40*
%TO.N,+3.3V*%
X132395000Y-81661000D03*
X138668800Y-56489600D03*
X139176800Y-65684400D03*
X72730400Y-74015600D03*
D39*
X143919200Y-77361000D03*
D40*
X140370600Y-57861200D03*
X114107000Y-81483200D03*
X138440200Y-63246000D03*
D39*
X167345400Y-77165200D03*
D40*
X139710200Y-63296800D03*
X78826400Y-81635600D03*
X138516400Y-64592200D03*
X139786400Y-64541400D03*
X95590400Y-81762600D03*
D39*
%TO.N,+5V*%
X76413400Y-85217000D03*
X111567000Y-85013800D03*
X129651800Y-84836000D03*
X92542400Y-84556600D03*
%TD*%
D41*
%TO.N,GND*%
X150086400Y-72319200D02*
X150086400Y-70548200D01*
D42*
X139329200Y-59908400D02*
X141066600Y-59908400D01*
D41*
X151951400Y-62279200D02*
X151851400Y-62179200D01*
X154301400Y-60879200D02*
X154301400Y-59803200D01*
X154301400Y-64809200D02*
X154137400Y-64973200D01*
X155701400Y-62279200D02*
X156831400Y-62279200D01*
X154301400Y-63679200D02*
X154301400Y-64809200D01*
X140233400Y-54813200D02*
X140421400Y-54625200D01*
X155701400Y-63679200D02*
X156907400Y-63679200D01*
X152901400Y-62279200D02*
X151951400Y-62279200D01*
X152901400Y-59673200D02*
X152867400Y-59639200D01*
X152901400Y-60879200D02*
X152901400Y-59673200D01*
X154301400Y-59803200D02*
X154137400Y-59639200D01*
D42*
X139608600Y-82245200D02*
X138567200Y-81203800D01*
X131775200Y-74330600D02*
X131785400Y-74320400D01*
D41*
X143215400Y-54625200D02*
X146985400Y-54625200D01*
D42*
X72705000Y-82532500D02*
X72705000Y-84201000D01*
D41*
X164551400Y-54559200D02*
X167345400Y-54559200D01*
D42*
X121752400Y-81838800D02*
X121142800Y-81229200D01*
D41*
X138389400Y-54813200D02*
X140233400Y-54813200D01*
X155701400Y-60879200D02*
X155701400Y-59679200D01*
D42*
X72705000Y-84201000D02*
X72730400Y-84226400D01*
X130159400Y-58877600D02*
X130159800Y-58877200D01*
D41*
X168869400Y-53035200D02*
X168869400Y-50800000D01*
D42*
X130159400Y-60996800D02*
X130159400Y-58877600D01*
D41*
X151621400Y-63679200D02*
X151597400Y-63703200D01*
X150086400Y-70548200D02*
X150327400Y-70307200D01*
X155701400Y-59679200D02*
X155661400Y-59639200D01*
X152901400Y-63679200D02*
X151621400Y-63679200D01*
X165023400Y-83905200D02*
X165023400Y-85257200D01*
D42*
X86061000Y-83312000D02*
X86061000Y-82418600D01*
D41*
X168869400Y-50800000D02*
X168717000Y-50647600D01*
D42*
X103083400Y-83060300D02*
X103083400Y-82169000D01*
D41*
X167345400Y-54559200D02*
X168869400Y-53035200D01*
X156907400Y-63679200D02*
X156931400Y-63703200D01*
X154301400Y-62279200D02*
X154301400Y-60879200D01*
X146985400Y-54625200D02*
X147051400Y-54559200D01*
X156831400Y-62279200D02*
X156931400Y-62179200D01*
D42*
X103083400Y-82169000D02*
X102346800Y-81432400D01*
D41*
X140421400Y-54625200D02*
X143215400Y-54625200D01*
X165023400Y-85257200D02*
X165059400Y-85293200D01*
D42*
X86061000Y-82418600D02*
X85151000Y-81508600D01*
X129956600Y-74330600D02*
X131775200Y-74330600D01*
X139608600Y-83034900D02*
X139608600Y-82245200D01*
X121752400Y-83187300D02*
X121752400Y-81838800D01*
X141066600Y-59908400D02*
X141081800Y-59893200D01*
%TO.N,/RESET*%
X157983400Y-80265200D02*
X162483400Y-80265200D01*
X164551400Y-71069200D02*
X164551400Y-73355200D01*
X164551400Y-73355200D02*
X162519400Y-75387200D01*
X162519400Y-76917500D02*
X162381900Y-77055000D01*
X162381900Y-77055000D02*
X162381900Y-80163700D01*
X164472600Y-80265200D02*
X165023400Y-80816000D01*
X162381900Y-80163700D02*
X162483400Y-80265200D01*
X162519400Y-75387200D02*
X162519400Y-76917500D01*
X165023400Y-80816000D02*
X165023400Y-82005200D01*
X162483400Y-80265200D02*
X164472600Y-80265200D01*
%TO.N,+3.3V*%
X134071400Y-81661700D02*
X132395700Y-81661700D01*
X140421400Y-57810400D02*
X140370600Y-57861200D01*
X114114300Y-81475900D02*
X114107000Y-81483200D01*
D43*
X164317100Y-77165200D02*
X164206900Y-77055000D01*
D42*
X138704400Y-56525200D02*
X138668800Y-56489600D01*
X140421400Y-56525200D02*
X138704400Y-56525200D01*
D41*
X144805400Y-56525200D02*
X143215400Y-56525200D01*
D42*
X95592300Y-81760700D02*
X95590400Y-81762600D01*
X140421400Y-56525200D02*
X143215400Y-56525200D01*
X72679600Y-75693900D02*
X72679600Y-74066400D01*
X80477400Y-81670200D02*
X78861000Y-81670200D01*
X140421400Y-56525200D02*
X140421400Y-57810400D01*
X132395700Y-81661700D02*
X132395000Y-81661000D01*
D43*
X143919200Y-77361000D02*
X147002400Y-77361000D01*
D41*
X147051400Y-55829200D02*
X145501400Y-55829200D01*
D42*
X97216000Y-81760700D02*
X95592300Y-81760700D01*
D41*
X145501400Y-55829200D02*
X144805400Y-56525200D01*
D42*
X72679600Y-74066400D02*
X72730400Y-74015600D01*
X78861000Y-81670200D02*
X78826400Y-81635600D01*
X115767200Y-81475900D02*
X114114300Y-81475900D01*
D43*
X167345400Y-77165200D02*
X164317100Y-77165200D01*
%TO.N,+5V*%
X129956600Y-66155200D02*
X130540400Y-65571400D01*
X98564500Y-84836000D02*
X98589900Y-84861400D01*
X116951800Y-99150100D02*
X116988700Y-99187000D01*
X116988700Y-99187000D02*
X116988700Y-99934300D01*
X135140900Y-84912200D02*
X135165900Y-84937200D01*
X135165900Y-100176300D02*
X133075200Y-102267000D01*
X76413400Y-85217000D02*
X81562700Y-85217000D01*
X92542400Y-84556600D02*
X92821800Y-84836000D01*
X135165900Y-99820700D02*
X135165900Y-100176300D01*
X125486900Y-72463200D02*
X125486900Y-72209200D01*
X98536800Y-84914500D02*
X98536800Y-99899200D01*
X98589900Y-84861400D02*
X98536800Y-84914500D01*
X116988700Y-99934300D02*
X114578400Y-102344600D01*
X116951800Y-85044700D02*
X116951800Y-99150100D01*
X116904100Y-85013800D02*
X116912500Y-85005400D01*
X125708300Y-72430600D02*
X129956600Y-72430600D01*
X135165900Y-84937200D02*
X135165900Y-99820700D01*
X98536800Y-99899200D02*
X96118200Y-102317800D01*
X111567000Y-85013800D02*
X116904100Y-85013800D01*
X81571900Y-85226200D02*
X81571900Y-98791500D01*
X81562700Y-85217000D02*
X81571900Y-85226200D01*
X129956600Y-72430600D02*
X129956600Y-66155200D01*
X129728000Y-84912200D02*
X135140900Y-84912200D01*
X125486900Y-72209200D02*
X125708300Y-72430600D01*
X116912500Y-85005400D02*
X116951800Y-85044700D01*
X81571900Y-98932700D02*
X78104000Y-102400600D01*
X92821800Y-84836000D02*
X98564500Y-84836000D01*
X129651800Y-84836000D02*
X129728000Y-84912200D01*
D42*
%TO.N,/Relay_1_T*%
X83486100Y-85187000D02*
X83446900Y-85226200D01*
X85111000Y-86614000D02*
X85111000Y-85187000D01*
X85111000Y-85187000D02*
X83486100Y-85187000D01*
D41*
X83017400Y-84796700D02*
X83446900Y-85226200D01*
X85111000Y-86614000D02*
X85111000Y-99947600D01*
X83017400Y-82816200D02*
X83017400Y-84796700D01*
X85111000Y-99947600D02*
X87564000Y-102400600D01*
X87564000Y-102400600D02*
X90104000Y-102400600D01*
D42*
%TO.N,/Relay_2_T*%
X100538800Y-84935300D02*
X100464900Y-84861400D01*
D41*
X105832200Y-102317800D02*
X108118200Y-102317800D01*
D42*
X102133400Y-84935300D02*
X100538800Y-84935300D01*
D41*
X99857600Y-82705400D02*
X99857600Y-84254100D01*
X99857600Y-84254100D02*
X100464900Y-84861400D01*
X102143600Y-86578400D02*
X102143600Y-98629200D01*
D42*
X102133400Y-86680000D02*
X102133400Y-85079800D01*
D41*
X102143600Y-98629200D02*
X105832200Y-102317800D01*
D42*
X102133400Y-86680000D02*
X102133400Y-84935300D01*
D41*
%TO.N,/Relay_3_T*%
X124928400Y-102344600D02*
X126578400Y-102344600D01*
X118053200Y-82595400D02*
X118053200Y-84271100D01*
X120802400Y-86497200D02*
X120838000Y-86532800D01*
X118053200Y-84271100D02*
X118787500Y-85005400D01*
X120838000Y-98254200D02*
X124928400Y-102344600D01*
D42*
X118844400Y-85062300D02*
X118787500Y-85005400D01*
X120802400Y-85062300D02*
X118844400Y-85062300D01*
D41*
X120838000Y-86532800D02*
X120838000Y-98254200D01*
D42*
X120802400Y-85062300D02*
X120802400Y-86497200D01*
D41*
%TO.N,/Relay_4_T*%
X141265200Y-102267000D02*
X145075200Y-102267000D01*
X136611400Y-84507700D02*
X137040900Y-84937200D01*
D42*
X138658600Y-84909900D02*
X137068200Y-84909900D01*
X137068200Y-84909900D02*
X137040900Y-84937200D01*
D41*
X138658600Y-86461600D02*
X138658600Y-99660400D01*
X138658600Y-99660400D02*
X141265200Y-102267000D01*
D42*
X138658600Y-86461600D02*
X138658600Y-84909900D01*
D41*
X136611400Y-82781200D02*
X136611400Y-84507700D01*
D42*
%TO.N,/EN*%
X148193800Y-57099200D02*
X148827400Y-57732800D01*
X148780400Y-77314000D02*
X148827400Y-77361000D01*
X148752600Y-80063200D02*
X153252600Y-80063200D01*
X148827400Y-77361000D02*
X148827400Y-79988400D01*
X147051400Y-57099200D02*
X148193800Y-57099200D01*
X148827400Y-79988400D02*
X148752600Y-80063200D01*
X148827400Y-57732800D02*
X148827400Y-77361000D01*
D41*
%TO.N,/Relay_3*%
X145148000Y-68603200D02*
X135417600Y-78333600D01*
X135417600Y-78333600D02*
X125664000Y-78333600D01*
X125664000Y-78333600D02*
X124807700Y-79189900D01*
X147051400Y-68603200D02*
X145148000Y-68603200D01*
X124807700Y-79189900D02*
X124807700Y-80687400D01*
%TO.N,/Relay_4*%
X140650000Y-75425360D02*
X140650000Y-79150200D01*
X146202160Y-69873200D02*
X140650000Y-75425360D01*
X147051400Y-69873200D02*
X146202160Y-69873200D01*
%TO.N,/Relay_1*%
X91192000Y-75480600D02*
X87335400Y-79337200D01*
X143282659Y-66063200D02*
X133865259Y-75480600D01*
X147051400Y-66063200D02*
X143282659Y-66063200D01*
X133865259Y-75480600D02*
X91192000Y-75480600D01*
%TO.N,/Relay_2*%
X147051400Y-67333200D02*
X144288890Y-67333200D01*
X108214200Y-76733400D02*
X105926300Y-79021300D01*
X105926300Y-79021300D02*
X105926300Y-80518000D01*
X144288890Y-67333200D02*
X134888690Y-76733400D01*
X134888690Y-76733400D02*
X108214200Y-76733400D01*
%TO.N,/Switch_1*%
X168040400Y-111709200D02*
X163662400Y-111709200D01*
X170139400Y-72059800D02*
X170139400Y-109610200D01*
X166682800Y-68603200D02*
X170139400Y-72059800D01*
X164551400Y-68603200D02*
X166682800Y-68603200D01*
X170139400Y-109610200D02*
X168040400Y-111709200D01*
%TO.N,/Switch_2*%
X173949400Y-73863200D02*
X173949400Y-95351600D01*
X173949400Y-95351600D02*
X177759400Y-99161600D01*
X164551400Y-67333200D02*
X167419400Y-67333200D01*
X167419400Y-67333200D02*
X173949400Y-73863200D01*
%TO.N,/Switch_3*%
X177759400Y-79171800D02*
X177810200Y-79222600D01*
X177759400Y-74498200D02*
X177759400Y-79171800D01*
X164551400Y-64793200D02*
X168054400Y-64793200D01*
X168054400Y-64793200D02*
X177759400Y-74498200D01*
%TO.N,/Switch_4*%
X174240200Y-63523200D02*
X177962600Y-59800800D01*
X164551400Y-63523200D02*
X174240200Y-63523200D01*
%TO.N,/Rx*%
X173949400Y-54178200D02*
X173949400Y-50800000D01*
X164551400Y-59713200D02*
X164551400Y-59766200D01*
X164551400Y-59766200D02*
X168361400Y-59766200D01*
X173949400Y-50800000D02*
X173797000Y-50647600D01*
X168361400Y-59766200D02*
X173949400Y-54178200D01*
%TO.N,/Tx*%
X167144400Y-58443200D02*
X164551400Y-58443200D01*
X171409400Y-54178200D02*
X167144400Y-58443200D01*
X171409400Y-50800000D02*
X171409400Y-54178200D01*
X171257000Y-50647600D02*
X171409400Y-50800000D01*
%TO.N,/Relay_1_R*%
X87437000Y-81263800D02*
X87335400Y-81162200D01*
D42*
X87011000Y-85187000D02*
X87011000Y-81486600D01*
X87011000Y-81486600D02*
X87335400Y-81162200D01*
%TO.N,/Relay_2_R*%
X104101300Y-80518000D02*
X104101300Y-84867400D01*
X104101300Y-84867400D02*
X104033400Y-84935300D01*
%TO.N,/Relay_3_R*%
X122702400Y-80967700D02*
X122982700Y-80687400D01*
X122702400Y-85062300D02*
X122702400Y-80967700D01*
%TO.N,/Relay_4_R*%
X140558600Y-81066600D02*
X140650000Y-80975200D01*
D41*
X140650000Y-80975200D02*
X140675400Y-81000600D01*
D42*
X140558600Y-84909900D02*
X140558600Y-81066600D01*
D41*
%TO.N,/Led_1*%
X82846400Y-79845200D02*
X83017400Y-80016200D01*
X80477400Y-79845200D02*
X82846400Y-79845200D01*
%TO.N,/Led_2*%
X97216000Y-79935700D02*
X99827300Y-79935700D01*
%TO.N,/Led_3*%
X115767200Y-79650900D02*
X117908700Y-79650900D01*
X117908700Y-79650900D02*
X118053200Y-79795400D01*
D42*
%TO.N,/Led_4*%
X136466900Y-79836700D02*
X136611400Y-79981200D01*
X134071400Y-79836700D02*
X136466900Y-79836700D01*
D43*
%TO.N,/COM_1*%
X82643000Y-112306600D02*
X80354000Y-112306600D01*
X84104000Y-104400600D02*
X84104000Y-110845600D01*
X84104000Y-110845600D02*
X82643000Y-112306600D01*
%TO.N,/COM_2*%
X102118200Y-104317800D02*
X102118200Y-110667800D01*
X100566200Y-112219800D02*
X98368200Y-112219800D01*
X102118200Y-110667800D02*
X100566200Y-112219800D01*
%TO.N,/COM_3*%
X120578400Y-111150600D02*
X120578400Y-104344600D01*
X116828400Y-112246600D02*
X119482400Y-112246600D01*
X119482400Y-112246600D02*
X120578400Y-111150600D01*
%TO.N,/COM_4*%
X137523200Y-112169000D02*
X135325200Y-112169000D01*
X139075200Y-104267000D02*
X139075200Y-110617000D01*
X139075200Y-110617000D02*
X137523200Y-112169000D01*
D42*
%TO.N,Net-(D9-A)*%
X72679600Y-77518900D02*
X72679600Y-79707100D01*
X72679600Y-79707100D02*
X72705000Y-79732500D01*
%TD*%
%TA.AperFunction,Conductor*%
%TO.N,+3.3V*%
G36*
X138330709Y-60700285D02*
G01*
X138351351Y-60716919D01*
X138385544Y-60751112D01*
X138534866Y-60843214D01*
X138701403Y-60898399D01*
X138804191Y-60908900D01*
X139854208Y-60908899D01*
X139854216Y-60908898D01*
X139854219Y-60908898D01*
X139910502Y-60903148D01*
X139956997Y-60898399D01*
X140123534Y-60843214D01*
X140272856Y-60751112D01*
X140307049Y-60716919D01*
X140368372Y-60683434D01*
X140394730Y-60680600D01*
X140439522Y-60680600D01*
X140506561Y-60700285D01*
X140534780Y-60725216D01*
X140595859Y-60798511D01*
X140623655Y-60862613D01*
X140624600Y-60877893D01*
X140624600Y-66122192D01*
X140604915Y-66189231D01*
X140564400Y-66228520D01*
X140527051Y-66250928D01*
X140463255Y-66268600D01*
X134275162Y-66268600D01*
X134208123Y-66248915D01*
X134187481Y-66232281D01*
X134133119Y-66177919D01*
X134099634Y-66116596D01*
X134096800Y-66090238D01*
X134096800Y-64643000D01*
X133842800Y-64439800D01*
X131492156Y-64439800D01*
X131425117Y-64420115D01*
X131417845Y-64415067D01*
X131401731Y-64403004D01*
X131401729Y-64403003D01*
X131401728Y-64403002D01*
X131266882Y-64352708D01*
X131266883Y-64352708D01*
X131207283Y-64346301D01*
X131207281Y-64346300D01*
X131207273Y-64346300D01*
X131207264Y-64346300D01*
X129111529Y-64346300D01*
X129111523Y-64346301D01*
X129051916Y-64352708D01*
X128917071Y-64403002D01*
X128917069Y-64403004D01*
X128900955Y-64415067D01*
X128835491Y-64439484D01*
X128826644Y-64439800D01*
X128814036Y-64439800D01*
X128746997Y-64420115D01*
X128703127Y-64371254D01*
X128598091Y-64161182D01*
X128585000Y-64105728D01*
X128585000Y-62371170D01*
X128604685Y-62304131D01*
X128638418Y-62269218D01*
X128670079Y-62247299D01*
X128764340Y-62182041D01*
X128830662Y-62160067D01*
X128898337Y-62177438D01*
X128909220Y-62184720D01*
X128917069Y-62190596D01*
X128917072Y-62190597D01*
X129051917Y-62240891D01*
X129051916Y-62240891D01*
X129058844Y-62241635D01*
X129111527Y-62247300D01*
X131207272Y-62247299D01*
X131266883Y-62240891D01*
X131401731Y-62190596D01*
X131485704Y-62127733D01*
X131551168Y-62103316D01*
X131560015Y-62103000D01*
X133842798Y-62103000D01*
X133842800Y-62103000D01*
X134096800Y-61798200D01*
X134096800Y-60865678D01*
X134116485Y-60798639D01*
X134141413Y-60770422D01*
X134214713Y-60709339D01*
X134278814Y-60681545D01*
X134294094Y-60680600D01*
X138263670Y-60680600D01*
X138330709Y-60700285D01*
G37*
%TD.AperFunction*%
%TD*%
%TA.AperFunction,Conductor*%
%TO.N,/P_AC*%
G36*
X86399695Y-53715285D02*
G01*
X86401439Y-53716426D01*
X87076984Y-54166789D01*
X87121844Y-54220353D01*
X87132200Y-54269962D01*
X87132200Y-60730964D01*
X87112515Y-60798003D01*
X87063654Y-60841873D01*
X86650382Y-61048509D01*
X86594928Y-61061600D01*
X71675744Y-61061600D01*
X71608705Y-61041915D01*
X71606961Y-61040774D01*
X70931417Y-60590411D01*
X70886556Y-60536846D01*
X70876200Y-60487237D01*
X70876200Y-57353204D01*
X71814353Y-57353204D01*
X71834513Y-57622226D01*
X71834513Y-57622228D01*
X71894542Y-57885233D01*
X71894548Y-57885252D01*
X71993109Y-58136381D01*
X71993108Y-58136381D01*
X72128002Y-58370022D01*
X72181694Y-58437351D01*
X72181695Y-58437351D01*
X72979259Y-57639786D01*
X73039080Y-57753766D01*
X73151805Y-57881006D01*
X73291705Y-57977571D01*
X73332941Y-57993210D01*
X72534248Y-58791902D01*
X72716883Y-58916420D01*
X72716885Y-58916421D01*
X72959939Y-59033469D01*
X72959937Y-59033469D01*
X73217737Y-59112990D01*
X73217743Y-59112992D01*
X73484501Y-59153199D01*
X73484510Y-59153200D01*
X73754290Y-59153200D01*
X73754298Y-59153199D01*
X74021056Y-59112992D01*
X74021062Y-59112990D01*
X74278861Y-59033469D01*
X74521921Y-58916418D01*
X74704550Y-58791902D01*
X73905857Y-57993210D01*
X73947095Y-57977571D01*
X74086995Y-57881006D01*
X74199720Y-57753766D01*
X74259539Y-57639787D01*
X75057103Y-58437351D01*
X75057104Y-58437350D01*
X75110793Y-58370028D01*
X75110800Y-58370017D01*
X75245690Y-58136381D01*
X75276828Y-58057044D01*
X81186900Y-58057044D01*
X81193301Y-58116572D01*
X81193303Y-58116579D01*
X81243545Y-58251286D01*
X81243549Y-58251293D01*
X81329709Y-58366387D01*
X81329712Y-58366390D01*
X81444806Y-58452550D01*
X81444813Y-58452554D01*
X81579520Y-58502796D01*
X81579527Y-58502798D01*
X81639055Y-58509199D01*
X81639072Y-58509200D01*
X82736900Y-58509200D01*
X82736900Y-57613510D01*
X82745717Y-57618358D01*
X82904786Y-57659200D01*
X83027794Y-57659200D01*
X83149833Y-57643783D01*
X83236900Y-57609310D01*
X83236900Y-58509200D01*
X84334728Y-58509200D01*
X84334744Y-58509199D01*
X84394272Y-58502798D01*
X84394279Y-58502796D01*
X84528986Y-58452554D01*
X84528993Y-58452550D01*
X84644087Y-58366390D01*
X84644090Y-58366387D01*
X84730250Y-58251293D01*
X84730254Y-58251286D01*
X84780496Y-58116579D01*
X84780498Y-58116572D01*
X84786899Y-58057044D01*
X84786900Y-58057027D01*
X84786900Y-57259200D01*
X83587628Y-57259200D01*
X83610000Y-57211657D01*
X83640773Y-57050338D01*
X83630461Y-56886434D01*
X83589120Y-56759200D01*
X84786900Y-56759200D01*
X84786900Y-55961372D01*
X84786899Y-55961355D01*
X84780498Y-55901827D01*
X84780496Y-55901820D01*
X84730254Y-55767113D01*
X84730250Y-55767106D01*
X84644090Y-55652012D01*
X84644087Y-55652009D01*
X84528993Y-55565849D01*
X84528986Y-55565845D01*
X84394279Y-55515603D01*
X84394272Y-55515601D01*
X84334744Y-55509200D01*
X83236900Y-55509200D01*
X83236900Y-56404889D01*
X83228083Y-56400042D01*
X83069014Y-56359200D01*
X82946006Y-56359200D01*
X82823967Y-56374617D01*
X82736900Y-56409089D01*
X82736900Y-55509200D01*
X81639055Y-55509200D01*
X81579527Y-55515601D01*
X81579520Y-55515603D01*
X81444813Y-55565845D01*
X81444806Y-55565849D01*
X81329712Y-55652009D01*
X81329709Y-55652012D01*
X81243549Y-55767106D01*
X81243545Y-55767113D01*
X81193303Y-55901820D01*
X81193301Y-55901827D01*
X81186900Y-55961355D01*
X81186900Y-56759200D01*
X82386172Y-56759200D01*
X82363800Y-56806743D01*
X82333027Y-56968062D01*
X82343339Y-57131966D01*
X82384680Y-57259200D01*
X81186900Y-57259200D01*
X81186900Y-58057044D01*
X75276828Y-58057044D01*
X75344251Y-57885252D01*
X75344257Y-57885233D01*
X75404286Y-57622228D01*
X75404286Y-57622226D01*
X75424447Y-57353204D01*
X75424447Y-57353195D01*
X75404286Y-57084173D01*
X75404286Y-57084171D01*
X75344257Y-56821166D01*
X75344251Y-56821147D01*
X75245690Y-56570018D01*
X75245691Y-56570018D01*
X75110797Y-56336377D01*
X75057104Y-56269047D01*
X74259539Y-57066612D01*
X74199720Y-56952634D01*
X74086995Y-56825394D01*
X73947095Y-56728829D01*
X73905857Y-56713189D01*
X74704550Y-55914496D01*
X74521917Y-55789979D01*
X74521916Y-55789978D01*
X74278860Y-55672930D01*
X74278862Y-55672930D01*
X74021062Y-55593409D01*
X74021056Y-55593407D01*
X73754298Y-55553200D01*
X73484501Y-55553200D01*
X73217743Y-55593407D01*
X73217737Y-55593409D01*
X72959938Y-55672930D01*
X72716885Y-55789978D01*
X72716876Y-55789983D01*
X72534248Y-55914496D01*
X73332942Y-56713189D01*
X73291705Y-56728829D01*
X73151805Y-56825394D01*
X73039080Y-56952634D01*
X72979259Y-57066612D01*
X72181695Y-56269048D01*
X72128000Y-56336380D01*
X71993109Y-56570018D01*
X71894548Y-56821147D01*
X71894542Y-56821166D01*
X71834513Y-57084171D01*
X71834513Y-57084173D01*
X71814353Y-57353195D01*
X71814353Y-57353204D01*
X70876200Y-57353204D01*
X70876200Y-54038974D01*
X70895885Y-53971935D01*
X70948689Y-53926180D01*
X70960982Y-53921339D01*
X71619111Y-53701963D01*
X71658323Y-53695600D01*
X86332656Y-53695600D01*
X86399695Y-53715285D01*
G37*
%TD.AperFunction*%
%TD*%
%TA.AperFunction,Conductor*%
%TO.N,/N_AC*%
G36*
X86448115Y-62198885D02*
G01*
X86483342Y-62233074D01*
X86879616Y-62810974D01*
X87034266Y-63036504D01*
X87055945Y-63102926D01*
X87056000Y-63106630D01*
X87056000Y-69595564D01*
X87036315Y-69662603D01*
X86987454Y-69706473D01*
X86574182Y-69913109D01*
X86518728Y-69926200D01*
X71599544Y-69926200D01*
X71532505Y-69906515D01*
X71530761Y-69905374D01*
X70855217Y-69455011D01*
X70810356Y-69401446D01*
X70800000Y-69351837D01*
X70800000Y-66201044D01*
X71819400Y-66201044D01*
X71825801Y-66260572D01*
X71825803Y-66260579D01*
X71876045Y-66395286D01*
X71876049Y-66395293D01*
X71962209Y-66510387D01*
X71962212Y-66510390D01*
X72077306Y-66596550D01*
X72077313Y-66596554D01*
X72212020Y-66646796D01*
X72212027Y-66646798D01*
X72271555Y-66653199D01*
X72271572Y-66653200D01*
X73369400Y-66653200D01*
X73369400Y-65507037D01*
X73450649Y-65537851D01*
X73577060Y-65553200D01*
X73661740Y-65553200D01*
X73788151Y-65537851D01*
X73869400Y-65507037D01*
X73869400Y-66653200D01*
X74967228Y-66653200D01*
X74967244Y-66653199D01*
X75026772Y-66646798D01*
X75026779Y-66646796D01*
X75161486Y-66596554D01*
X75161493Y-66596550D01*
X75276587Y-66510390D01*
X75276590Y-66510387D01*
X75362750Y-66395293D01*
X75362754Y-66395286D01*
X75412996Y-66260579D01*
X75412998Y-66260572D01*
X75419399Y-66201044D01*
X75419400Y-66201027D01*
X75419400Y-65103200D01*
X74278729Y-65103200D01*
X74319400Y-64938195D01*
X74319400Y-64809204D01*
X81181853Y-64809204D01*
X81202013Y-65078226D01*
X81202013Y-65078228D01*
X81262042Y-65341233D01*
X81262048Y-65341252D01*
X81360609Y-65592381D01*
X81360608Y-65592381D01*
X81495502Y-65826022D01*
X81549194Y-65893351D01*
X81549195Y-65893351D01*
X82384352Y-65058193D01*
X82394088Y-65088156D01*
X82482086Y-65226819D01*
X82601803Y-65339240D01*
X82736410Y-65413241D01*
X81901748Y-66247902D01*
X82084383Y-66372420D01*
X82084385Y-66372421D01*
X82327439Y-66489469D01*
X82327437Y-66489469D01*
X82585237Y-66568990D01*
X82585243Y-66568992D01*
X82852001Y-66609199D01*
X82852010Y-66609200D01*
X83121790Y-66609200D01*
X83121798Y-66609199D01*
X83388556Y-66568992D01*
X83388562Y-66568990D01*
X83646361Y-66489469D01*
X83889421Y-66372418D01*
X84072050Y-66247902D01*
X83234434Y-65410286D01*
X83302529Y-65383326D01*
X83435392Y-65286795D01*
X83540075Y-65160255D01*
X83588531Y-65057279D01*
X84424603Y-65893351D01*
X84424604Y-65893350D01*
X84478293Y-65826028D01*
X84478300Y-65826017D01*
X84613190Y-65592381D01*
X84711751Y-65341252D01*
X84711757Y-65341233D01*
X84771786Y-65078228D01*
X84771786Y-65078226D01*
X84791947Y-64809204D01*
X84791947Y-64809195D01*
X84771786Y-64540173D01*
X84771786Y-64540171D01*
X84711757Y-64277166D01*
X84711751Y-64277147D01*
X84613190Y-64026018D01*
X84613191Y-64026018D01*
X84478297Y-63792377D01*
X84424604Y-63725047D01*
X83589446Y-64560204D01*
X83579712Y-64530244D01*
X83491714Y-64391581D01*
X83371997Y-64279160D01*
X83237389Y-64205158D01*
X84072050Y-63370496D01*
X83889417Y-63245979D01*
X83889416Y-63245978D01*
X83646360Y-63128930D01*
X83646362Y-63128930D01*
X83388562Y-63049409D01*
X83388556Y-63049407D01*
X83121798Y-63009200D01*
X82852001Y-63009200D01*
X82585243Y-63049407D01*
X82585237Y-63049409D01*
X82327438Y-63128930D01*
X82084385Y-63245978D01*
X82084376Y-63245983D01*
X81901748Y-63370496D01*
X82739365Y-64208113D01*
X82671271Y-64235074D01*
X82538408Y-64331605D01*
X82433725Y-64458145D01*
X82385268Y-64561121D01*
X81549195Y-63725048D01*
X81495500Y-63792380D01*
X81360609Y-64026018D01*
X81262048Y-64277147D01*
X81262042Y-64277166D01*
X81202013Y-64540171D01*
X81202013Y-64540173D01*
X81181853Y-64809195D01*
X81181853Y-64809204D01*
X74319400Y-64809204D01*
X74319400Y-64768205D01*
X74278729Y-64603200D01*
X75419400Y-64603200D01*
X75419400Y-63505372D01*
X75419399Y-63505355D01*
X75412998Y-63445827D01*
X75412996Y-63445820D01*
X75362754Y-63311113D01*
X75362750Y-63311106D01*
X75276590Y-63196012D01*
X75276587Y-63196009D01*
X75161493Y-63109849D01*
X75161486Y-63109845D01*
X75026779Y-63059603D01*
X75026772Y-63059601D01*
X74967244Y-63053200D01*
X73869400Y-63053200D01*
X73869400Y-64199362D01*
X73788151Y-64168549D01*
X73661740Y-64153200D01*
X73577060Y-64153200D01*
X73450649Y-64168549D01*
X73369400Y-64199362D01*
X73369400Y-63053200D01*
X72271555Y-63053200D01*
X72212027Y-63059601D01*
X72212020Y-63059603D01*
X72077313Y-63109845D01*
X72077306Y-63109849D01*
X71962212Y-63196009D01*
X71962209Y-63196012D01*
X71876049Y-63311106D01*
X71876045Y-63311113D01*
X71825803Y-63445820D01*
X71825801Y-63445827D01*
X71819400Y-63505355D01*
X71819400Y-64603200D01*
X72960071Y-64603200D01*
X72919400Y-64768205D01*
X72919400Y-64938195D01*
X72960071Y-65103200D01*
X71819400Y-65103200D01*
X71819400Y-66201044D01*
X70800000Y-66201044D01*
X70800000Y-62878013D01*
X70819685Y-62810974D01*
X70851926Y-62777110D01*
X71656664Y-62202297D01*
X71722658Y-62179349D01*
X71728738Y-62179200D01*
X86381076Y-62179200D01*
X86448115Y-62198885D01*
G37*
%TD.AperFunction*%
%TD*%
M02*
