%TF.GenerationSoftware,KiCad,Pcbnew,7.0.8*%
%TF.CreationDate,2024-09-18T17:33:38+05:30*%
%TF.ProjectId,Esp32_relay,45737033-325f-4726-956c-61792e6b6963,rev?*%
%TF.SameCoordinates,Original*%
%TF.FileFunction,Copper,L3,Inr*%
%TF.FilePolarity,Positive*%
%FSLAX46Y46*%
G04 Gerber Fmt 4.6, Leading zero omitted, Abs format (unit mm)*
G04 Created by KiCad (PCBNEW 7.0.8) date 2024-09-18 17:33:38*
%MOMM*%
%LPD*%
G01*
G04 APERTURE LIST*
%TA.AperFunction,ComponentPad*%
%ADD10R,2.600000X2.000000*%
%TD*%
%TA.AperFunction,ComponentPad*%
%ADD11C,2.600000*%
%TD*%
%TA.AperFunction,ComponentPad*%
%ADD12C,1.500000*%
%TD*%
%TA.AperFunction,ComponentPad*%
%ADD13C,5.000000*%
%TD*%
%TA.AperFunction,ComponentPad*%
%ADD14R,1.980000X1.980000*%
%TD*%
%TA.AperFunction,ComponentPad*%
%ADD15C,1.980000*%
%TD*%
%TA.AperFunction,ComponentPad*%
%ADD16C,1.935000*%
%TD*%
%TA.AperFunction,ComponentPad*%
%ADD17R,2.600000X2.600000*%
%TD*%
%TA.AperFunction,ComponentPad*%
%ADD18R,1.700000X1.700000*%
%TD*%
%TA.AperFunction,ComponentPad*%
%ADD19O,1.700000X1.700000*%
%TD*%
%TA.AperFunction,ViaPad*%
%ADD20C,0.900000*%
%TD*%
%TA.AperFunction,ViaPad*%
%ADD21C,0.800000*%
%TD*%
G04 APERTURE END LIST*
D10*
%TO.N,/P_AC*%
%TO.C,PS1*%
X82986900Y-57009200D03*
D11*
%TO.N,/N_AC*%
X82986900Y-64809200D03*
%TO.N,GND*%
X125486900Y-49609200D03*
%TO.N,+5V*%
X125486900Y-72209200D03*
%TD*%
D12*
%TO.N,/RESET*%
%TO.C,S1*%
X162483400Y-80265200D03*
%TO.N,GND*%
X162483400Y-86765200D03*
%TO.N,/RESET*%
X157983400Y-80265200D03*
%TO.N,GND*%
X157983400Y-86765200D03*
%TD*%
D13*
%TO.N,GND*%
%TO.C,H2*%
X71612800Y-114071400D03*
%TD*%
D14*
%TO.N,+5V*%
%TO.C,K4*%
X133075200Y-102267000D03*
D15*
%TO.N,/Relay_4_T*%
X145075200Y-102267000D03*
D16*
%TO.N,/COM_4*%
X139075200Y-104267000D03*
D15*
%TO.N,unconnected-(K4-PadNC)*%
X133075200Y-90067000D03*
%TO.N,/NO_4*%
X145075200Y-90067000D03*
%TD*%
D14*
%TO.N,+5V*%
%TO.C,K3*%
X114578400Y-102344600D03*
D15*
%TO.N,/Relay_3_T*%
X126578400Y-102344600D03*
D16*
%TO.N,/COM_3*%
X120578400Y-104344600D03*
D15*
%TO.N,unconnected-(K3-PadNC)*%
X114578400Y-90144600D03*
%TO.N,/NO_3*%
X126578400Y-90144600D03*
%TD*%
D17*
%TO.N,/Switch_1*%
%TO.C,J8*%
X163662400Y-111709200D03*
D11*
%TO.N,GND*%
X156162400Y-111709200D03*
%TD*%
D17*
%TO.N,/Switch_2*%
%TO.C,J9*%
X177759400Y-99161600D03*
D11*
%TO.N,GND*%
X177759400Y-106661600D03*
%TD*%
D14*
%TO.N,+5V*%
%TO.C,K2*%
X96118200Y-102317800D03*
D15*
%TO.N,/Relay_2_T*%
X108118200Y-102317800D03*
D16*
%TO.N,/COM_2*%
X102118200Y-104317800D03*
D15*
%TO.N,unconnected-(K2-PadNC)*%
X96118200Y-90117800D03*
%TO.N,/NO_2*%
X108118200Y-90117800D03*
%TD*%
D13*
%TO.N,GND*%
%TO.C,H4*%
X179232600Y-114071400D03*
%TD*%
%TO.N,GND*%
%TO.C,H1*%
X71435000Y-49631600D03*
%TD*%
D17*
%TO.N,/NO_1*%
%TO.C,J2*%
X87854000Y-112306600D03*
D11*
%TO.N,/COM_1*%
X80354000Y-112306600D03*
%TD*%
D17*
%TO.N,/N_AC*%
%TO.C,J1*%
X73619400Y-64853200D03*
D11*
%TO.N,/P_AC*%
X73619400Y-57353200D03*
%TD*%
D17*
%TO.N,/NO_2*%
%TO.C,J3*%
X105868200Y-112219800D03*
D11*
%TO.N,/COM_2*%
X98368200Y-112219800D03*
%TD*%
D17*
%TO.N,/Switch_3*%
%TO.C,J7*%
X177810200Y-79222600D03*
D11*
%TO.N,GND*%
X177810200Y-86722600D03*
%TD*%
D13*
%TO.N,GND*%
%TO.C,H3*%
X179283400Y-49834800D03*
%TD*%
D17*
%TO.N,/NO_4*%
%TO.C,J5*%
X142825200Y-112169000D03*
D11*
%TO.N,/COM_4*%
X135325200Y-112169000D03*
%TD*%
D18*
%TO.N,GND*%
%TO.C,J6*%
X168717000Y-50647600D03*
D19*
%TO.N,/Tx*%
X171257000Y-50647600D03*
%TO.N,/Rx*%
X173797000Y-50647600D03*
%TD*%
D17*
%TO.N,/Switch_4*%
%TO.C,J10*%
X177962600Y-59800800D03*
D11*
%TO.N,GND*%
X177962600Y-67300800D03*
%TD*%
D14*
%TO.N,+5V*%
%TO.C,K1*%
X78104000Y-102400600D03*
D15*
%TO.N,/Relay_1_T*%
X90104000Y-102400600D03*
D16*
%TO.N,/COM_1*%
X84104000Y-104400600D03*
D15*
%TO.N,unconnected-(K1-PadNC)*%
X78104000Y-90200600D03*
%TO.N,/NO_1*%
X90104000Y-90200600D03*
%TD*%
D17*
%TO.N,/NO_3*%
%TO.C,J4*%
X124328400Y-112246600D03*
D11*
%TO.N,/COM_3*%
X116828400Y-112246600D03*
%TD*%
D12*
%TO.N,/EN*%
%TO.C,S2*%
X153354200Y-79910800D03*
%TO.N,GND*%
X153354200Y-86410800D03*
%TO.N,/EN*%
X148854200Y-79910800D03*
%TO.N,GND*%
X148854200Y-86410800D03*
%TD*%
D20*
%TO.N,GND*%
X104648000Y-50292000D03*
X101854000Y-67310000D03*
X106934000Y-50292000D03*
X85151000Y-81508600D03*
X94996000Y-53848000D03*
X153162000Y-69596000D03*
X151638000Y-66548000D03*
X93472000Y-56896000D03*
X155194000Y-69342000D03*
X109220000Y-50292000D03*
X98552000Y-62992000D03*
X138389400Y-54813200D03*
X102108000Y-50292000D03*
X150368000Y-66548000D03*
X95758000Y-67564000D03*
X91694000Y-59944000D03*
X93472000Y-50292000D03*
X151851400Y-62179200D03*
X151597400Y-63703200D03*
X95504000Y-60706000D03*
X101346000Y-64262000D03*
D21*
X72730400Y-84226400D03*
D20*
X93472000Y-63754000D03*
X101092000Y-57150000D03*
X154137400Y-64973200D03*
X138567200Y-81203800D03*
X121142800Y-81229200D03*
X118872000Y-50292000D03*
X153416000Y-66548000D03*
D21*
X130159800Y-58877200D03*
D20*
X113792000Y-50292000D03*
X111506000Y-50292000D03*
X156931400Y-63703200D03*
X155448000Y-66548000D03*
X95504000Y-56642000D03*
X93726000Y-67818000D03*
X154178000Y-68326000D03*
X162306000Y-66548000D03*
X91694000Y-67818000D03*
X159004000Y-66548000D03*
X101346000Y-60198000D03*
X97536000Y-50292000D03*
D21*
X141081800Y-59893200D03*
D20*
X159258000Y-67818000D03*
X160528000Y-66548000D03*
X91694000Y-53594000D03*
X157988000Y-67818000D03*
X102346800Y-81432400D03*
X91694000Y-56642000D03*
X116332000Y-50292000D03*
X97028000Y-53848000D03*
D21*
X131785400Y-74320400D03*
D20*
X156972000Y-69088000D03*
X152867400Y-59639200D03*
X93726000Y-59944000D03*
X155661400Y-59639200D03*
X150327400Y-70307200D03*
X93472000Y-53594000D03*
X157480000Y-66548000D03*
X156931400Y-62179200D03*
X100330000Y-53086000D03*
X158496000Y-69342000D03*
X95504000Y-50292000D03*
X95504000Y-64262000D03*
X165059400Y-85293200D03*
X91694000Y-50292000D03*
X99822000Y-50292000D03*
X155956000Y-67818000D03*
X99060000Y-67056000D03*
X152400000Y-68326000D03*
X91694000Y-63754000D03*
X154137400Y-59639200D03*
X160528000Y-69342000D03*
X98298000Y-59182000D03*
X98552000Y-56896000D03*
D21*
%TO.N,+3.3V*%
X132395000Y-81661000D03*
X138668800Y-56489600D03*
X139176800Y-65684400D03*
X72730400Y-74015600D03*
D20*
X143919200Y-77361000D03*
D21*
X140370600Y-57861200D03*
X114107000Y-81483200D03*
X138440200Y-63246000D03*
D20*
X167345400Y-77165200D03*
D21*
X139710200Y-63296800D03*
X78826400Y-81635600D03*
X138516400Y-64592200D03*
X139786400Y-64541400D03*
X95590400Y-81762600D03*
D20*
%TO.N,+5V*%
X76413400Y-85217000D03*
X111567000Y-85013800D03*
X129651800Y-84836000D03*
X92542400Y-84556600D03*
%TD*%
%TA.AperFunction,Conductor*%
%TO.N,GND*%
G36*
X144809439Y-46193385D02*
G01*
X144855194Y-46246189D01*
X144866400Y-46297700D01*
X144866400Y-53873400D01*
X166456400Y-53873400D01*
X166456400Y-50647600D01*
X169901341Y-50647600D01*
X169921936Y-50883003D01*
X169921938Y-50883013D01*
X169983094Y-51111255D01*
X169983096Y-51111259D01*
X169983097Y-51111263D01*
X169987000Y-51119632D01*
X170082965Y-51325430D01*
X170082967Y-51325434D01*
X170191281Y-51480121D01*
X170218505Y-51519001D01*
X170385599Y-51686095D01*
X170482384Y-51753865D01*
X170579165Y-51821632D01*
X170579167Y-51821633D01*
X170579170Y-51821635D01*
X170793337Y-51921503D01*
X171021592Y-51982663D01*
X171209918Y-51999139D01*
X171256999Y-52003259D01*
X171257000Y-52003259D01*
X171257001Y-52003259D01*
X171296234Y-51999826D01*
X171492408Y-51982663D01*
X171720663Y-51921503D01*
X171934830Y-51821635D01*
X172128401Y-51686095D01*
X172295495Y-51519001D01*
X172425425Y-51333442D01*
X172480002Y-51289817D01*
X172549500Y-51282623D01*
X172611855Y-51314146D01*
X172628575Y-51333442D01*
X172758500Y-51518995D01*
X172758505Y-51519001D01*
X172925599Y-51686095D01*
X173022384Y-51753865D01*
X173119165Y-51821632D01*
X173119167Y-51821633D01*
X173119170Y-51821635D01*
X173333337Y-51921503D01*
X173561592Y-51982663D01*
X173749918Y-51999139D01*
X173796999Y-52003259D01*
X173797000Y-52003259D01*
X173797001Y-52003259D01*
X173836234Y-51999826D01*
X174032408Y-51982663D01*
X174260663Y-51921503D01*
X174474830Y-51821635D01*
X174668401Y-51686095D01*
X174835495Y-51519001D01*
X174971035Y-51325430D01*
X175070903Y-51111263D01*
X175132063Y-50883008D01*
X175152659Y-50647600D01*
X175132063Y-50412192D01*
X175070903Y-50183937D01*
X174971035Y-49969771D01*
X174965425Y-49961758D01*
X174835494Y-49776197D01*
X174668402Y-49609106D01*
X174668395Y-49609101D01*
X174474834Y-49473567D01*
X174474830Y-49473565D01*
X174474828Y-49473564D01*
X174260663Y-49373697D01*
X174260659Y-49373696D01*
X174260655Y-49373694D01*
X174032413Y-49312538D01*
X174032403Y-49312536D01*
X173797001Y-49291941D01*
X173796999Y-49291941D01*
X173561596Y-49312536D01*
X173561586Y-49312538D01*
X173333344Y-49373694D01*
X173333335Y-49373698D01*
X173119171Y-49473564D01*
X173119169Y-49473565D01*
X172925597Y-49609105D01*
X172758505Y-49776197D01*
X172628575Y-49961758D01*
X172573998Y-50005383D01*
X172504500Y-50012577D01*
X172442145Y-49981054D01*
X172425425Y-49961758D01*
X172295494Y-49776197D01*
X172128402Y-49609106D01*
X172128395Y-49609101D01*
X171934834Y-49473567D01*
X171934830Y-49473565D01*
X171934828Y-49473564D01*
X171720663Y-49373697D01*
X171720659Y-49373696D01*
X171720655Y-49373694D01*
X171492413Y-49312538D01*
X171492403Y-49312536D01*
X171257001Y-49291941D01*
X171256999Y-49291941D01*
X171021596Y-49312536D01*
X171021586Y-49312538D01*
X170793344Y-49373694D01*
X170793335Y-49373698D01*
X170579171Y-49473564D01*
X170579169Y-49473565D01*
X170385597Y-49609105D01*
X170218505Y-49776197D01*
X170082965Y-49969769D01*
X170082964Y-49969771D01*
X169983098Y-50183935D01*
X169983094Y-50183944D01*
X169921938Y-50412186D01*
X169921936Y-50412196D01*
X169901341Y-50647599D01*
X169901341Y-50647600D01*
X166456400Y-50647600D01*
X166456400Y-46297700D01*
X166476085Y-46230661D01*
X166528889Y-46184906D01*
X166580400Y-46173700D01*
X183735553Y-46173700D01*
X183802592Y-46193385D01*
X183848347Y-46246189D01*
X183859553Y-46297483D01*
X183985245Y-118268683D01*
X183965677Y-118335757D01*
X183912953Y-118381604D01*
X183861245Y-118392900D01*
X67770247Y-118392900D01*
X67703208Y-118373215D01*
X67657453Y-118320411D01*
X67646247Y-118269117D01*
X67635834Y-112306604D01*
X78548451Y-112306604D01*
X78568616Y-112575701D01*
X78628664Y-112838788D01*
X78628666Y-112838795D01*
X78714338Y-113057083D01*
X78727257Y-113089998D01*
X78862185Y-113323702D01*
X78961218Y-113447885D01*
X79030442Y-113534689D01*
X79163593Y-113658234D01*
X79228259Y-113718235D01*
X79451226Y-113870251D01*
X79694359Y-113987338D01*
X79952228Y-114066880D01*
X79952229Y-114066880D01*
X79952232Y-114066881D01*
X80219063Y-114107099D01*
X80219068Y-114107099D01*
X80219071Y-114107100D01*
X80219072Y-114107100D01*
X80488928Y-114107100D01*
X80488929Y-114107100D01*
X80488936Y-114107099D01*
X80755767Y-114066881D01*
X80755768Y-114066880D01*
X80755772Y-114066880D01*
X81013641Y-113987338D01*
X81256775Y-113870251D01*
X81479741Y-113718235D01*
X81548463Y-113654470D01*
X86053500Y-113654470D01*
X86053501Y-113654476D01*
X86059908Y-113714083D01*
X86110202Y-113848928D01*
X86110206Y-113848935D01*
X86196452Y-113964144D01*
X86196455Y-113964147D01*
X86311664Y-114050393D01*
X86311671Y-114050397D01*
X86446517Y-114100691D01*
X86446516Y-114100691D01*
X86453444Y-114101435D01*
X86506127Y-114107100D01*
X89201872Y-114107099D01*
X89261483Y-114100691D01*
X89396331Y-114050396D01*
X89511546Y-113964146D01*
X89597796Y-113848931D01*
X89648091Y-113714083D01*
X89654500Y-113654473D01*
X89654499Y-112219804D01*
X96562651Y-112219804D01*
X96582816Y-112488901D01*
X96631271Y-112701195D01*
X96642866Y-112751995D01*
X96741457Y-113003198D01*
X96876385Y-113236902D01*
X97004127Y-113397085D01*
X97044642Y-113447889D01*
X97202634Y-113594483D01*
X97242459Y-113631435D01*
X97465426Y-113783451D01*
X97708559Y-113900538D01*
X97966428Y-113980080D01*
X97966429Y-113980080D01*
X97966432Y-113980081D01*
X98233263Y-114020299D01*
X98233268Y-114020299D01*
X98233271Y-114020300D01*
X98233272Y-114020300D01*
X98503128Y-114020300D01*
X98503129Y-114020300D01*
X98503136Y-114020299D01*
X98769967Y-113980081D01*
X98769968Y-113980080D01*
X98769972Y-113980080D01*
X99027841Y-113900538D01*
X99219965Y-113808016D01*
X99270967Y-113783455D01*
X99270967Y-113783454D01*
X99270975Y-113783451D01*
X99493941Y-113631435D01*
X99562663Y-113567670D01*
X104067700Y-113567670D01*
X104067701Y-113567676D01*
X104074108Y-113627283D01*
X104124402Y-113762128D01*
X104124406Y-113762135D01*
X104210652Y-113877344D01*
X104210655Y-113877347D01*
X104325864Y-113963593D01*
X104325871Y-113963597D01*
X104460717Y-114013891D01*
X104460716Y-114013891D01*
X104467644Y-114014635D01*
X104520327Y-114020300D01*
X107216072Y-114020299D01*
X107275683Y-114013891D01*
X107410531Y-113963596D01*
X107525746Y-113877346D01*
X107611996Y-113762131D01*
X107662291Y-113627283D01*
X107668700Y-113567673D01*
X107668700Y-112246604D01*
X115022851Y-112246604D01*
X115043016Y-112515701D01*
X115103064Y-112778788D01*
X115103066Y-112778795D01*
X115191138Y-113003198D01*
X115201657Y-113029998D01*
X115336585Y-113263702D01*
X115384433Y-113323701D01*
X115504842Y-113474689D01*
X115673774Y-113631434D01*
X115702659Y-113658235D01*
X115925626Y-113810251D01*
X116168759Y-113927338D01*
X116426628Y-114006880D01*
X116426629Y-114006880D01*
X116426632Y-114006881D01*
X116693463Y-114047099D01*
X116693468Y-114047099D01*
X116693471Y-114047100D01*
X116693472Y-114047100D01*
X116963328Y-114047100D01*
X116963329Y-114047100D01*
X116963336Y-114047099D01*
X117230167Y-114006881D01*
X117230168Y-114006880D01*
X117230172Y-114006880D01*
X117488041Y-113927338D01*
X117731175Y-113810251D01*
X117954141Y-113658235D01*
X118022863Y-113594470D01*
X122527900Y-113594470D01*
X122527901Y-113594476D01*
X122534308Y-113654083D01*
X122584602Y-113788928D01*
X122584606Y-113788935D01*
X122670852Y-113904144D01*
X122670855Y-113904147D01*
X122786064Y-113990393D01*
X122786071Y-113990397D01*
X122920917Y-114040691D01*
X122920916Y-114040691D01*
X122927844Y-114041435D01*
X122980527Y-114047100D01*
X125676272Y-114047099D01*
X125735883Y-114040691D01*
X125870731Y-113990396D01*
X125985946Y-113904146D01*
X126072196Y-113788931D01*
X126122491Y-113654083D01*
X126128900Y-113594473D01*
X126128899Y-112169004D01*
X133519651Y-112169004D01*
X133539816Y-112438101D01*
X133599864Y-112701188D01*
X133599866Y-112701195D01*
X133653870Y-112838795D01*
X133698457Y-112952398D01*
X133833385Y-113186102D01*
X133943117Y-113323701D01*
X134001642Y-113397089D01*
X134185500Y-113567683D01*
X134199459Y-113580635D01*
X134422426Y-113732651D01*
X134665559Y-113849738D01*
X134923428Y-113929280D01*
X134923429Y-113929280D01*
X134923432Y-113929281D01*
X135190263Y-113969499D01*
X135190268Y-113969499D01*
X135190271Y-113969500D01*
X135190272Y-113969500D01*
X135460128Y-113969500D01*
X135460129Y-113969500D01*
X135460136Y-113969499D01*
X135726967Y-113929281D01*
X135726968Y-113929280D01*
X135726972Y-113929280D01*
X135984841Y-113849738D01*
X136227975Y-113732651D01*
X136450941Y-113580635D01*
X136519663Y-113516870D01*
X141024700Y-113516870D01*
X141024701Y-113516876D01*
X141031108Y-113576483D01*
X141081402Y-113711328D01*
X141081406Y-113711335D01*
X141167652Y-113826544D01*
X141167655Y-113826547D01*
X141282864Y-113912793D01*
X141282871Y-113912797D01*
X141417717Y-113963091D01*
X141417716Y-113963091D01*
X141422386Y-113963593D01*
X141477327Y-113969500D01*
X144173072Y-113969499D01*
X144232683Y-113963091D01*
X144367531Y-113912796D01*
X144482746Y-113826546D01*
X144568996Y-113711331D01*
X144619291Y-113576483D01*
X144625700Y-113516873D01*
X144625700Y-113057070D01*
X161861900Y-113057070D01*
X161861901Y-113057076D01*
X161868308Y-113116683D01*
X161918602Y-113251528D01*
X161918606Y-113251535D01*
X162004852Y-113366744D01*
X162004855Y-113366747D01*
X162120064Y-113452993D01*
X162120071Y-113452997D01*
X162254917Y-113503291D01*
X162254916Y-113503291D01*
X162261844Y-113504035D01*
X162314527Y-113509700D01*
X165010272Y-113509699D01*
X165069883Y-113503291D01*
X165204731Y-113452996D01*
X165319946Y-113366746D01*
X165406196Y-113251531D01*
X165456491Y-113116683D01*
X165462900Y-113057073D01*
X165462899Y-110361328D01*
X165456491Y-110301717D01*
X165406196Y-110166869D01*
X165406195Y-110166868D01*
X165406193Y-110166864D01*
X165319947Y-110051655D01*
X165319944Y-110051652D01*
X165204735Y-109965406D01*
X165204728Y-109965402D01*
X165069882Y-109915108D01*
X165069883Y-109915108D01*
X165010283Y-109908701D01*
X165010281Y-109908700D01*
X165010273Y-109908700D01*
X165010264Y-109908700D01*
X162314529Y-109908700D01*
X162314523Y-109908701D01*
X162254916Y-109915108D01*
X162120071Y-109965402D01*
X162120064Y-109965406D01*
X162004855Y-110051652D01*
X162004852Y-110051655D01*
X161918606Y-110166864D01*
X161918602Y-110166871D01*
X161868308Y-110301717D01*
X161861901Y-110361316D01*
X161861901Y-110361323D01*
X161861900Y-110361335D01*
X161861900Y-113057070D01*
X144625700Y-113057070D01*
X144625699Y-110821128D01*
X144619291Y-110761517D01*
X144617742Y-110757365D01*
X144568997Y-110626671D01*
X144568993Y-110626664D01*
X144482747Y-110511455D01*
X144482744Y-110511452D01*
X144367535Y-110425206D01*
X144367528Y-110425202D01*
X144232682Y-110374908D01*
X144232683Y-110374908D01*
X144173083Y-110368501D01*
X144173081Y-110368500D01*
X144173073Y-110368500D01*
X144173064Y-110368500D01*
X141477329Y-110368500D01*
X141477323Y-110368501D01*
X141417716Y-110374908D01*
X141282871Y-110425202D01*
X141282864Y-110425206D01*
X141167655Y-110511452D01*
X141167652Y-110511455D01*
X141081406Y-110626664D01*
X141081402Y-110626671D01*
X141031108Y-110761517D01*
X141025647Y-110812316D01*
X141024701Y-110821123D01*
X141024700Y-110821135D01*
X141024700Y-113516870D01*
X136519663Y-113516870D01*
X136648761Y-113397085D01*
X136817015Y-113186102D01*
X136951943Y-112952398D01*
X137050534Y-112701195D01*
X137110583Y-112438103D01*
X137130749Y-112169000D01*
X137120894Y-112037497D01*
X137110583Y-111899898D01*
X137110583Y-111899897D01*
X137050534Y-111636805D01*
X136951943Y-111385602D01*
X136817015Y-111151898D01*
X136648761Y-110940915D01*
X136648760Y-110940914D01*
X136648757Y-110940910D01*
X136450941Y-110757365D01*
X136429789Y-110742944D01*
X136227975Y-110605349D01*
X136227969Y-110605346D01*
X136227968Y-110605345D01*
X136227967Y-110605344D01*
X135984843Y-110488263D01*
X135984845Y-110488263D01*
X135726973Y-110408720D01*
X135726967Y-110408718D01*
X135460136Y-110368500D01*
X135460129Y-110368500D01*
X135190271Y-110368500D01*
X135190263Y-110368500D01*
X134923432Y-110408718D01*
X134923426Y-110408720D01*
X134665558Y-110488262D01*
X134422430Y-110605346D01*
X134199458Y-110757365D01*
X134001642Y-110940910D01*
X133833385Y-111151898D01*
X133698458Y-111385599D01*
X133698456Y-111385603D01*
X133599866Y-111636804D01*
X133599864Y-111636811D01*
X133539816Y-111899898D01*
X133519651Y-112168995D01*
X133519651Y-112169004D01*
X126128899Y-112169004D01*
X126128899Y-110898728D01*
X126122491Y-110839117D01*
X126120942Y-110834965D01*
X126072197Y-110704271D01*
X126072193Y-110704264D01*
X125985947Y-110589055D01*
X125985944Y-110589052D01*
X125870735Y-110502806D01*
X125870728Y-110502802D01*
X125735882Y-110452508D01*
X125735883Y-110452508D01*
X125676283Y-110446101D01*
X125676281Y-110446100D01*
X125676273Y-110446100D01*
X125676264Y-110446100D01*
X122980529Y-110446100D01*
X122980523Y-110446101D01*
X122920916Y-110452508D01*
X122786071Y-110502802D01*
X122786064Y-110502806D01*
X122670855Y-110589052D01*
X122670852Y-110589055D01*
X122584606Y-110704264D01*
X122584602Y-110704271D01*
X122534308Y-110839117D01*
X122528304Y-110894965D01*
X122527901Y-110898723D01*
X122527900Y-110898735D01*
X122527900Y-113594470D01*
X118022863Y-113594470D01*
X118151961Y-113474685D01*
X118320215Y-113263702D01*
X118455143Y-113029998D01*
X118553734Y-112778795D01*
X118613783Y-112515703D01*
X118620505Y-112426002D01*
X118633949Y-112246604D01*
X118633949Y-112246595D01*
X118613783Y-111977498D01*
X118607666Y-111950697D01*
X118553734Y-111714405D01*
X118455143Y-111463202D01*
X118320215Y-111229498D01*
X118151961Y-111018515D01*
X118151960Y-111018514D01*
X118151957Y-111018510D01*
X117954141Y-110834965D01*
X117933844Y-110821127D01*
X117731175Y-110682949D01*
X117731169Y-110682946D01*
X117731168Y-110682945D01*
X117731167Y-110682944D01*
X117488043Y-110565863D01*
X117488045Y-110565863D01*
X117230173Y-110486320D01*
X117230167Y-110486318D01*
X116963336Y-110446100D01*
X116963329Y-110446100D01*
X116693471Y-110446100D01*
X116693463Y-110446100D01*
X116426632Y-110486318D01*
X116426626Y-110486320D01*
X116168758Y-110565862D01*
X115925630Y-110682946D01*
X115702658Y-110834965D01*
X115504842Y-111018510D01*
X115336585Y-111229498D01*
X115201658Y-111463199D01*
X115201656Y-111463203D01*
X115103066Y-111714404D01*
X115103064Y-111714411D01*
X115043016Y-111977498D01*
X115022851Y-112246595D01*
X115022851Y-112246604D01*
X107668700Y-112246604D01*
X107668699Y-110871928D01*
X107662291Y-110812317D01*
X107660742Y-110808165D01*
X107611997Y-110677471D01*
X107611993Y-110677464D01*
X107525747Y-110562255D01*
X107525744Y-110562252D01*
X107410535Y-110476006D01*
X107410528Y-110476002D01*
X107275682Y-110425708D01*
X107275683Y-110425708D01*
X107216083Y-110419301D01*
X107216081Y-110419300D01*
X107216073Y-110419300D01*
X107216064Y-110419300D01*
X104520329Y-110419300D01*
X104520323Y-110419301D01*
X104460716Y-110425708D01*
X104325871Y-110476002D01*
X104325864Y-110476006D01*
X104210655Y-110562252D01*
X104210652Y-110562255D01*
X104124406Y-110677464D01*
X104124402Y-110677471D01*
X104074108Y-110812317D01*
X104067701Y-110871916D01*
X104067701Y-110871923D01*
X104067700Y-110871935D01*
X104067700Y-113567670D01*
X99562663Y-113567670D01*
X99662873Y-113474689D01*
X99691757Y-113447889D01*
X99691757Y-113447887D01*
X99691761Y-113447885D01*
X99860015Y-113236902D01*
X99994943Y-113003198D01*
X100093534Y-112751995D01*
X100153583Y-112488903D01*
X100167244Y-112306604D01*
X100173749Y-112219804D01*
X100173749Y-112219795D01*
X100153583Y-111950698D01*
X100113347Y-111774411D01*
X100093534Y-111687605D01*
X99994943Y-111436402D01*
X99860015Y-111202698D01*
X99691761Y-110991715D01*
X99691760Y-110991714D01*
X99691757Y-110991710D01*
X99493941Y-110808165D01*
X99429560Y-110764271D01*
X99270975Y-110656149D01*
X99270969Y-110656146D01*
X99270968Y-110656145D01*
X99270967Y-110656144D01*
X99027843Y-110539063D01*
X99027845Y-110539063D01*
X98769973Y-110459520D01*
X98769967Y-110459518D01*
X98503136Y-110419300D01*
X98503129Y-110419300D01*
X98233271Y-110419300D01*
X98233263Y-110419300D01*
X97966432Y-110459518D01*
X97966426Y-110459520D01*
X97708558Y-110539062D01*
X97465430Y-110656146D01*
X97242458Y-110808165D01*
X97044642Y-110991710D01*
X96876385Y-111202698D01*
X96741458Y-111436399D01*
X96741456Y-111436403D01*
X96642866Y-111687604D01*
X96642864Y-111687611D01*
X96582816Y-111950698D01*
X96562651Y-112219795D01*
X96562651Y-112219804D01*
X89654499Y-112219804D01*
X89654499Y-110958728D01*
X89648091Y-110899117D01*
X89647946Y-110898729D01*
X89597797Y-110764271D01*
X89597793Y-110764264D01*
X89511547Y-110649055D01*
X89511544Y-110649052D01*
X89396335Y-110562806D01*
X89396328Y-110562802D01*
X89261482Y-110512508D01*
X89261483Y-110512508D01*
X89201883Y-110506101D01*
X89201881Y-110506100D01*
X89201873Y-110506100D01*
X89201864Y-110506100D01*
X86506129Y-110506100D01*
X86506123Y-110506101D01*
X86446516Y-110512508D01*
X86311671Y-110562802D01*
X86311664Y-110562806D01*
X86196455Y-110649052D01*
X86196452Y-110649055D01*
X86110206Y-110764264D01*
X86110202Y-110764271D01*
X86059908Y-110899117D01*
X86055415Y-110940915D01*
X86053501Y-110958723D01*
X86053500Y-110958735D01*
X86053500Y-113654470D01*
X81548463Y-113654470D01*
X81642008Y-113567673D01*
X81677557Y-113534689D01*
X81677557Y-113534687D01*
X81677561Y-113534685D01*
X81845815Y-113323702D01*
X81980743Y-113089998D01*
X82079334Y-112838795D01*
X82139383Y-112575703D01*
X82146105Y-112486002D01*
X82159549Y-112306604D01*
X82159549Y-112306595D01*
X82139383Y-112037498D01*
X82139383Y-112037497D01*
X82079334Y-111774405D01*
X81980743Y-111523202D01*
X81845815Y-111289498D01*
X81677561Y-111078515D01*
X81677560Y-111078514D01*
X81677557Y-111078510D01*
X81479741Y-110894965D01*
X81445952Y-110871928D01*
X81256775Y-110742949D01*
X81256769Y-110742946D01*
X81256768Y-110742945D01*
X81256767Y-110742944D01*
X81013643Y-110625863D01*
X81013645Y-110625863D01*
X80755773Y-110546320D01*
X80755767Y-110546318D01*
X80488936Y-110506100D01*
X80488929Y-110506100D01*
X80219071Y-110506100D01*
X80219063Y-110506100D01*
X79952232Y-110546318D01*
X79952226Y-110546320D01*
X79694358Y-110625862D01*
X79451230Y-110742946D01*
X79228258Y-110894965D01*
X79030442Y-111078510D01*
X78862185Y-111289498D01*
X78727258Y-111523199D01*
X78727256Y-111523203D01*
X78628666Y-111774404D01*
X78628664Y-111774411D01*
X78568616Y-112037498D01*
X78548451Y-112306595D01*
X78548451Y-112306604D01*
X67635834Y-112306604D01*
X67622026Y-104400605D01*
X82630969Y-104400605D01*
X82651057Y-104643045D01*
X82651059Y-104643056D01*
X82710781Y-104878892D01*
X82808508Y-105101686D01*
X82904985Y-105249354D01*
X82941572Y-105305354D01*
X83106343Y-105484344D01*
X83191944Y-105550970D01*
X83275445Y-105615962D01*
X83298328Y-105633772D01*
X83512290Y-105749562D01*
X83617847Y-105785800D01*
X83742388Y-105828556D01*
X83742390Y-105828556D01*
X83742392Y-105828557D01*
X83982358Y-105868600D01*
X83982359Y-105868600D01*
X84225641Y-105868600D01*
X84225642Y-105868600D01*
X84465608Y-105828557D01*
X84695710Y-105749562D01*
X84909672Y-105633772D01*
X85101657Y-105484344D01*
X85266428Y-105305354D01*
X85399492Y-105101685D01*
X85497218Y-104878892D01*
X85556941Y-104643053D01*
X85561581Y-104587056D01*
X85577031Y-104400605D01*
X85577031Y-104400594D01*
X85570171Y-104317805D01*
X100645169Y-104317805D01*
X100665257Y-104560245D01*
X100665259Y-104560256D01*
X100724981Y-104796092D01*
X100822708Y-105018886D01*
X100955769Y-105222550D01*
X100955772Y-105222554D01*
X101120543Y-105401544D01*
X101312528Y-105550972D01*
X101526490Y-105666762D01*
X101645975Y-105707781D01*
X101756588Y-105745756D01*
X101756590Y-105745756D01*
X101756592Y-105745757D01*
X101996558Y-105785800D01*
X101996559Y-105785800D01*
X102239841Y-105785800D01*
X102239842Y-105785800D01*
X102479808Y-105745757D01*
X102709910Y-105666762D01*
X102923872Y-105550972D01*
X103115857Y-105401544D01*
X103280628Y-105222554D01*
X103413692Y-105018885D01*
X103511418Y-104796092D01*
X103571141Y-104560253D01*
X103575350Y-104509456D01*
X103589010Y-104344605D01*
X119105369Y-104344605D01*
X119125457Y-104587045D01*
X119125459Y-104587056D01*
X119185181Y-104822892D01*
X119282908Y-105045686D01*
X119415969Y-105249350D01*
X119415972Y-105249354D01*
X119580743Y-105428344D01*
X119652692Y-105484344D01*
X119738296Y-105550973D01*
X119772728Y-105577772D01*
X119986690Y-105693562D01*
X120106175Y-105734581D01*
X120216788Y-105772556D01*
X120216790Y-105772556D01*
X120216792Y-105772557D01*
X120456758Y-105812600D01*
X120456759Y-105812600D01*
X120700041Y-105812600D01*
X120700042Y-105812600D01*
X120940008Y-105772557D01*
X121170110Y-105693562D01*
X121384072Y-105577772D01*
X121576057Y-105428344D01*
X121740828Y-105249354D01*
X121873892Y-105045685D01*
X121971618Y-104822892D01*
X122031341Y-104587053D01*
X122031342Y-104587045D01*
X122051431Y-104344605D01*
X122051431Y-104344594D01*
X122045002Y-104267005D01*
X137602169Y-104267005D01*
X137622257Y-104509445D01*
X137622259Y-104509456D01*
X137681981Y-104745292D01*
X137779708Y-104968086D01*
X137830407Y-105045686D01*
X137912772Y-105171754D01*
X138077543Y-105350744D01*
X138269528Y-105500172D01*
X138483490Y-105615962D01*
X138602975Y-105656981D01*
X138713588Y-105694956D01*
X138713590Y-105694956D01*
X138713592Y-105694957D01*
X138953558Y-105735000D01*
X138953559Y-105735000D01*
X139196841Y-105735000D01*
X139196842Y-105735000D01*
X139436808Y-105694957D01*
X139666910Y-105615962D01*
X139880872Y-105500172D01*
X140072857Y-105350744D01*
X140237628Y-105171754D01*
X140370692Y-104968085D01*
X140468418Y-104745292D01*
X140528141Y-104509453D01*
X140528142Y-104509445D01*
X140548231Y-104267005D01*
X140548231Y-104266994D01*
X140528142Y-104024554D01*
X140528140Y-104024543D01*
X140468418Y-103788707D01*
X140372427Y-103569871D01*
X140370692Y-103565915D01*
X140360382Y-103550135D01*
X140237630Y-103362249D01*
X140237629Y-103362248D01*
X140237628Y-103362246D01*
X140072857Y-103183256D01*
X139980574Y-103111429D01*
X139880874Y-103033829D01*
X139880869Y-103033826D01*
X139666916Y-102918041D01*
X139666913Y-102918040D01*
X139666910Y-102918038D01*
X139666904Y-102918036D01*
X139666902Y-102918035D01*
X139436811Y-102839043D01*
X139256833Y-102809010D01*
X139196842Y-102799000D01*
X138953558Y-102799000D01*
X138905564Y-102807008D01*
X138713588Y-102839043D01*
X138483497Y-102918035D01*
X138483483Y-102918041D01*
X138269530Y-103033826D01*
X138269525Y-103033829D01*
X138077545Y-103183254D01*
X137912769Y-103362249D01*
X137779708Y-103565913D01*
X137681981Y-103788707D01*
X137622259Y-104024543D01*
X137622257Y-104024554D01*
X137602169Y-104266994D01*
X137602169Y-104267005D01*
X122045002Y-104267005D01*
X122031342Y-104102154D01*
X122031340Y-104102143D01*
X121971618Y-103866307D01*
X121873891Y-103643513D01*
X121740830Y-103439849D01*
X121740829Y-103439848D01*
X121740828Y-103439846D01*
X121576057Y-103260856D01*
X121385356Y-103112427D01*
X121384074Y-103111429D01*
X121384069Y-103111426D01*
X121170116Y-102995641D01*
X121170113Y-102995640D01*
X121170110Y-102995638D01*
X121170104Y-102995636D01*
X121170102Y-102995635D01*
X120940011Y-102916643D01*
X120757710Y-102886223D01*
X120700042Y-102876600D01*
X120456758Y-102876600D01*
X120408764Y-102884608D01*
X120216788Y-102916643D01*
X119986697Y-102995635D01*
X119986683Y-102995641D01*
X119772730Y-103111426D01*
X119772725Y-103111429D01*
X119580745Y-103260854D01*
X119580743Y-103260855D01*
X119580743Y-103260856D01*
X119529192Y-103316856D01*
X119415969Y-103439849D01*
X119282908Y-103643513D01*
X119185181Y-103866307D01*
X119125459Y-104102143D01*
X119125457Y-104102154D01*
X119105369Y-104344594D01*
X119105369Y-104344605D01*
X103589010Y-104344605D01*
X103591231Y-104317805D01*
X103591231Y-104317794D01*
X103571142Y-104075354D01*
X103571140Y-104075343D01*
X103511418Y-103839507D01*
X103413691Y-103616713D01*
X103280630Y-103413049D01*
X103280629Y-103413048D01*
X103280628Y-103413046D01*
X103115857Y-103234056D01*
X103030251Y-103167426D01*
X102923874Y-103084629D01*
X102923869Y-103084626D01*
X102709916Y-102968841D01*
X102709913Y-102968840D01*
X102709910Y-102968838D01*
X102709904Y-102968836D01*
X102709902Y-102968835D01*
X102479811Y-102889843D01*
X102299833Y-102859810D01*
X102239842Y-102849800D01*
X101996558Y-102849800D01*
X101948564Y-102857808D01*
X101756588Y-102889843D01*
X101526497Y-102968835D01*
X101526483Y-102968841D01*
X101312530Y-103084626D01*
X101312525Y-103084629D01*
X101120545Y-103234054D01*
X100955769Y-103413049D01*
X100822708Y-103616713D01*
X100724981Y-103839507D01*
X100665259Y-104075343D01*
X100665257Y-104075354D01*
X100645169Y-104317794D01*
X100645169Y-104317805D01*
X85570171Y-104317805D01*
X85556942Y-104158154D01*
X85556940Y-104158143D01*
X85497218Y-103922307D01*
X85400054Y-103700796D01*
X85399492Y-103699515D01*
X85394678Y-103692147D01*
X85266430Y-103495849D01*
X85266429Y-103495848D01*
X85266428Y-103495846D01*
X85101657Y-103316856D01*
X84995273Y-103234054D01*
X84909674Y-103167429D01*
X84909669Y-103167426D01*
X84695716Y-103051641D01*
X84695713Y-103051640D01*
X84695710Y-103051638D01*
X84695704Y-103051636D01*
X84695702Y-103051635D01*
X84465611Y-102972643D01*
X84285633Y-102942610D01*
X84225642Y-102932600D01*
X83982358Y-102932600D01*
X83934364Y-102940608D01*
X83742388Y-102972643D01*
X83512297Y-103051635D01*
X83512283Y-103051641D01*
X83298330Y-103167426D01*
X83298325Y-103167429D01*
X83106345Y-103316854D01*
X83106343Y-103316855D01*
X83106343Y-103316856D01*
X83059856Y-103367355D01*
X82941569Y-103495849D01*
X82808508Y-103699513D01*
X82710781Y-103922307D01*
X82651059Y-104158143D01*
X82651057Y-104158154D01*
X82630969Y-104400594D01*
X82630969Y-104400605D01*
X67622026Y-104400605D01*
X67620346Y-103438470D01*
X76613500Y-103438470D01*
X76613501Y-103438476D01*
X76619908Y-103498083D01*
X76670202Y-103632928D01*
X76670206Y-103632935D01*
X76756452Y-103748144D01*
X76756455Y-103748147D01*
X76871664Y-103834393D01*
X76871671Y-103834397D01*
X77006517Y-103884691D01*
X77006516Y-103884691D01*
X77013444Y-103885435D01*
X77066127Y-103891100D01*
X79141872Y-103891099D01*
X79201483Y-103884691D01*
X79336331Y-103834396D01*
X79451546Y-103748146D01*
X79537796Y-103632931D01*
X79588091Y-103498083D01*
X79594500Y-103438473D01*
X79594500Y-102400605D01*
X88608392Y-102400605D01*
X88628789Y-102646765D01*
X88689428Y-102886223D01*
X88776455Y-103084626D01*
X88788652Y-103112431D01*
X88868114Y-103234056D01*
X88922209Y-103316856D01*
X88923755Y-103319221D01*
X89091052Y-103500955D01*
X89091055Y-103500957D01*
X89091058Y-103500960D01*
X89285971Y-103652667D01*
X89285977Y-103652671D01*
X89285980Y-103652673D01*
X89399742Y-103714238D01*
X89479679Y-103757498D01*
X89503221Y-103770238D01*
X89573725Y-103794442D01*
X89736846Y-103850442D01*
X89736848Y-103850442D01*
X89736850Y-103850443D01*
X89980494Y-103891100D01*
X89980495Y-103891100D01*
X90227505Y-103891100D01*
X90227506Y-103891100D01*
X90471150Y-103850443D01*
X90704779Y-103770238D01*
X90922020Y-103652673D01*
X90947380Y-103632935D01*
X90993977Y-103596667D01*
X91116948Y-103500955D01*
X91250692Y-103355670D01*
X94627700Y-103355670D01*
X94627701Y-103355676D01*
X94634108Y-103415283D01*
X94684402Y-103550128D01*
X94684406Y-103550135D01*
X94770652Y-103665344D01*
X94770655Y-103665347D01*
X94885864Y-103751593D01*
X94885871Y-103751597D01*
X95020717Y-103801891D01*
X95020716Y-103801891D01*
X95027644Y-103802635D01*
X95080327Y-103808300D01*
X97156072Y-103808299D01*
X97215683Y-103801891D01*
X97350531Y-103751596D01*
X97465746Y-103665346D01*
X97551996Y-103550131D01*
X97602291Y-103415283D01*
X97608700Y-103355673D01*
X97608700Y-102317805D01*
X106622592Y-102317805D01*
X106642989Y-102563965D01*
X106703628Y-102803423D01*
X106787942Y-102995641D01*
X106802852Y-103029631D01*
X106856948Y-103112431D01*
X106936409Y-103234056D01*
X106937955Y-103236421D01*
X107105252Y-103418155D01*
X107105255Y-103418157D01*
X107105258Y-103418160D01*
X107300171Y-103569867D01*
X107300177Y-103569871D01*
X107300180Y-103569873D01*
X107517421Y-103687438D01*
X107603072Y-103716842D01*
X107751046Y-103767642D01*
X107751048Y-103767642D01*
X107751050Y-103767643D01*
X107994694Y-103808300D01*
X107994695Y-103808300D01*
X108241705Y-103808300D01*
X108241706Y-103808300D01*
X108485350Y-103767643D01*
X108718979Y-103687438D01*
X108936220Y-103569873D01*
X108941306Y-103565915D01*
X109024760Y-103500960D01*
X109131148Y-103418155D01*
X109163998Y-103382470D01*
X113087900Y-103382470D01*
X113087901Y-103382476D01*
X113094308Y-103442083D01*
X113144602Y-103576928D01*
X113144606Y-103576935D01*
X113230852Y-103692144D01*
X113230855Y-103692147D01*
X113346064Y-103778393D01*
X113346071Y-103778397D01*
X113480917Y-103828691D01*
X113480916Y-103828691D01*
X113487844Y-103829435D01*
X113540527Y-103835100D01*
X115616272Y-103835099D01*
X115675883Y-103828691D01*
X115810731Y-103778396D01*
X115925946Y-103692146D01*
X116012196Y-103576931D01*
X116062491Y-103442083D01*
X116068900Y-103382473D01*
X116068900Y-102344605D01*
X125082792Y-102344605D01*
X125103189Y-102590765D01*
X125163828Y-102830223D01*
X125260949Y-103051638D01*
X125263052Y-103056431D01*
X125298984Y-103111429D01*
X125396609Y-103260856D01*
X125398155Y-103263221D01*
X125565452Y-103444955D01*
X125565455Y-103444957D01*
X125565458Y-103444960D01*
X125760371Y-103596667D01*
X125760377Y-103596671D01*
X125760380Y-103596673D01*
X125977621Y-103714238D01*
X126084970Y-103751091D01*
X126211246Y-103794442D01*
X126211248Y-103794442D01*
X126211250Y-103794443D01*
X126454894Y-103835100D01*
X126454895Y-103835100D01*
X126701905Y-103835100D01*
X126701906Y-103835100D01*
X126945550Y-103794443D01*
X127179179Y-103714238D01*
X127396420Y-103596673D01*
X127421780Y-103576935D01*
X127496123Y-103519071D01*
X127591348Y-103444955D01*
X127720305Y-103304870D01*
X131584700Y-103304870D01*
X131584701Y-103304876D01*
X131591108Y-103364483D01*
X131641402Y-103499328D01*
X131641406Y-103499335D01*
X131727652Y-103614544D01*
X131727655Y-103614547D01*
X131842864Y-103700793D01*
X131842871Y-103700797D01*
X131977717Y-103751091D01*
X131977716Y-103751091D01*
X131982386Y-103751593D01*
X132037327Y-103757500D01*
X134113072Y-103757499D01*
X134172683Y-103751091D01*
X134307531Y-103700796D01*
X134422746Y-103614546D01*
X134508996Y-103499331D01*
X134559291Y-103364483D01*
X134565700Y-103304873D01*
X134565700Y-102267005D01*
X143579592Y-102267005D01*
X143599989Y-102513165D01*
X143660628Y-102752623D01*
X143757137Y-102972643D01*
X143759852Y-102978831D01*
X143842713Y-103105659D01*
X143893409Y-103183256D01*
X143894955Y-103185621D01*
X144062252Y-103367355D01*
X144062255Y-103367357D01*
X144062258Y-103367360D01*
X144257171Y-103519067D01*
X144257177Y-103519071D01*
X144257180Y-103519073D01*
X144400572Y-103596673D01*
X144467565Y-103632928D01*
X144474421Y-103636638D01*
X144595736Y-103678285D01*
X144708046Y-103716842D01*
X144708048Y-103716842D01*
X144708050Y-103716843D01*
X144951694Y-103757500D01*
X144951695Y-103757500D01*
X145198705Y-103757500D01*
X145198706Y-103757500D01*
X145442350Y-103716843D01*
X145675979Y-103636638D01*
X145893220Y-103519073D01*
X145918580Y-103499335D01*
X145988441Y-103444960D01*
X146088148Y-103367355D01*
X146255445Y-103185621D01*
X146390548Y-102978831D01*
X146489772Y-102752623D01*
X146550410Y-102513169D01*
X146564378Y-102344600D01*
X146570808Y-102267005D01*
X146570808Y-102266994D01*
X146550410Y-102020834D01*
X146550410Y-102020831D01*
X146489772Y-101781377D01*
X146390548Y-101555169D01*
X146255445Y-101348379D01*
X146088148Y-101166645D01*
X146088143Y-101166641D01*
X146088141Y-101166639D01*
X145893228Y-101014932D01*
X145893222Y-101014928D01*
X145675980Y-100897362D01*
X145675971Y-100897359D01*
X145442353Y-100817157D01*
X145237107Y-100782908D01*
X145198706Y-100776500D01*
X144951694Y-100776500D01*
X144913293Y-100782908D01*
X144708046Y-100817157D01*
X144474428Y-100897359D01*
X144474419Y-100897362D01*
X144257177Y-101014928D01*
X144257171Y-101014932D01*
X144062258Y-101166639D01*
X144062255Y-101166642D01*
X143894952Y-101348382D01*
X143759850Y-101555172D01*
X143660628Y-101781376D01*
X143599989Y-102020834D01*
X143579592Y-102266994D01*
X143579592Y-102267005D01*
X134565700Y-102267005D01*
X134565699Y-101229128D01*
X134559291Y-101169517D01*
X134558826Y-101168271D01*
X134508997Y-101034671D01*
X134508993Y-101034664D01*
X134422747Y-100919455D01*
X134422744Y-100919452D01*
X134307535Y-100833206D01*
X134307528Y-100833202D01*
X134172682Y-100782908D01*
X134172683Y-100782908D01*
X134113083Y-100776501D01*
X134113081Y-100776500D01*
X134113073Y-100776500D01*
X134113064Y-100776500D01*
X132037329Y-100776500D01*
X132037323Y-100776501D01*
X131977716Y-100782908D01*
X131842871Y-100833202D01*
X131842864Y-100833206D01*
X131727655Y-100919452D01*
X131727652Y-100919455D01*
X131641406Y-101034664D01*
X131641402Y-101034671D01*
X131591108Y-101169517D01*
X131585956Y-101217442D01*
X131584701Y-101229123D01*
X131584700Y-101229135D01*
X131584700Y-103304870D01*
X127720305Y-103304870D01*
X127758645Y-103263221D01*
X127893748Y-103056431D01*
X127992972Y-102830223D01*
X128053610Y-102590769D01*
X128062675Y-102481360D01*
X128074008Y-102344605D01*
X128074008Y-102344594D01*
X128060409Y-102180487D01*
X128053610Y-102098431D01*
X127992972Y-101858977D01*
X127893748Y-101632769D01*
X127758645Y-101425979D01*
X127591348Y-101244245D01*
X127591343Y-101244241D01*
X127591341Y-101244239D01*
X127396428Y-101092532D01*
X127396422Y-101092528D01*
X127179180Y-100974962D01*
X127179171Y-100974959D01*
X126945553Y-100894757D01*
X126740307Y-100860508D01*
X126701906Y-100854100D01*
X126454894Y-100854100D01*
X126416493Y-100860508D01*
X126211246Y-100894757D01*
X125977628Y-100974959D01*
X125977619Y-100974962D01*
X125760377Y-101092528D01*
X125760371Y-101092532D01*
X125565458Y-101244239D01*
X125565455Y-101244242D01*
X125565452Y-101244244D01*
X125565452Y-101244245D01*
X125513901Y-101300245D01*
X125398152Y-101425982D01*
X125263050Y-101632772D01*
X125163828Y-101858976D01*
X125103189Y-102098434D01*
X125082792Y-102344594D01*
X125082792Y-102344605D01*
X116068900Y-102344605D01*
X116068899Y-101306728D01*
X116062491Y-101247117D01*
X116055784Y-101229135D01*
X116012197Y-101112271D01*
X116012193Y-101112264D01*
X115925947Y-100997055D01*
X115925944Y-100997052D01*
X115810735Y-100910806D01*
X115810728Y-100910802D01*
X115675882Y-100860508D01*
X115675883Y-100860508D01*
X115616283Y-100854101D01*
X115616281Y-100854100D01*
X115616273Y-100854100D01*
X115616264Y-100854100D01*
X113540529Y-100854100D01*
X113540523Y-100854101D01*
X113480916Y-100860508D01*
X113346071Y-100910802D01*
X113346064Y-100910806D01*
X113230855Y-100997052D01*
X113230852Y-100997055D01*
X113144606Y-101112264D01*
X113144602Y-101112271D01*
X113094308Y-101247117D01*
X113088597Y-101300242D01*
X113087901Y-101306723D01*
X113087900Y-101306735D01*
X113087900Y-103382470D01*
X109163998Y-103382470D01*
X109298445Y-103236421D01*
X109433548Y-103029631D01*
X109532772Y-102803423D01*
X109593410Y-102563969D01*
X109611587Y-102344605D01*
X109613808Y-102317805D01*
X109613808Y-102317794D01*
X109593410Y-102071634D01*
X109593410Y-102071631D01*
X109532772Y-101832177D01*
X109433548Y-101605969D01*
X109298445Y-101399179D01*
X109131148Y-101217445D01*
X109131143Y-101217441D01*
X109131141Y-101217439D01*
X108936228Y-101065732D01*
X108936222Y-101065728D01*
X108718980Y-100948162D01*
X108718971Y-100948159D01*
X108485353Y-100867957D01*
X108280107Y-100833708D01*
X108241706Y-100827300D01*
X107994694Y-100827300D01*
X107956293Y-100833708D01*
X107751046Y-100867957D01*
X107517428Y-100948159D01*
X107517419Y-100948162D01*
X107300177Y-101065728D01*
X107300171Y-101065732D01*
X107105258Y-101217439D01*
X107105255Y-101217442D01*
X106937952Y-101399182D01*
X106802850Y-101605972D01*
X106703628Y-101832176D01*
X106642989Y-102071634D01*
X106622592Y-102317794D01*
X106622592Y-102317805D01*
X97608700Y-102317805D01*
X97608699Y-101279928D01*
X97602291Y-101220317D01*
X97583343Y-101169516D01*
X97551997Y-101085471D01*
X97551993Y-101085464D01*
X97465747Y-100970255D01*
X97465744Y-100970252D01*
X97350535Y-100884006D01*
X97350528Y-100884002D01*
X97215682Y-100833708D01*
X97215683Y-100833708D01*
X97156083Y-100827301D01*
X97156081Y-100827300D01*
X97156073Y-100827300D01*
X97156064Y-100827300D01*
X95080329Y-100827300D01*
X95080323Y-100827301D01*
X95020716Y-100833708D01*
X94885871Y-100884002D01*
X94885864Y-100884006D01*
X94770655Y-100970252D01*
X94770652Y-100970255D01*
X94684406Y-101085464D01*
X94684402Y-101085471D01*
X94634108Y-101220317D01*
X94627701Y-101279916D01*
X94627701Y-101279923D01*
X94627700Y-101279935D01*
X94627700Y-103355670D01*
X91250692Y-103355670D01*
X91284245Y-103319221D01*
X91419348Y-103112431D01*
X91518572Y-102886223D01*
X91579210Y-102646769D01*
X91599608Y-102400600D01*
X91594967Y-102344594D01*
X91579210Y-102154434D01*
X91579210Y-102154431D01*
X91518572Y-101914977D01*
X91419348Y-101688769D01*
X91284245Y-101481979D01*
X91116948Y-101300245D01*
X91116943Y-101300241D01*
X91116941Y-101300239D01*
X90922028Y-101148532D01*
X90922022Y-101148528D01*
X90704780Y-101030962D01*
X90704771Y-101030959D01*
X90471153Y-100950757D01*
X90265907Y-100916508D01*
X90227506Y-100910100D01*
X89980494Y-100910100D01*
X89942093Y-100916508D01*
X89736846Y-100950757D01*
X89503228Y-101030959D01*
X89503219Y-101030962D01*
X89285977Y-101148528D01*
X89285971Y-101148532D01*
X89091058Y-101300239D01*
X89091055Y-101300242D01*
X88923752Y-101481982D01*
X88788650Y-101688772D01*
X88689428Y-101914976D01*
X88628789Y-102154434D01*
X88608392Y-102400594D01*
X88608392Y-102400605D01*
X79594500Y-102400605D01*
X79594499Y-101362728D01*
X79588091Y-101303117D01*
X79579442Y-101279929D01*
X79537797Y-101168271D01*
X79537793Y-101168264D01*
X79451547Y-101053055D01*
X79451544Y-101053052D01*
X79336335Y-100966806D01*
X79336328Y-100966802D01*
X79201482Y-100916508D01*
X79201483Y-100916508D01*
X79141883Y-100910101D01*
X79141881Y-100910100D01*
X79141873Y-100910100D01*
X79141864Y-100910100D01*
X77066129Y-100910100D01*
X77066123Y-100910101D01*
X77006516Y-100916508D01*
X76871671Y-100966802D01*
X76871664Y-100966806D01*
X76756455Y-101053052D01*
X76756452Y-101053055D01*
X76670206Y-101168264D01*
X76670202Y-101168271D01*
X76619908Y-101303117D01*
X76615042Y-101348382D01*
X76613501Y-101362723D01*
X76613500Y-101362735D01*
X76613500Y-103438470D01*
X67620346Y-103438470D01*
X67615231Y-100509470D01*
X175958900Y-100509470D01*
X175958901Y-100509476D01*
X175965308Y-100569083D01*
X176015602Y-100703928D01*
X176015606Y-100703935D01*
X176101852Y-100819144D01*
X176101855Y-100819147D01*
X176217064Y-100905393D01*
X176217071Y-100905397D01*
X176351917Y-100955691D01*
X176351916Y-100955691D01*
X176358844Y-100956435D01*
X176411527Y-100962100D01*
X179107272Y-100962099D01*
X179166883Y-100955691D01*
X179301731Y-100905396D01*
X179416946Y-100819146D01*
X179503196Y-100703931D01*
X179553491Y-100569083D01*
X179559900Y-100509473D01*
X179559899Y-97813728D01*
X179553491Y-97754117D01*
X179503196Y-97619269D01*
X179503195Y-97619268D01*
X179503193Y-97619264D01*
X179416947Y-97504055D01*
X179416944Y-97504052D01*
X179301735Y-97417806D01*
X179301728Y-97417802D01*
X179166882Y-97367508D01*
X179166883Y-97367508D01*
X179107283Y-97361101D01*
X179107281Y-97361100D01*
X179107273Y-97361100D01*
X179107264Y-97361100D01*
X176411529Y-97361100D01*
X176411523Y-97361101D01*
X176351916Y-97367508D01*
X176217071Y-97417802D01*
X176217064Y-97417806D01*
X176101855Y-97504052D01*
X176101852Y-97504055D01*
X176015606Y-97619264D01*
X176015602Y-97619271D01*
X175965308Y-97754117D01*
X175958901Y-97813716D01*
X175958901Y-97813723D01*
X175958900Y-97813735D01*
X175958900Y-100509470D01*
X67615231Y-100509470D01*
X67597227Y-90200605D01*
X76608392Y-90200605D01*
X76628789Y-90446765D01*
X76689428Y-90686223D01*
X76752332Y-90829631D01*
X76788652Y-90912431D01*
X76923755Y-91119221D01*
X77091052Y-91300955D01*
X77091055Y-91300957D01*
X77091058Y-91300960D01*
X77285971Y-91452667D01*
X77285977Y-91452671D01*
X77285980Y-91452673D01*
X77503221Y-91570238D01*
X77573725Y-91594442D01*
X77736846Y-91650442D01*
X77736848Y-91650442D01*
X77736850Y-91650443D01*
X77980494Y-91691100D01*
X77980495Y-91691100D01*
X78227505Y-91691100D01*
X78227506Y-91691100D01*
X78471150Y-91650443D01*
X78704779Y-91570238D01*
X78922020Y-91452673D01*
X79116948Y-91300955D01*
X79284245Y-91119221D01*
X79419348Y-90912431D01*
X79518572Y-90686223D01*
X79579210Y-90446769D01*
X79599608Y-90200605D01*
X88608392Y-90200605D01*
X88628789Y-90446765D01*
X88689428Y-90686223D01*
X88752332Y-90829631D01*
X88788652Y-90912431D01*
X88923755Y-91119221D01*
X89091052Y-91300955D01*
X89091055Y-91300957D01*
X89091058Y-91300960D01*
X89285971Y-91452667D01*
X89285977Y-91452671D01*
X89285980Y-91452673D01*
X89503221Y-91570238D01*
X89573725Y-91594442D01*
X89736846Y-91650442D01*
X89736848Y-91650442D01*
X89736850Y-91650443D01*
X89980494Y-91691100D01*
X89980495Y-91691100D01*
X90227505Y-91691100D01*
X90227506Y-91691100D01*
X90471150Y-91650443D01*
X90704779Y-91570238D01*
X90922020Y-91452673D01*
X91116948Y-91300955D01*
X91284245Y-91119221D01*
X91419348Y-90912431D01*
X91518572Y-90686223D01*
X91579210Y-90446769D01*
X91599608Y-90200600D01*
X91594967Y-90144594D01*
X91592747Y-90117805D01*
X94622592Y-90117805D01*
X94642989Y-90363965D01*
X94642989Y-90363968D01*
X94642990Y-90363969D01*
X94703628Y-90603423D01*
X94802852Y-90829631D01*
X94856948Y-90912431D01*
X94904765Y-90985621D01*
X94937955Y-91036421D01*
X95105252Y-91218155D01*
X95105255Y-91218157D01*
X95105258Y-91218160D01*
X95300171Y-91369867D01*
X95300177Y-91369871D01*
X95300180Y-91369873D01*
X95517421Y-91487438D01*
X95603072Y-91516842D01*
X95751046Y-91567642D01*
X95751048Y-91567642D01*
X95751050Y-91567643D01*
X95994694Y-91608300D01*
X95994695Y-91608300D01*
X96241705Y-91608300D01*
X96241706Y-91608300D01*
X96485350Y-91567643D01*
X96718979Y-91487438D01*
X96936220Y-91369873D01*
X97131148Y-91218155D01*
X97298445Y-91036421D01*
X97433548Y-90829631D01*
X97532772Y-90603423D01*
X97593410Y-90363969D01*
X97611587Y-90144605D01*
X97613808Y-90117805D01*
X106622592Y-90117805D01*
X106642989Y-90363965D01*
X106642989Y-90363968D01*
X106642990Y-90363969D01*
X106703628Y-90603423D01*
X106802852Y-90829631D01*
X106856948Y-90912431D01*
X106904765Y-90985621D01*
X106937955Y-91036421D01*
X107105252Y-91218155D01*
X107105255Y-91218157D01*
X107105258Y-91218160D01*
X107300171Y-91369867D01*
X107300177Y-91369871D01*
X107300180Y-91369873D01*
X107517421Y-91487438D01*
X107603072Y-91516842D01*
X107751046Y-91567642D01*
X107751048Y-91567642D01*
X107751050Y-91567643D01*
X107994694Y-91608300D01*
X107994695Y-91608300D01*
X108241705Y-91608300D01*
X108241706Y-91608300D01*
X108485350Y-91567643D01*
X108718979Y-91487438D01*
X108936220Y-91369873D01*
X109131148Y-91218155D01*
X109298445Y-91036421D01*
X109433548Y-90829631D01*
X109532772Y-90603423D01*
X109593410Y-90363969D01*
X109611587Y-90144605D01*
X113082792Y-90144605D01*
X113103189Y-90390765D01*
X113163828Y-90630223D01*
X113251294Y-90829627D01*
X113263052Y-90856431D01*
X113299636Y-90912427D01*
X113380645Y-91036421D01*
X113398155Y-91063221D01*
X113565452Y-91244955D01*
X113565455Y-91244957D01*
X113565458Y-91244960D01*
X113760371Y-91396667D01*
X113760377Y-91396671D01*
X113760380Y-91396673D01*
X113977621Y-91514238D01*
X114098936Y-91555885D01*
X114211246Y-91594442D01*
X114211248Y-91594442D01*
X114211250Y-91594443D01*
X114454894Y-91635100D01*
X114454895Y-91635100D01*
X114701905Y-91635100D01*
X114701906Y-91635100D01*
X114945550Y-91594443D01*
X115179179Y-91514238D01*
X115396420Y-91396673D01*
X115430861Y-91369867D01*
X115496123Y-91319071D01*
X115591348Y-91244955D01*
X115758645Y-91063221D01*
X115893748Y-90856431D01*
X115992972Y-90630223D01*
X116053610Y-90390769D01*
X116062675Y-90281360D01*
X116074008Y-90144605D01*
X125082792Y-90144605D01*
X125103189Y-90390765D01*
X125163828Y-90630223D01*
X125251294Y-90829627D01*
X125263052Y-90856431D01*
X125299636Y-90912427D01*
X125380645Y-91036421D01*
X125398155Y-91063221D01*
X125565452Y-91244955D01*
X125565455Y-91244957D01*
X125565458Y-91244960D01*
X125760371Y-91396667D01*
X125760377Y-91396671D01*
X125760380Y-91396673D01*
X125977621Y-91514238D01*
X126098936Y-91555885D01*
X126211246Y-91594442D01*
X126211248Y-91594442D01*
X126211250Y-91594443D01*
X126454894Y-91635100D01*
X126454895Y-91635100D01*
X126701905Y-91635100D01*
X126701906Y-91635100D01*
X126945550Y-91594443D01*
X127179179Y-91514238D01*
X127396420Y-91396673D01*
X127430861Y-91369867D01*
X127496123Y-91319071D01*
X127591348Y-91244955D01*
X127758645Y-91063221D01*
X127893748Y-90856431D01*
X127992972Y-90630223D01*
X128053610Y-90390769D01*
X128062675Y-90281360D01*
X128074008Y-90144605D01*
X128074008Y-90144594D01*
X128067578Y-90067005D01*
X131579592Y-90067005D01*
X131599989Y-90313165D01*
X131660628Y-90552623D01*
X131694666Y-90630223D01*
X131759852Y-90778831D01*
X131894955Y-90985621D01*
X132062252Y-91167355D01*
X132062255Y-91167357D01*
X132062258Y-91167360D01*
X132257171Y-91319067D01*
X132257177Y-91319071D01*
X132257180Y-91319073D01*
X132474421Y-91436638D01*
X132595736Y-91478285D01*
X132708046Y-91516842D01*
X132708048Y-91516842D01*
X132708050Y-91516843D01*
X132951694Y-91557500D01*
X132951695Y-91557500D01*
X133198705Y-91557500D01*
X133198706Y-91557500D01*
X133442350Y-91516843D01*
X133675979Y-91436638D01*
X133893220Y-91319073D01*
X134088148Y-91167355D01*
X134255445Y-90985621D01*
X134390548Y-90778831D01*
X134489772Y-90552623D01*
X134550410Y-90313169D01*
X134564378Y-90144600D01*
X134570808Y-90067005D01*
X143579592Y-90067005D01*
X143599989Y-90313165D01*
X143660628Y-90552623D01*
X143694666Y-90630223D01*
X143759852Y-90778831D01*
X143894955Y-90985621D01*
X144062252Y-91167355D01*
X144062255Y-91167357D01*
X144062258Y-91167360D01*
X144257171Y-91319067D01*
X144257177Y-91319071D01*
X144257180Y-91319073D01*
X144474421Y-91436638D01*
X144595736Y-91478285D01*
X144708046Y-91516842D01*
X144708048Y-91516842D01*
X144708050Y-91516843D01*
X144951694Y-91557500D01*
X144951695Y-91557500D01*
X145198705Y-91557500D01*
X145198706Y-91557500D01*
X145442350Y-91516843D01*
X145675979Y-91436638D01*
X145893220Y-91319073D01*
X146088148Y-91167355D01*
X146255445Y-90985621D01*
X146390548Y-90778831D01*
X146489772Y-90552623D01*
X146550410Y-90313169D01*
X146564378Y-90144600D01*
X146570808Y-90067005D01*
X146570808Y-90066994D01*
X146550410Y-89820834D01*
X146550410Y-89820831D01*
X146489772Y-89581377D01*
X146390548Y-89355169D01*
X146255445Y-89148379D01*
X146088148Y-88966645D01*
X146088143Y-88966641D01*
X146088141Y-88966639D01*
X145893228Y-88814932D01*
X145893222Y-88814928D01*
X145675980Y-88697362D01*
X145675971Y-88697359D01*
X145442353Y-88617157D01*
X145259617Y-88586664D01*
X145198706Y-88576500D01*
X144951694Y-88576500D01*
X144902965Y-88584631D01*
X144708046Y-88617157D01*
X144474428Y-88697359D01*
X144474419Y-88697362D01*
X144257177Y-88814928D01*
X144257171Y-88814932D01*
X144062258Y-88966639D01*
X144062255Y-88966642D01*
X143894952Y-89148382D01*
X143759850Y-89355172D01*
X143660628Y-89581376D01*
X143599989Y-89820834D01*
X143579592Y-90066994D01*
X143579592Y-90067005D01*
X134570808Y-90067005D01*
X134570808Y-90066994D01*
X134550410Y-89820834D01*
X134550410Y-89820831D01*
X134489772Y-89581377D01*
X134390548Y-89355169D01*
X134255445Y-89148379D01*
X134088148Y-88966645D01*
X134088143Y-88966641D01*
X134088141Y-88966639D01*
X133893228Y-88814932D01*
X133893222Y-88814928D01*
X133675980Y-88697362D01*
X133675971Y-88697359D01*
X133442353Y-88617157D01*
X133259617Y-88586664D01*
X133198706Y-88576500D01*
X132951694Y-88576500D01*
X132902965Y-88584631D01*
X132708046Y-88617157D01*
X132474428Y-88697359D01*
X132474419Y-88697362D01*
X132257177Y-88814928D01*
X132257171Y-88814932D01*
X132062258Y-88966639D01*
X132062255Y-88966642D01*
X131894952Y-89148382D01*
X131759850Y-89355172D01*
X131660628Y-89581376D01*
X131599989Y-89820834D01*
X131579592Y-90066994D01*
X131579592Y-90067005D01*
X128067578Y-90067005D01*
X128060409Y-89980487D01*
X128053610Y-89898431D01*
X127992972Y-89658977D01*
X127893748Y-89432769D01*
X127758645Y-89225979D01*
X127591348Y-89044245D01*
X127591343Y-89044241D01*
X127591341Y-89044239D01*
X127396428Y-88892532D01*
X127396422Y-88892528D01*
X127179180Y-88774962D01*
X127179171Y-88774959D01*
X126945553Y-88694757D01*
X126762817Y-88664264D01*
X126701906Y-88654100D01*
X126454894Y-88654100D01*
X126406165Y-88662231D01*
X126211246Y-88694757D01*
X125977628Y-88774959D01*
X125977619Y-88774962D01*
X125760377Y-88892528D01*
X125760371Y-88892532D01*
X125565458Y-89044239D01*
X125565455Y-89044242D01*
X125565452Y-89044244D01*
X125565452Y-89044245D01*
X125513901Y-89100245D01*
X125398152Y-89225982D01*
X125263050Y-89432772D01*
X125163828Y-89658976D01*
X125103189Y-89898434D01*
X125082792Y-90144594D01*
X125082792Y-90144605D01*
X116074008Y-90144605D01*
X116074008Y-90144594D01*
X116060409Y-89980487D01*
X116053610Y-89898431D01*
X115992972Y-89658977D01*
X115893748Y-89432769D01*
X115758645Y-89225979D01*
X115591348Y-89044245D01*
X115591343Y-89044241D01*
X115591341Y-89044239D01*
X115396428Y-88892532D01*
X115396422Y-88892528D01*
X115179180Y-88774962D01*
X115179171Y-88774959D01*
X114945553Y-88694757D01*
X114762817Y-88664264D01*
X114701906Y-88654100D01*
X114454894Y-88654100D01*
X114406165Y-88662231D01*
X114211246Y-88694757D01*
X113977628Y-88774959D01*
X113977619Y-88774962D01*
X113760377Y-88892528D01*
X113760371Y-88892532D01*
X113565458Y-89044239D01*
X113565455Y-89044242D01*
X113565452Y-89044244D01*
X113565452Y-89044245D01*
X113513901Y-89100245D01*
X113398152Y-89225982D01*
X113263050Y-89432772D01*
X113163828Y-89658976D01*
X113103189Y-89898434D01*
X113082792Y-90144594D01*
X113082792Y-90144605D01*
X109611587Y-90144605D01*
X109613808Y-90117805D01*
X109613808Y-90117794D01*
X109593410Y-89871634D01*
X109593410Y-89871631D01*
X109532772Y-89632177D01*
X109433548Y-89405969D01*
X109298445Y-89199179D01*
X109131148Y-89017445D01*
X109131143Y-89017441D01*
X109131141Y-89017439D01*
X108936228Y-88865732D01*
X108936222Y-88865728D01*
X108718980Y-88748162D01*
X108718971Y-88748159D01*
X108485353Y-88667957D01*
X108302617Y-88637464D01*
X108241706Y-88627300D01*
X107994694Y-88627300D01*
X107945965Y-88635431D01*
X107751046Y-88667957D01*
X107517428Y-88748159D01*
X107517419Y-88748162D01*
X107300177Y-88865728D01*
X107300171Y-88865732D01*
X107105258Y-89017439D01*
X107105255Y-89017442D01*
X106937952Y-89199182D01*
X106802850Y-89405972D01*
X106703628Y-89632176D01*
X106642989Y-89871634D01*
X106622592Y-90117794D01*
X106622592Y-90117805D01*
X97613808Y-90117805D01*
X97613808Y-90117794D01*
X97593410Y-89871634D01*
X97593410Y-89871631D01*
X97532772Y-89632177D01*
X97433548Y-89405969D01*
X97298445Y-89199179D01*
X97131148Y-89017445D01*
X97131143Y-89017441D01*
X97131141Y-89017439D01*
X96936228Y-88865732D01*
X96936222Y-88865728D01*
X96718980Y-88748162D01*
X96718971Y-88748159D01*
X96485353Y-88667957D01*
X96302617Y-88637464D01*
X96241706Y-88627300D01*
X95994694Y-88627300D01*
X95945965Y-88635431D01*
X95751046Y-88667957D01*
X95517428Y-88748159D01*
X95517419Y-88748162D01*
X95300177Y-88865728D01*
X95300171Y-88865732D01*
X95105258Y-89017439D01*
X95105255Y-89017442D01*
X94937952Y-89199182D01*
X94802850Y-89405972D01*
X94703628Y-89632176D01*
X94642989Y-89871634D01*
X94622592Y-90117794D01*
X94622592Y-90117805D01*
X91592747Y-90117805D01*
X91579210Y-89954434D01*
X91579210Y-89954431D01*
X91518572Y-89714977D01*
X91419348Y-89488769D01*
X91284245Y-89281979D01*
X91116948Y-89100245D01*
X91116943Y-89100241D01*
X91116941Y-89100239D01*
X90922028Y-88948532D01*
X90922022Y-88948528D01*
X90704780Y-88830962D01*
X90704771Y-88830959D01*
X90471153Y-88750757D01*
X90288417Y-88720264D01*
X90227506Y-88710100D01*
X89980494Y-88710100D01*
X89931765Y-88718231D01*
X89736846Y-88750757D01*
X89503228Y-88830959D01*
X89503219Y-88830962D01*
X89285977Y-88948528D01*
X89285971Y-88948532D01*
X89091058Y-89100239D01*
X89091055Y-89100242D01*
X88923752Y-89281982D01*
X88788650Y-89488772D01*
X88689428Y-89714976D01*
X88628789Y-89954434D01*
X88608392Y-90200594D01*
X88608392Y-90200605D01*
X79599608Y-90200605D01*
X79599608Y-90200600D01*
X79594967Y-90144594D01*
X79579210Y-89954434D01*
X79579210Y-89954431D01*
X79518572Y-89714977D01*
X79419348Y-89488769D01*
X79284245Y-89281979D01*
X79116948Y-89100245D01*
X79116943Y-89100241D01*
X79116941Y-89100239D01*
X78922028Y-88948532D01*
X78922022Y-88948528D01*
X78704780Y-88830962D01*
X78704771Y-88830959D01*
X78471153Y-88750757D01*
X78288417Y-88720264D01*
X78227506Y-88710100D01*
X77980494Y-88710100D01*
X77931765Y-88718231D01*
X77736846Y-88750757D01*
X77503228Y-88830959D01*
X77503219Y-88830962D01*
X77285977Y-88948528D01*
X77285971Y-88948532D01*
X77091058Y-89100239D01*
X77091055Y-89100242D01*
X76923752Y-89281982D01*
X76788650Y-89488772D01*
X76689428Y-89714976D01*
X76628789Y-89954434D01*
X76608392Y-90200594D01*
X76608392Y-90200605D01*
X67597227Y-90200605D01*
X67588524Y-85217000D01*
X75458301Y-85217000D01*
X75476652Y-85403331D01*
X75476653Y-85403333D01*
X75531004Y-85582502D01*
X75619262Y-85747623D01*
X75619264Y-85747626D01*
X75738042Y-85892357D01*
X75882773Y-86011135D01*
X75882776Y-86011137D01*
X76047897Y-86099395D01*
X76047899Y-86099396D01*
X76227066Y-86153746D01*
X76227068Y-86153747D01*
X76243774Y-86155392D01*
X76413400Y-86172099D01*
X76599731Y-86153747D01*
X76778901Y-86099396D01*
X76944025Y-86011136D01*
X77088757Y-85892357D01*
X77207536Y-85747625D01*
X77295796Y-85582501D01*
X77350147Y-85403331D01*
X77368499Y-85217000D01*
X77350147Y-85030669D01*
X77295796Y-84851499D01*
X77207536Y-84686375D01*
X77207535Y-84686373D01*
X77101033Y-84556600D01*
X91587301Y-84556600D01*
X91605652Y-84742931D01*
X91605653Y-84742933D01*
X91660004Y-84922102D01*
X91748262Y-85087223D01*
X91748264Y-85087226D01*
X91867042Y-85231957D01*
X92011773Y-85350735D01*
X92011776Y-85350737D01*
X92176897Y-85438995D01*
X92176899Y-85438996D01*
X92356066Y-85493346D01*
X92356068Y-85493347D01*
X92372774Y-85494992D01*
X92542400Y-85511699D01*
X92728731Y-85493347D01*
X92907901Y-85438996D01*
X93073025Y-85350736D01*
X93217757Y-85231957D01*
X93336536Y-85087225D01*
X93375782Y-85013800D01*
X110611901Y-85013800D01*
X110630252Y-85200131D01*
X110630253Y-85200133D01*
X110684604Y-85379302D01*
X110772862Y-85544423D01*
X110772864Y-85544426D01*
X110891642Y-85689157D01*
X111036373Y-85807935D01*
X111036376Y-85807937D01*
X111194317Y-85892357D01*
X111201499Y-85896196D01*
X111380666Y-85950546D01*
X111380668Y-85950547D01*
X111397374Y-85952192D01*
X111567000Y-85968899D01*
X111753331Y-85950547D01*
X111932501Y-85896196D01*
X112097625Y-85807936D01*
X112242357Y-85689157D01*
X112361136Y-85544425D01*
X112449396Y-85379301D01*
X112503747Y-85200131D01*
X112522099Y-85013800D01*
X112504587Y-84836000D01*
X128696701Y-84836000D01*
X128715052Y-85022331D01*
X128715053Y-85022333D01*
X128769404Y-85201502D01*
X128857662Y-85366623D01*
X128857664Y-85366626D01*
X128976442Y-85511357D01*
X129121173Y-85630135D01*
X129121176Y-85630137D01*
X129231596Y-85689157D01*
X129286299Y-85718396D01*
X129382657Y-85747626D01*
X129465466Y-85772746D01*
X129465468Y-85772747D01*
X129482174Y-85774392D01*
X129651800Y-85791099D01*
X129838131Y-85772747D01*
X130017301Y-85718396D01*
X130182425Y-85630136D01*
X130327157Y-85511357D01*
X130445936Y-85366625D01*
X130534196Y-85201501D01*
X130588547Y-85022331D01*
X130606899Y-84836000D01*
X130588547Y-84649669D01*
X130534196Y-84470499D01*
X130508734Y-84422862D01*
X130445937Y-84305376D01*
X130445935Y-84305373D01*
X130327157Y-84160642D01*
X130182426Y-84041864D01*
X130182423Y-84041862D01*
X130017302Y-83953604D01*
X129838133Y-83899253D01*
X129838131Y-83899252D01*
X129651800Y-83880901D01*
X129465468Y-83899252D01*
X129465466Y-83899253D01*
X129286297Y-83953604D01*
X129121176Y-84041862D01*
X129121173Y-84041864D01*
X128976442Y-84160642D01*
X128857664Y-84305373D01*
X128857662Y-84305376D01*
X128769404Y-84470497D01*
X128715053Y-84649666D01*
X128715052Y-84649668D01*
X128696701Y-84836000D01*
X112504587Y-84836000D01*
X112503747Y-84827469D01*
X112449396Y-84648299D01*
X112361136Y-84483175D01*
X112361135Y-84483173D01*
X112242357Y-84338442D01*
X112097626Y-84219664D01*
X112097623Y-84219662D01*
X111932502Y-84131404D01*
X111753333Y-84077053D01*
X111753331Y-84077052D01*
X111567000Y-84058701D01*
X111380668Y-84077052D01*
X111380666Y-84077053D01*
X111201497Y-84131404D01*
X111036376Y-84219662D01*
X111036373Y-84219664D01*
X110891642Y-84338442D01*
X110772864Y-84483173D01*
X110772862Y-84483176D01*
X110684604Y-84648297D01*
X110630253Y-84827466D01*
X110630252Y-84827468D01*
X110611901Y-85013800D01*
X93375782Y-85013800D01*
X93424796Y-84922101D01*
X93479147Y-84742931D01*
X93497499Y-84556600D01*
X93479147Y-84370269D01*
X93424796Y-84191099D01*
X93363837Y-84077052D01*
X93336537Y-84025976D01*
X93336535Y-84025973D01*
X93217757Y-83881242D01*
X93073026Y-83762464D01*
X93073023Y-83762462D01*
X92907902Y-83674204D01*
X92728733Y-83619853D01*
X92728731Y-83619852D01*
X92542400Y-83601501D01*
X92356068Y-83619852D01*
X92356066Y-83619853D01*
X92176897Y-83674204D01*
X92011776Y-83762462D01*
X92011773Y-83762464D01*
X91867042Y-83881242D01*
X91748264Y-84025973D01*
X91748262Y-84025976D01*
X91660004Y-84191097D01*
X91605653Y-84370266D01*
X91605652Y-84370268D01*
X91587301Y-84556600D01*
X77101033Y-84556600D01*
X77088757Y-84541642D01*
X76944026Y-84422864D01*
X76944023Y-84422862D01*
X76778902Y-84334604D01*
X76599733Y-84280253D01*
X76599731Y-84280252D01*
X76413400Y-84261901D01*
X76227068Y-84280252D01*
X76227066Y-84280253D01*
X76047897Y-84334604D01*
X75882776Y-84422862D01*
X75882773Y-84422864D01*
X75738042Y-84541642D01*
X75619264Y-84686373D01*
X75619262Y-84686376D01*
X75531004Y-84851497D01*
X75476653Y-85030666D01*
X75476652Y-85030668D01*
X75458301Y-85217000D01*
X67588524Y-85217000D01*
X67582269Y-81635600D01*
X77920940Y-81635600D01*
X77940726Y-81823856D01*
X77940727Y-81823859D01*
X77999218Y-82003877D01*
X77999221Y-82003884D01*
X78093867Y-82167816D01*
X78183489Y-82267351D01*
X78220529Y-82308488D01*
X78373665Y-82419748D01*
X78373670Y-82419751D01*
X78546592Y-82496742D01*
X78546597Y-82496744D01*
X78731754Y-82536100D01*
X78731755Y-82536100D01*
X78921044Y-82536100D01*
X78921046Y-82536100D01*
X79106203Y-82496744D01*
X79279130Y-82419751D01*
X79432271Y-82308488D01*
X79558933Y-82167816D01*
X79653579Y-82003884D01*
X79712074Y-81823856D01*
X79718512Y-81762600D01*
X94684940Y-81762600D01*
X94704726Y-81950856D01*
X94704727Y-81950859D01*
X94763218Y-82130877D01*
X94763221Y-82130884D01*
X94857867Y-82294816D01*
X94937899Y-82383700D01*
X94984529Y-82435488D01*
X95137665Y-82546748D01*
X95137670Y-82546751D01*
X95310592Y-82623742D01*
X95310597Y-82623744D01*
X95495754Y-82663100D01*
X95495755Y-82663100D01*
X95685044Y-82663100D01*
X95685046Y-82663100D01*
X95870203Y-82623744D01*
X96043130Y-82546751D01*
X96196271Y-82435488D01*
X96322933Y-82294816D01*
X96417579Y-82130884D01*
X96476074Y-81950856D01*
X96495860Y-81762600D01*
X96476074Y-81574344D01*
X96446459Y-81483200D01*
X113201540Y-81483200D01*
X113221326Y-81671456D01*
X113221327Y-81671459D01*
X113279818Y-81851477D01*
X113279821Y-81851484D01*
X113374467Y-82015416D01*
X113478429Y-82130877D01*
X113501129Y-82156088D01*
X113654265Y-82267348D01*
X113654270Y-82267351D01*
X113827192Y-82344342D01*
X113827197Y-82344344D01*
X114012354Y-82383700D01*
X114012355Y-82383700D01*
X114201644Y-82383700D01*
X114201646Y-82383700D01*
X114386803Y-82344344D01*
X114559730Y-82267351D01*
X114712871Y-82156088D01*
X114839533Y-82015416D01*
X114934179Y-81851484D01*
X114992674Y-81671456D01*
X114993773Y-81661000D01*
X131489540Y-81661000D01*
X131509326Y-81849256D01*
X131509327Y-81849259D01*
X131567818Y-82029277D01*
X131567821Y-82029284D01*
X131662467Y-82193216D01*
X131766259Y-82308488D01*
X131789129Y-82333888D01*
X131942265Y-82445148D01*
X131942270Y-82445151D01*
X132115192Y-82522142D01*
X132115197Y-82522144D01*
X132300354Y-82561500D01*
X132300355Y-82561500D01*
X132489644Y-82561500D01*
X132489646Y-82561500D01*
X132674803Y-82522144D01*
X132847730Y-82445151D01*
X133000871Y-82333888D01*
X133127533Y-82193216D01*
X133222179Y-82029284D01*
X133280674Y-81849256D01*
X133300460Y-81661000D01*
X133280674Y-81472744D01*
X133222179Y-81292716D01*
X133127533Y-81128784D01*
X133000871Y-80988112D01*
X132970983Y-80966397D01*
X132847734Y-80876851D01*
X132847729Y-80876848D01*
X132674807Y-80799857D01*
X132674802Y-80799855D01*
X132510478Y-80764928D01*
X132489646Y-80760500D01*
X132300354Y-80760500D01*
X132279522Y-80764928D01*
X132115197Y-80799855D01*
X132115192Y-80799857D01*
X131942270Y-80876848D01*
X131942265Y-80876851D01*
X131789129Y-80988111D01*
X131662466Y-81128785D01*
X131567821Y-81292715D01*
X131567818Y-81292722D01*
X131518413Y-81444777D01*
X131509326Y-81472744D01*
X131489540Y-81661000D01*
X114993773Y-81661000D01*
X115012460Y-81483200D01*
X114992674Y-81294944D01*
X114934179Y-81114916D01*
X114839533Y-80950984D01*
X114712871Y-80810312D01*
X114698481Y-80799857D01*
X114559734Y-80699051D01*
X114559729Y-80699048D01*
X114386807Y-80622057D01*
X114386802Y-80622055D01*
X114241001Y-80591065D01*
X114201646Y-80582700D01*
X114012354Y-80582700D01*
X113979897Y-80589598D01*
X113827197Y-80622055D01*
X113827192Y-80622057D01*
X113654270Y-80699048D01*
X113654265Y-80699051D01*
X113501129Y-80810311D01*
X113374466Y-80950985D01*
X113279821Y-81114915D01*
X113279818Y-81114922D01*
X113230303Y-81267315D01*
X113221326Y-81294944D01*
X113201540Y-81483200D01*
X96446459Y-81483200D01*
X96417579Y-81394316D01*
X96322933Y-81230384D01*
X96196271Y-81089712D01*
X96172004Y-81072081D01*
X96043134Y-80978451D01*
X96043129Y-80978448D01*
X95870207Y-80901457D01*
X95870202Y-80901455D01*
X95724401Y-80870465D01*
X95685046Y-80862100D01*
X95495754Y-80862100D01*
X95463297Y-80868998D01*
X95310597Y-80901455D01*
X95310592Y-80901457D01*
X95137670Y-80978448D01*
X95137665Y-80978451D01*
X94984529Y-81089711D01*
X94857866Y-81230385D01*
X94763221Y-81394315D01*
X94763218Y-81394322D01*
X94704727Y-81574340D01*
X94704726Y-81574344D01*
X94684940Y-81762600D01*
X79718512Y-81762600D01*
X79731860Y-81635600D01*
X79712074Y-81447344D01*
X79653579Y-81267316D01*
X79558933Y-81103384D01*
X79432271Y-80962712D01*
X79432270Y-80962711D01*
X79279134Y-80851451D01*
X79279129Y-80851448D01*
X79106207Y-80774457D01*
X79106202Y-80774455D01*
X78960401Y-80743465D01*
X78921046Y-80735100D01*
X78731754Y-80735100D01*
X78699297Y-80741998D01*
X78546597Y-80774455D01*
X78546592Y-80774457D01*
X78373670Y-80851448D01*
X78373665Y-80851451D01*
X78220529Y-80962711D01*
X78093866Y-81103385D01*
X77999221Y-81267315D01*
X77999218Y-81267322D01*
X77941560Y-81444777D01*
X77940726Y-81447344D01*
X77920940Y-81635600D01*
X67582269Y-81635600D01*
X67579257Y-79910802D01*
X147598923Y-79910802D01*
X147617993Y-80128775D01*
X147617993Y-80128779D01*
X147674622Y-80340122D01*
X147674624Y-80340126D01*
X147674625Y-80340130D01*
X147720861Y-80439284D01*
X147767097Y-80538438D01*
X147767098Y-80538439D01*
X147892602Y-80717677D01*
X148047323Y-80872398D01*
X148226561Y-80997902D01*
X148424870Y-81090375D01*
X148636223Y-81147007D01*
X148819126Y-81163008D01*
X148854198Y-81166077D01*
X148854200Y-81166077D01*
X148854202Y-81166077D01*
X148882454Y-81163605D01*
X149072177Y-81147007D01*
X149283530Y-81090375D01*
X149481839Y-80997902D01*
X149661077Y-80872398D01*
X149815798Y-80717677D01*
X149941302Y-80538439D01*
X150033775Y-80340130D01*
X150090407Y-80128777D01*
X150109477Y-79910802D01*
X152098923Y-79910802D01*
X152117993Y-80128775D01*
X152117993Y-80128779D01*
X152174622Y-80340122D01*
X152174624Y-80340126D01*
X152174625Y-80340130D01*
X152220861Y-80439284D01*
X152267097Y-80538438D01*
X152267098Y-80538439D01*
X152392602Y-80717677D01*
X152547323Y-80872398D01*
X152726561Y-80997902D01*
X152924870Y-81090375D01*
X153136223Y-81147007D01*
X153319126Y-81163008D01*
X153354198Y-81166077D01*
X153354200Y-81166077D01*
X153354202Y-81166077D01*
X153382454Y-81163605D01*
X153572177Y-81147007D01*
X153783530Y-81090375D01*
X153981839Y-80997902D01*
X154161077Y-80872398D01*
X154315798Y-80717677D01*
X154441302Y-80538439D01*
X154533775Y-80340130D01*
X154553852Y-80265202D01*
X156728123Y-80265202D01*
X156747193Y-80483175D01*
X156747193Y-80483179D01*
X156803822Y-80694522D01*
X156803824Y-80694526D01*
X156803825Y-80694530D01*
X156841095Y-80774455D01*
X156896297Y-80892838D01*
X156902332Y-80901457D01*
X157021802Y-81072077D01*
X157176523Y-81226798D01*
X157355761Y-81352302D01*
X157554070Y-81444775D01*
X157554076Y-81444776D01*
X157554077Y-81444777D01*
X157584764Y-81452999D01*
X157765423Y-81501407D01*
X157948326Y-81517408D01*
X157983398Y-81520477D01*
X157983400Y-81520477D01*
X157983402Y-81520477D01*
X158011654Y-81518005D01*
X158201377Y-81501407D01*
X158412730Y-81444775D01*
X158611039Y-81352302D01*
X158790277Y-81226798D01*
X158944998Y-81072077D01*
X159070502Y-80892839D01*
X159162975Y-80694530D01*
X159219607Y-80483177D01*
X159238677Y-80265202D01*
X161228123Y-80265202D01*
X161247193Y-80483175D01*
X161247193Y-80483179D01*
X161303822Y-80694522D01*
X161303824Y-80694526D01*
X161303825Y-80694530D01*
X161341095Y-80774455D01*
X161396297Y-80892838D01*
X161402332Y-80901457D01*
X161521802Y-81072077D01*
X161676523Y-81226798D01*
X161855761Y-81352302D01*
X162054070Y-81444775D01*
X162054076Y-81444776D01*
X162054077Y-81444777D01*
X162084764Y-81452999D01*
X162265423Y-81501407D01*
X162448326Y-81517408D01*
X162483398Y-81520477D01*
X162483400Y-81520477D01*
X162483402Y-81520477D01*
X162511654Y-81518005D01*
X162701377Y-81501407D01*
X162912730Y-81444775D01*
X163111039Y-81352302D01*
X163290277Y-81226798D01*
X163444998Y-81072077D01*
X163570502Y-80892839D01*
X163662975Y-80694530D01*
X163696217Y-80570470D01*
X176009700Y-80570470D01*
X176009701Y-80570476D01*
X176016108Y-80630083D01*
X176066402Y-80764928D01*
X176066406Y-80764935D01*
X176152652Y-80880144D01*
X176152655Y-80880147D01*
X176267864Y-80966393D01*
X176267871Y-80966397D01*
X176402717Y-81016691D01*
X176402716Y-81016691D01*
X176409644Y-81017435D01*
X176462327Y-81023100D01*
X179158072Y-81023099D01*
X179217683Y-81016691D01*
X179352531Y-80966396D01*
X179467746Y-80880146D01*
X179553996Y-80764931D01*
X179604291Y-80630083D01*
X179610700Y-80570473D01*
X179610699Y-77874728D01*
X179604291Y-77815117D01*
X179571239Y-77726501D01*
X179553997Y-77680271D01*
X179553993Y-77680264D01*
X179467747Y-77565055D01*
X179467744Y-77565052D01*
X179352535Y-77478806D01*
X179352528Y-77478802D01*
X179217682Y-77428508D01*
X179217683Y-77428508D01*
X179158083Y-77422101D01*
X179158081Y-77422100D01*
X179158073Y-77422100D01*
X179158064Y-77422100D01*
X176462329Y-77422100D01*
X176462323Y-77422101D01*
X176402716Y-77428508D01*
X176267871Y-77478802D01*
X176267864Y-77478806D01*
X176152655Y-77565052D01*
X176152652Y-77565055D01*
X176066406Y-77680264D01*
X176066402Y-77680271D01*
X176016108Y-77815117D01*
X176009701Y-77874716D01*
X176009701Y-77874723D01*
X176009700Y-77874735D01*
X176009700Y-80570470D01*
X163696217Y-80570470D01*
X163719607Y-80483177D01*
X163738677Y-80265200D01*
X163719607Y-80047223D01*
X163662975Y-79835870D01*
X163570502Y-79637562D01*
X163570500Y-79637559D01*
X163570499Y-79637557D01*
X163444999Y-79458324D01*
X163444996Y-79458321D01*
X163290277Y-79303602D01*
X163111039Y-79178098D01*
X163111040Y-79178098D01*
X163111038Y-79178097D01*
X162951972Y-79103924D01*
X162912730Y-79085625D01*
X162912726Y-79085624D01*
X162912722Y-79085622D01*
X162701377Y-79028993D01*
X162483402Y-79009923D01*
X162483398Y-79009923D01*
X162338082Y-79022636D01*
X162265423Y-79028993D01*
X162265420Y-79028993D01*
X162054077Y-79085622D01*
X162054068Y-79085626D01*
X161855761Y-79178098D01*
X161855757Y-79178100D01*
X161676521Y-79303602D01*
X161521802Y-79458321D01*
X161396300Y-79637557D01*
X161396298Y-79637561D01*
X161303826Y-79835868D01*
X161303822Y-79835877D01*
X161247193Y-80047220D01*
X161247193Y-80047224D01*
X161228123Y-80265197D01*
X161228123Y-80265202D01*
X159238677Y-80265202D01*
X159238677Y-80265200D01*
X159219607Y-80047223D01*
X159162975Y-79835870D01*
X159070502Y-79637562D01*
X159070500Y-79637559D01*
X159070499Y-79637557D01*
X158944999Y-79458324D01*
X158944996Y-79458321D01*
X158790277Y-79303602D01*
X158611039Y-79178098D01*
X158611040Y-79178098D01*
X158611038Y-79178097D01*
X158451972Y-79103924D01*
X158412730Y-79085625D01*
X158412726Y-79085624D01*
X158412722Y-79085622D01*
X158201377Y-79028993D01*
X157983402Y-79009923D01*
X157983398Y-79009923D01*
X157838082Y-79022636D01*
X157765423Y-79028993D01*
X157765420Y-79028993D01*
X157554077Y-79085622D01*
X157554068Y-79085626D01*
X157355761Y-79178098D01*
X157355757Y-79178100D01*
X157176521Y-79303602D01*
X157021802Y-79458321D01*
X156896300Y-79637557D01*
X156896298Y-79637561D01*
X156803826Y-79835868D01*
X156803822Y-79835877D01*
X156747193Y-80047220D01*
X156747193Y-80047224D01*
X156728123Y-80265197D01*
X156728123Y-80265202D01*
X154553852Y-80265202D01*
X154590407Y-80128777D01*
X154609477Y-79910800D01*
X154590407Y-79692823D01*
X154533775Y-79481470D01*
X154441302Y-79283162D01*
X154441300Y-79283159D01*
X154441299Y-79283157D01*
X154315799Y-79103924D01*
X154240868Y-79028993D01*
X154161077Y-78949202D01*
X153981839Y-78823698D01*
X153981840Y-78823698D01*
X153981838Y-78823697D01*
X153882684Y-78777461D01*
X153783530Y-78731225D01*
X153783526Y-78731224D01*
X153783522Y-78731222D01*
X153572177Y-78674593D01*
X153354202Y-78655523D01*
X153354198Y-78655523D01*
X153208882Y-78668236D01*
X153136223Y-78674593D01*
X153136220Y-78674593D01*
X152924877Y-78731222D01*
X152924868Y-78731226D01*
X152726561Y-78823698D01*
X152726557Y-78823700D01*
X152547321Y-78949202D01*
X152392602Y-79103921D01*
X152267100Y-79283157D01*
X152267098Y-79283161D01*
X152174626Y-79481468D01*
X152174622Y-79481477D01*
X152117993Y-79692820D01*
X152117993Y-79692824D01*
X152098923Y-79910797D01*
X152098923Y-79910802D01*
X150109477Y-79910802D01*
X150109477Y-79910800D01*
X150090407Y-79692823D01*
X150033775Y-79481470D01*
X149941302Y-79283162D01*
X149941300Y-79283159D01*
X149941299Y-79283157D01*
X149815799Y-79103924D01*
X149740868Y-79028993D01*
X149661077Y-78949202D01*
X149481839Y-78823698D01*
X149481840Y-78823698D01*
X149481838Y-78823697D01*
X149382684Y-78777461D01*
X149283530Y-78731225D01*
X149283526Y-78731224D01*
X149283522Y-78731222D01*
X149072177Y-78674593D01*
X148854202Y-78655523D01*
X148854198Y-78655523D01*
X148708882Y-78668236D01*
X148636223Y-78674593D01*
X148636220Y-78674593D01*
X148424877Y-78731222D01*
X148424868Y-78731226D01*
X148226561Y-78823698D01*
X148226557Y-78823700D01*
X148047321Y-78949202D01*
X147892602Y-79103921D01*
X147767100Y-79283157D01*
X147767098Y-79283161D01*
X147674626Y-79481468D01*
X147674622Y-79481477D01*
X147617993Y-79692820D01*
X147617993Y-79692824D01*
X147598923Y-79910797D01*
X147598923Y-79910802D01*
X67579257Y-79910802D01*
X67574804Y-77361000D01*
X142964101Y-77361000D01*
X142982452Y-77547331D01*
X142982453Y-77547333D01*
X143036804Y-77726502D01*
X143125062Y-77891623D01*
X143125064Y-77891626D01*
X143243842Y-78036357D01*
X143388573Y-78155135D01*
X143388576Y-78155137D01*
X143553697Y-78243395D01*
X143553699Y-78243396D01*
X143732866Y-78297746D01*
X143732868Y-78297747D01*
X143749574Y-78299392D01*
X143919200Y-78316099D01*
X144105531Y-78297747D01*
X144284701Y-78243396D01*
X144449825Y-78155136D01*
X144594557Y-78036357D01*
X144713336Y-77891625D01*
X144801596Y-77726501D01*
X144855947Y-77547331D01*
X144874299Y-77361000D01*
X144855947Y-77174669D01*
X144853075Y-77165200D01*
X166390301Y-77165200D01*
X166408652Y-77351531D01*
X166408653Y-77351533D01*
X166463004Y-77530702D01*
X166551262Y-77695823D01*
X166551264Y-77695826D01*
X166670042Y-77840557D01*
X166814773Y-77959335D01*
X166814776Y-77959337D01*
X166958872Y-78036357D01*
X166979899Y-78047596D01*
X167159066Y-78101946D01*
X167159068Y-78101947D01*
X167175774Y-78103592D01*
X167345400Y-78120299D01*
X167531731Y-78101947D01*
X167710901Y-78047596D01*
X167876025Y-77959336D01*
X168020757Y-77840557D01*
X168139536Y-77695825D01*
X168227796Y-77530701D01*
X168282147Y-77351531D01*
X168300499Y-77165200D01*
X168282147Y-76978869D01*
X168227796Y-76799699D01*
X168227795Y-76799697D01*
X168139537Y-76634576D01*
X168139535Y-76634573D01*
X168020757Y-76489842D01*
X167876026Y-76371064D01*
X167876023Y-76371062D01*
X167710902Y-76282804D01*
X167531733Y-76228453D01*
X167531731Y-76228452D01*
X167345400Y-76210101D01*
X167159068Y-76228452D01*
X167159066Y-76228453D01*
X166979897Y-76282804D01*
X166814776Y-76371062D01*
X166814773Y-76371064D01*
X166670042Y-76489842D01*
X166551264Y-76634573D01*
X166551262Y-76634576D01*
X166463004Y-76799697D01*
X166408653Y-76978866D01*
X166408652Y-76978868D01*
X166390301Y-77165200D01*
X144853075Y-77165200D01*
X144801596Y-76995499D01*
X144713336Y-76830375D01*
X144713335Y-76830373D01*
X144594557Y-76685642D01*
X144449826Y-76566864D01*
X144449823Y-76566862D01*
X144284702Y-76478604D01*
X144105533Y-76424253D01*
X144105531Y-76424252D01*
X143919200Y-76405901D01*
X143732868Y-76424252D01*
X143732866Y-76424253D01*
X143553697Y-76478604D01*
X143388576Y-76566862D01*
X143388573Y-76566864D01*
X143243842Y-76685642D01*
X143125064Y-76830373D01*
X143125062Y-76830376D01*
X143036804Y-76995497D01*
X142982453Y-77174666D01*
X142982452Y-77174668D01*
X142964101Y-77361000D01*
X67574804Y-77361000D01*
X67568961Y-74015600D01*
X71824940Y-74015600D01*
X71844726Y-74203856D01*
X71844727Y-74203859D01*
X71903218Y-74383877D01*
X71903221Y-74383884D01*
X71997867Y-74547816D01*
X72124529Y-74688488D01*
X72277665Y-74799748D01*
X72277670Y-74799751D01*
X72450592Y-74876742D01*
X72450597Y-74876744D01*
X72635754Y-74916100D01*
X72635755Y-74916100D01*
X72825044Y-74916100D01*
X72825046Y-74916100D01*
X73010203Y-74876744D01*
X73183130Y-74799751D01*
X73336271Y-74688488D01*
X73462933Y-74547816D01*
X73557579Y-74383884D01*
X73616074Y-74203856D01*
X73635860Y-74015600D01*
X73616074Y-73827344D01*
X73557579Y-73647316D01*
X73462933Y-73483384D01*
X73336271Y-73342712D01*
X73336270Y-73342711D01*
X73183134Y-73231451D01*
X73183129Y-73231448D01*
X73010207Y-73154457D01*
X73010202Y-73154455D01*
X72864401Y-73123465D01*
X72825046Y-73115100D01*
X72635754Y-73115100D01*
X72603297Y-73121998D01*
X72450597Y-73154455D01*
X72450592Y-73154457D01*
X72277670Y-73231448D01*
X72277665Y-73231451D01*
X72124529Y-73342711D01*
X71997866Y-73483385D01*
X71903221Y-73647315D01*
X71903218Y-73647322D01*
X71844727Y-73827340D01*
X71844726Y-73827344D01*
X71824940Y-74015600D01*
X67568961Y-74015600D01*
X67565806Y-72209204D01*
X123681351Y-72209204D01*
X123701516Y-72478301D01*
X123761564Y-72741388D01*
X123761566Y-72741395D01*
X123860157Y-72992598D01*
X123995085Y-73226302D01*
X124130980Y-73396709D01*
X124163342Y-73437289D01*
X124350083Y-73610558D01*
X124361159Y-73620835D01*
X124584126Y-73772851D01*
X124827259Y-73889938D01*
X125085128Y-73969480D01*
X125085129Y-73969480D01*
X125085132Y-73969481D01*
X125351963Y-74009699D01*
X125351968Y-74009699D01*
X125351971Y-74009700D01*
X125351972Y-74009700D01*
X125621828Y-74009700D01*
X125621829Y-74009700D01*
X125621836Y-74009699D01*
X125888667Y-73969481D01*
X125888668Y-73969480D01*
X125888672Y-73969480D01*
X126146541Y-73889938D01*
X126389675Y-73772851D01*
X126612641Y-73620835D01*
X126810461Y-73437285D01*
X126978715Y-73226302D01*
X127113643Y-72992598D01*
X127212234Y-72741395D01*
X127272283Y-72478303D01*
X127292449Y-72209200D01*
X127272283Y-71940097D01*
X127212234Y-71677005D01*
X127113643Y-71425802D01*
X126978715Y-71192098D01*
X126810461Y-70981115D01*
X126810460Y-70981114D01*
X126810457Y-70981110D01*
X126612641Y-70797565D01*
X126389675Y-70645549D01*
X126389669Y-70645546D01*
X126389668Y-70645545D01*
X126389667Y-70645544D01*
X126146543Y-70528463D01*
X126146545Y-70528463D01*
X125888673Y-70448920D01*
X125888667Y-70448918D01*
X125621836Y-70408700D01*
X125621829Y-70408700D01*
X125351971Y-70408700D01*
X125351963Y-70408700D01*
X125085132Y-70448918D01*
X125085126Y-70448920D01*
X124827258Y-70528462D01*
X124584130Y-70645546D01*
X124361158Y-70797565D01*
X124163342Y-70981110D01*
X123995085Y-71192098D01*
X123860158Y-71425799D01*
X123860156Y-71425803D01*
X123761566Y-71677004D01*
X123761564Y-71677011D01*
X123701516Y-71940098D01*
X123681351Y-72209195D01*
X123681351Y-72209204D01*
X67565806Y-72209204D01*
X67555314Y-66201070D01*
X71818900Y-66201070D01*
X71818901Y-66201076D01*
X71825308Y-66260683D01*
X71875602Y-66395528D01*
X71875606Y-66395535D01*
X71961852Y-66510744D01*
X71961855Y-66510747D01*
X72077064Y-66596993D01*
X72077071Y-66596997D01*
X72211917Y-66647291D01*
X72211916Y-66647291D01*
X72218844Y-66648035D01*
X72271527Y-66653700D01*
X74967272Y-66653699D01*
X75026883Y-66647291D01*
X75161731Y-66596996D01*
X75276946Y-66510746D01*
X75363196Y-66395531D01*
X75413491Y-66260683D01*
X75419900Y-66201073D01*
X75419899Y-64809204D01*
X81181351Y-64809204D01*
X81201516Y-65078301D01*
X81261564Y-65341388D01*
X81261566Y-65341395D01*
X81360157Y-65592598D01*
X81495085Y-65826302D01*
X81532054Y-65872659D01*
X81663342Y-66037289D01*
X81839861Y-66201073D01*
X81861159Y-66220835D01*
X82084126Y-66372851D01*
X82327259Y-66489938D01*
X82585128Y-66569480D01*
X82585129Y-66569480D01*
X82585132Y-66569481D01*
X82851963Y-66609699D01*
X82851968Y-66609699D01*
X82851971Y-66609700D01*
X82851972Y-66609700D01*
X83121828Y-66609700D01*
X83121829Y-66609700D01*
X83121836Y-66609699D01*
X83388667Y-66569481D01*
X83388668Y-66569480D01*
X83388672Y-66569480D01*
X83646541Y-66489938D01*
X83889675Y-66372851D01*
X84112641Y-66220835D01*
X84293865Y-66052684D01*
X84310457Y-66037289D01*
X84310457Y-66037287D01*
X84310461Y-66037285D01*
X84478715Y-65826302D01*
X84613643Y-65592598D01*
X84712234Y-65341395D01*
X84772283Y-65078303D01*
X84784919Y-64909684D01*
X84792449Y-64809204D01*
X84792449Y-64809195D01*
X84772283Y-64540098D01*
X84712235Y-64277011D01*
X84712234Y-64277005D01*
X84613643Y-64025802D01*
X84478715Y-63792098D01*
X84310461Y-63581115D01*
X84310460Y-63581114D01*
X84310457Y-63581110D01*
X84112641Y-63397565D01*
X83890336Y-63246000D01*
X137534740Y-63246000D01*
X137554526Y-63434256D01*
X137554527Y-63434259D01*
X137613018Y-63614277D01*
X137613021Y-63614284D01*
X137707667Y-63778216D01*
X137797912Y-63878443D01*
X137828141Y-63941432D01*
X137819516Y-64010767D01*
X137797914Y-64044382D01*
X137783868Y-64059982D01*
X137783864Y-64059987D01*
X137689221Y-64223915D01*
X137689218Y-64223922D01*
X137647233Y-64353140D01*
X137630726Y-64403944D01*
X137610940Y-64592200D01*
X137630726Y-64780456D01*
X137630727Y-64780459D01*
X137689218Y-64960477D01*
X137689221Y-64960484D01*
X137783867Y-65124416D01*
X137910529Y-65265088D01*
X138063665Y-65376348D01*
X138063670Y-65376351D01*
X138210683Y-65441807D01*
X138263920Y-65487057D01*
X138284241Y-65553907D01*
X138283568Y-65568046D01*
X138280988Y-65592600D01*
X138271340Y-65684400D01*
X138291126Y-65872656D01*
X138291127Y-65872659D01*
X138349618Y-66052677D01*
X138349621Y-66052684D01*
X138444267Y-66216616D01*
X138570929Y-66357288D01*
X138724065Y-66468548D01*
X138724070Y-66468551D01*
X138896992Y-66545542D01*
X138896997Y-66545544D01*
X139082154Y-66584900D01*
X139082155Y-66584900D01*
X139271444Y-66584900D01*
X139271446Y-66584900D01*
X139456603Y-66545544D01*
X139629530Y-66468551D01*
X139782671Y-66357288D01*
X139909333Y-66216616D01*
X140003979Y-66052684D01*
X140062474Y-65872656D01*
X140082260Y-65684400D01*
X140062659Y-65497908D01*
X140075229Y-65429182D01*
X140122961Y-65378158D01*
X140135544Y-65371671D01*
X140203544Y-65341395D01*
X140239130Y-65325551D01*
X140392271Y-65214288D01*
X140518933Y-65073616D01*
X140613579Y-64909684D01*
X140672074Y-64729656D01*
X140691860Y-64541400D01*
X140672074Y-64353144D01*
X140613579Y-64173116D01*
X140518933Y-64009184D01*
X140469405Y-63954178D01*
X140439176Y-63891188D01*
X140447801Y-63821853D01*
X140454164Y-63809216D01*
X140537379Y-63665084D01*
X140595874Y-63485056D01*
X140615660Y-63296800D01*
X140595874Y-63108544D01*
X140537379Y-62928516D01*
X140442733Y-62764584D01*
X140316071Y-62623912D01*
X140316070Y-62623911D01*
X140162934Y-62512651D01*
X140162929Y-62512648D01*
X139990007Y-62435657D01*
X139990002Y-62435655D01*
X139844201Y-62404665D01*
X139804846Y-62396300D01*
X139615554Y-62396300D01*
X139583097Y-62403198D01*
X139430397Y-62435655D01*
X139430392Y-62435657D01*
X139257470Y-62512648D01*
X139257466Y-62512651D01*
X139183044Y-62566721D01*
X139117238Y-62590200D01*
X139049184Y-62574374D01*
X139037275Y-62566720D01*
X138892934Y-62461851D01*
X138892929Y-62461848D01*
X138720007Y-62384857D01*
X138720002Y-62384855D01*
X138574201Y-62353865D01*
X138534846Y-62345500D01*
X138345554Y-62345500D01*
X138313097Y-62352398D01*
X138160397Y-62384855D01*
X138160392Y-62384857D01*
X137987470Y-62461848D01*
X137987465Y-62461851D01*
X137834329Y-62573111D01*
X137707666Y-62713785D01*
X137613021Y-62877715D01*
X137613018Y-62877722D01*
X137554527Y-63057740D01*
X137554526Y-63057744D01*
X137534740Y-63246000D01*
X83890336Y-63246000D01*
X83889675Y-63245549D01*
X83889669Y-63245546D01*
X83889668Y-63245545D01*
X83889667Y-63245544D01*
X83646543Y-63128463D01*
X83646545Y-63128463D01*
X83388673Y-63048920D01*
X83388667Y-63048918D01*
X83121836Y-63008700D01*
X83121829Y-63008700D01*
X82851971Y-63008700D01*
X82851963Y-63008700D01*
X82585132Y-63048918D01*
X82585126Y-63048920D01*
X82327258Y-63128462D01*
X82084130Y-63245546D01*
X81861158Y-63397565D01*
X81663342Y-63581110D01*
X81495085Y-63792098D01*
X81360158Y-64025799D01*
X81360156Y-64025803D01*
X81261566Y-64277004D01*
X81261564Y-64277011D01*
X81201516Y-64540098D01*
X81181351Y-64809195D01*
X81181351Y-64809204D01*
X75419899Y-64809204D01*
X75419899Y-63505328D01*
X75413491Y-63445717D01*
X75409217Y-63434259D01*
X75363197Y-63310871D01*
X75363193Y-63310864D01*
X75276947Y-63195655D01*
X75276944Y-63195652D01*
X75161735Y-63109406D01*
X75161728Y-63109402D01*
X75026882Y-63059108D01*
X75026883Y-63059108D01*
X74967283Y-63052701D01*
X74967281Y-63052700D01*
X74967273Y-63052700D01*
X74967264Y-63052700D01*
X72271529Y-63052700D01*
X72271523Y-63052701D01*
X72211916Y-63059108D01*
X72077071Y-63109402D01*
X72077064Y-63109406D01*
X71961855Y-63195652D01*
X71961852Y-63195655D01*
X71875606Y-63310864D01*
X71875602Y-63310871D01*
X71825308Y-63445717D01*
X71821079Y-63485056D01*
X71818901Y-63505323D01*
X71818900Y-63505335D01*
X71818900Y-66201070D01*
X67555314Y-66201070D01*
X67546490Y-61148670D01*
X176162100Y-61148670D01*
X176162101Y-61148676D01*
X176168508Y-61208283D01*
X176218802Y-61343128D01*
X176218806Y-61343135D01*
X176305052Y-61458344D01*
X176305055Y-61458347D01*
X176420264Y-61544593D01*
X176420271Y-61544597D01*
X176555117Y-61594891D01*
X176555116Y-61594891D01*
X176562044Y-61595635D01*
X176614727Y-61601300D01*
X179310472Y-61601299D01*
X179370083Y-61594891D01*
X179504931Y-61544596D01*
X179620146Y-61458346D01*
X179706396Y-61343131D01*
X179756691Y-61208283D01*
X179763100Y-61148673D01*
X179763099Y-58452928D01*
X179756702Y-58393416D01*
X179756691Y-58393316D01*
X179706397Y-58258471D01*
X179706393Y-58258464D01*
X179620147Y-58143255D01*
X179620144Y-58143252D01*
X179504935Y-58057006D01*
X179504928Y-58057002D01*
X179370082Y-58006708D01*
X179370083Y-58006708D01*
X179310483Y-58000301D01*
X179310481Y-58000300D01*
X179310473Y-58000300D01*
X179310464Y-58000300D01*
X176614729Y-58000300D01*
X176614723Y-58000301D01*
X176555116Y-58006708D01*
X176420271Y-58057002D01*
X176420264Y-58057006D01*
X176305055Y-58143252D01*
X176305052Y-58143255D01*
X176218806Y-58258464D01*
X176218802Y-58258471D01*
X176168508Y-58393317D01*
X176162101Y-58452916D01*
X176162101Y-58452923D01*
X176162100Y-58452935D01*
X176162100Y-61148670D01*
X67546490Y-61148670D01*
X67539862Y-57353204D01*
X71813851Y-57353204D01*
X71834016Y-57622301D01*
X71894064Y-57885388D01*
X71894066Y-57885395D01*
X71961446Y-58057076D01*
X71992657Y-58136598D01*
X72127585Y-58370302D01*
X72263480Y-58540709D01*
X72295842Y-58581289D01*
X72482583Y-58754558D01*
X72493659Y-58764835D01*
X72716626Y-58916851D01*
X72959759Y-59033938D01*
X73217628Y-59113480D01*
X73217629Y-59113480D01*
X73217632Y-59113481D01*
X73484463Y-59153699D01*
X73484468Y-59153699D01*
X73484471Y-59153700D01*
X73484472Y-59153700D01*
X73754328Y-59153700D01*
X73754329Y-59153700D01*
X73754336Y-59153699D01*
X74021167Y-59113481D01*
X74021168Y-59113480D01*
X74021172Y-59113480D01*
X74279041Y-59033938D01*
X74522175Y-58916851D01*
X74745141Y-58764835D01*
X74942961Y-58581285D01*
X75111215Y-58370302D01*
X75246143Y-58136598D01*
X75277356Y-58057070D01*
X81186400Y-58057070D01*
X81186401Y-58057076D01*
X81192808Y-58116683D01*
X81243102Y-58251528D01*
X81243106Y-58251535D01*
X81329352Y-58366744D01*
X81329355Y-58366747D01*
X81444564Y-58452993D01*
X81444571Y-58452997D01*
X81579417Y-58503291D01*
X81579416Y-58503291D01*
X81586344Y-58504035D01*
X81639027Y-58509700D01*
X84334772Y-58509699D01*
X84394383Y-58503291D01*
X84529231Y-58452996D01*
X84644446Y-58366746D01*
X84730696Y-58251531D01*
X84780991Y-58116683D01*
X84787400Y-58057073D01*
X84787400Y-57861200D01*
X139465140Y-57861200D01*
X139484926Y-58049456D01*
X139484927Y-58049459D01*
X139543418Y-58229477D01*
X139543421Y-58229484D01*
X139638067Y-58393416D01*
X139736999Y-58503291D01*
X139764729Y-58534088D01*
X139917865Y-58645348D01*
X139917870Y-58645351D01*
X140090792Y-58722342D01*
X140090797Y-58722344D01*
X140275954Y-58761700D01*
X140275955Y-58761700D01*
X140465244Y-58761700D01*
X140465246Y-58761700D01*
X140650403Y-58722344D01*
X140823330Y-58645351D01*
X140976471Y-58534088D01*
X141103133Y-58393416D01*
X141197779Y-58229484D01*
X141256274Y-58049456D01*
X141276060Y-57861200D01*
X141256274Y-57672944D01*
X141197779Y-57492916D01*
X141103133Y-57328984D01*
X140976471Y-57188312D01*
X140976470Y-57188311D01*
X140823334Y-57077051D01*
X140823329Y-57077048D01*
X140650407Y-57000057D01*
X140650402Y-57000055D01*
X140504601Y-56969065D01*
X140465246Y-56960700D01*
X140275954Y-56960700D01*
X140243497Y-56967598D01*
X140090797Y-57000055D01*
X140090792Y-57000057D01*
X139917870Y-57077048D01*
X139917865Y-57077051D01*
X139764729Y-57188311D01*
X139638066Y-57328985D01*
X139543421Y-57492915D01*
X139543418Y-57492922D01*
X139501380Y-57622303D01*
X139484926Y-57672944D01*
X139465140Y-57861200D01*
X84787400Y-57861200D01*
X84787399Y-56489600D01*
X137763340Y-56489600D01*
X137783126Y-56677856D01*
X137783127Y-56677859D01*
X137841618Y-56857877D01*
X137841621Y-56857884D01*
X137936267Y-57021816D01*
X138062929Y-57162488D01*
X138216065Y-57273748D01*
X138216070Y-57273751D01*
X138388992Y-57350742D01*
X138388997Y-57350744D01*
X138574154Y-57390100D01*
X138574155Y-57390100D01*
X138763444Y-57390100D01*
X138763446Y-57390100D01*
X138948603Y-57350744D01*
X139121530Y-57273751D01*
X139274671Y-57162488D01*
X139401333Y-57021816D01*
X139495979Y-56857884D01*
X139554474Y-56677856D01*
X139574260Y-56489600D01*
X139554474Y-56301344D01*
X139495979Y-56121316D01*
X139401333Y-55957384D01*
X139274671Y-55816712D01*
X139274670Y-55816711D01*
X139121534Y-55705451D01*
X139121529Y-55705448D01*
X138948607Y-55628457D01*
X138948602Y-55628455D01*
X138802801Y-55597465D01*
X138763446Y-55589100D01*
X138574154Y-55589100D01*
X138541697Y-55595998D01*
X138388997Y-55628455D01*
X138388992Y-55628457D01*
X138216070Y-55705448D01*
X138216065Y-55705451D01*
X138062929Y-55816711D01*
X137936266Y-55957385D01*
X137841621Y-56121315D01*
X137841618Y-56121322D01*
X137783127Y-56301340D01*
X137783126Y-56301344D01*
X137763340Y-56489600D01*
X84787399Y-56489600D01*
X84787399Y-55961328D01*
X84780991Y-55901717D01*
X84749286Y-55816712D01*
X84730697Y-55766871D01*
X84730693Y-55766864D01*
X84644447Y-55651655D01*
X84644444Y-55651652D01*
X84529235Y-55565406D01*
X84529228Y-55565402D01*
X84394382Y-55515108D01*
X84394383Y-55515108D01*
X84334783Y-55508701D01*
X84334781Y-55508700D01*
X84334773Y-55508700D01*
X84334764Y-55508700D01*
X81639029Y-55508700D01*
X81639023Y-55508701D01*
X81579416Y-55515108D01*
X81444571Y-55565402D01*
X81444564Y-55565406D01*
X81329355Y-55651652D01*
X81329352Y-55651655D01*
X81243106Y-55766864D01*
X81243102Y-55766871D01*
X81192808Y-55901717D01*
X81186824Y-55957384D01*
X81186401Y-55961323D01*
X81186400Y-55961335D01*
X81186400Y-58057070D01*
X75277356Y-58057070D01*
X75344734Y-57885395D01*
X75404783Y-57622303D01*
X75424949Y-57353200D01*
X75423134Y-57328985D01*
X75404783Y-57084098D01*
X75353151Y-56857884D01*
X75344734Y-56821005D01*
X75246143Y-56569802D01*
X75111215Y-56336098D01*
X74942961Y-56125115D01*
X74942960Y-56125114D01*
X74942957Y-56125110D01*
X74745141Y-55941565D01*
X74686693Y-55901716D01*
X74522175Y-55789549D01*
X74522169Y-55789546D01*
X74522168Y-55789545D01*
X74522167Y-55789544D01*
X74279043Y-55672463D01*
X74279045Y-55672463D01*
X74021173Y-55592920D01*
X74021167Y-55592918D01*
X73754336Y-55552700D01*
X73754329Y-55552700D01*
X73484471Y-55552700D01*
X73484463Y-55552700D01*
X73217632Y-55592918D01*
X73217626Y-55592920D01*
X72959758Y-55672462D01*
X72716630Y-55789546D01*
X72493658Y-55941565D01*
X72295842Y-56125110D01*
X72127585Y-56336098D01*
X71992658Y-56569799D01*
X71992656Y-56569803D01*
X71894066Y-56821004D01*
X71894064Y-56821011D01*
X71834016Y-57084098D01*
X71813851Y-57353195D01*
X71813851Y-57353204D01*
X67539862Y-57353204D01*
X67520555Y-46297917D01*
X67540123Y-46230843D01*
X67592847Y-46184996D01*
X67644555Y-46173700D01*
X144742400Y-46173700D01*
X144809439Y-46193385D01*
G37*
%TD.AperFunction*%
%TD*%
M02*
