%TF.GenerationSoftware,KiCad,Pcbnew,7.0.8*%
%TF.CreationDate,2024-09-18T17:33:38+05:30*%
%TF.ProjectId,Esp32_relay,45737033-325f-4726-956c-61792e6b6963,rev?*%
%TF.SameCoordinates,Original*%
%TF.FileFunction,Legend,Top*%
%TF.FilePolarity,Positive*%
%FSLAX46Y46*%
G04 Gerber Fmt 4.6, Leading zero omitted, Abs format (unit mm)*
G04 Created by KiCad (PCBNEW 7.0.8) date 2024-09-18 17:33:38*
%MOMM*%
%LPD*%
G01*
G04 APERTURE LIST*
%ADD10C,0.125000*%
%ADD11C,0.150000*%
%ADD12C,0.400000*%
%ADD13C,0.200000*%
%ADD14C,0.300000*%
%ADD15C,0.254000*%
%ADD16C,0.120000*%
%ADD17C,0.127000*%
%ADD18C,0.100000*%
G04 APERTURE END LIST*
D10*
X173895021Y-47875685D02*
X174145021Y-48232828D01*
X174323592Y-47875685D02*
X174323592Y-48625685D01*
X174323592Y-48625685D02*
X174037878Y-48625685D01*
X174037878Y-48625685D02*
X173966449Y-48589971D01*
X173966449Y-48589971D02*
X173930735Y-48554257D01*
X173930735Y-48554257D02*
X173895021Y-48482828D01*
X173895021Y-48482828D02*
X173895021Y-48375685D01*
X173895021Y-48375685D02*
X173930735Y-48304257D01*
X173930735Y-48304257D02*
X173966449Y-48268542D01*
X173966449Y-48268542D02*
X174037878Y-48232828D01*
X174037878Y-48232828D02*
X174323592Y-48232828D01*
X173645021Y-47875685D02*
X173252164Y-48375685D01*
X173645021Y-48375685D02*
X173252164Y-47875685D01*
D11*
X169164487Y-48591271D02*
X169235916Y-48626985D01*
X169235916Y-48626985D02*
X169343058Y-48626985D01*
X169343058Y-48626985D02*
X169450201Y-48591271D01*
X169450201Y-48591271D02*
X169521630Y-48519842D01*
X169521630Y-48519842D02*
X169557344Y-48448414D01*
X169557344Y-48448414D02*
X169593058Y-48305557D01*
X169593058Y-48305557D02*
X169593058Y-48198414D01*
X169593058Y-48198414D02*
X169557344Y-48055557D01*
X169557344Y-48055557D02*
X169521630Y-47984128D01*
X169521630Y-47984128D02*
X169450201Y-47912700D01*
X169450201Y-47912700D02*
X169343058Y-47876985D01*
X169343058Y-47876985D02*
X169271630Y-47876985D01*
X169271630Y-47876985D02*
X169164487Y-47912700D01*
X169164487Y-47912700D02*
X169128773Y-47948414D01*
X169128773Y-47948414D02*
X169128773Y-48198414D01*
X169128773Y-48198414D02*
X169271630Y-48198414D01*
X168807344Y-48376985D02*
X168807344Y-47876985D01*
X168807344Y-48305557D02*
X168771630Y-48341271D01*
X168771630Y-48341271D02*
X168700201Y-48376985D01*
X168700201Y-48376985D02*
X168593058Y-48376985D01*
X168593058Y-48376985D02*
X168521630Y-48341271D01*
X168521630Y-48341271D02*
X168485916Y-48269842D01*
X168485916Y-48269842D02*
X168485916Y-47876985D01*
X167807345Y-47876985D02*
X167807345Y-48626985D01*
X167807345Y-47912700D02*
X167878773Y-47876985D01*
X167878773Y-47876985D02*
X168021630Y-47876985D01*
X168021630Y-47876985D02*
X168093059Y-47912700D01*
X168093059Y-47912700D02*
X168128773Y-47948414D01*
X168128773Y-47948414D02*
X168164487Y-48019842D01*
X168164487Y-48019842D02*
X168164487Y-48234128D01*
X168164487Y-48234128D02*
X168128773Y-48305557D01*
X168128773Y-48305557D02*
X168093059Y-48341271D01*
X168093059Y-48341271D02*
X168021630Y-48376985D01*
X168021630Y-48376985D02*
X167878773Y-48376985D01*
X167878773Y-48376985D02*
X167807345Y-48341271D01*
D12*
X168271747Y-113729733D02*
X169795557Y-113729733D01*
X169033652Y-114491638D02*
X169033652Y-112967828D01*
D13*
X151472561Y-112475682D02*
X151520180Y-112380444D01*
X151520180Y-112380444D02*
X151520180Y-112237587D01*
X151520180Y-112237587D02*
X151472561Y-112094730D01*
X151472561Y-112094730D02*
X151377323Y-111999492D01*
X151377323Y-111999492D02*
X151282085Y-111951873D01*
X151282085Y-111951873D02*
X151091609Y-111904254D01*
X151091609Y-111904254D02*
X150948752Y-111904254D01*
X150948752Y-111904254D02*
X150758276Y-111951873D01*
X150758276Y-111951873D02*
X150663038Y-111999492D01*
X150663038Y-111999492D02*
X150567800Y-112094730D01*
X150567800Y-112094730D02*
X150520180Y-112237587D01*
X150520180Y-112237587D02*
X150520180Y-112332825D01*
X150520180Y-112332825D02*
X150567800Y-112475682D01*
X150567800Y-112475682D02*
X150615419Y-112523301D01*
X150615419Y-112523301D02*
X150948752Y-112523301D01*
X150948752Y-112523301D02*
X150948752Y-112332825D01*
X151186847Y-112951873D02*
X150520180Y-112951873D01*
X151091609Y-112951873D02*
X151139228Y-112999492D01*
X151139228Y-112999492D02*
X151186847Y-113094730D01*
X151186847Y-113094730D02*
X151186847Y-113237587D01*
X151186847Y-113237587D02*
X151139228Y-113332825D01*
X151139228Y-113332825D02*
X151043990Y-113380444D01*
X151043990Y-113380444D02*
X150520180Y-113380444D01*
X150520180Y-114285206D02*
X151520180Y-114285206D01*
X150567800Y-114285206D02*
X150520180Y-114189968D01*
X150520180Y-114189968D02*
X150520180Y-113999492D01*
X150520180Y-113999492D02*
X150567800Y-113904254D01*
X150567800Y-113904254D02*
X150615419Y-113856635D01*
X150615419Y-113856635D02*
X150710657Y-113809016D01*
X150710657Y-113809016D02*
X150996371Y-113809016D01*
X150996371Y-113809016D02*
X151091609Y-113856635D01*
X151091609Y-113856635D02*
X151139228Y-113904254D01*
X151139228Y-113904254D02*
X151186847Y-113999492D01*
X151186847Y-113999492D02*
X151186847Y-114189968D01*
X151186847Y-114189968D02*
X151139228Y-114285206D01*
D11*
X171721887Y-48703185D02*
X171293316Y-48703185D01*
X171507601Y-47953185D02*
X171507601Y-48703185D01*
X171114744Y-47953185D02*
X170721887Y-48453185D01*
X171114744Y-48453185D02*
X170721887Y-47953185D01*
D13*
X177205082Y-91243838D02*
X177109844Y-91196219D01*
X177109844Y-91196219D02*
X176966987Y-91196219D01*
X176966987Y-91196219D02*
X176824130Y-91243838D01*
X176824130Y-91243838D02*
X176728892Y-91339076D01*
X176728892Y-91339076D02*
X176681273Y-91434314D01*
X176681273Y-91434314D02*
X176633654Y-91624790D01*
X176633654Y-91624790D02*
X176633654Y-91767647D01*
X176633654Y-91767647D02*
X176681273Y-91958123D01*
X176681273Y-91958123D02*
X176728892Y-92053361D01*
X176728892Y-92053361D02*
X176824130Y-92148600D01*
X176824130Y-92148600D02*
X176966987Y-92196219D01*
X176966987Y-92196219D02*
X177062225Y-92196219D01*
X177062225Y-92196219D02*
X177205082Y-92148600D01*
X177205082Y-92148600D02*
X177252701Y-92100980D01*
X177252701Y-92100980D02*
X177252701Y-91767647D01*
X177252701Y-91767647D02*
X177062225Y-91767647D01*
X177681273Y-91529552D02*
X177681273Y-92196219D01*
X177681273Y-91624790D02*
X177728892Y-91577171D01*
X177728892Y-91577171D02*
X177824130Y-91529552D01*
X177824130Y-91529552D02*
X177966987Y-91529552D01*
X177966987Y-91529552D02*
X178062225Y-91577171D01*
X178062225Y-91577171D02*
X178109844Y-91672409D01*
X178109844Y-91672409D02*
X178109844Y-92196219D01*
X179014606Y-92196219D02*
X179014606Y-91196219D01*
X179014606Y-92148600D02*
X178919368Y-92196219D01*
X178919368Y-92196219D02*
X178728892Y-92196219D01*
X178728892Y-92196219D02*
X178633654Y-92148600D01*
X178633654Y-92148600D02*
X178586035Y-92100980D01*
X178586035Y-92100980D02*
X178538416Y-92005742D01*
X178538416Y-92005742D02*
X178538416Y-91720028D01*
X178538416Y-91720028D02*
X178586035Y-91624790D01*
X178586035Y-91624790D02*
X178633654Y-91577171D01*
X178633654Y-91577171D02*
X178728892Y-91529552D01*
X178728892Y-91529552D02*
X178919368Y-91529552D01*
X178919368Y-91529552D02*
X179014606Y-91577171D01*
X174842882Y-110928838D02*
X174747644Y-110881219D01*
X174747644Y-110881219D02*
X174604787Y-110881219D01*
X174604787Y-110881219D02*
X174461930Y-110928838D01*
X174461930Y-110928838D02*
X174366692Y-111024076D01*
X174366692Y-111024076D02*
X174319073Y-111119314D01*
X174319073Y-111119314D02*
X174271454Y-111309790D01*
X174271454Y-111309790D02*
X174271454Y-111452647D01*
X174271454Y-111452647D02*
X174319073Y-111643123D01*
X174319073Y-111643123D02*
X174366692Y-111738361D01*
X174366692Y-111738361D02*
X174461930Y-111833600D01*
X174461930Y-111833600D02*
X174604787Y-111881219D01*
X174604787Y-111881219D02*
X174700025Y-111881219D01*
X174700025Y-111881219D02*
X174842882Y-111833600D01*
X174842882Y-111833600D02*
X174890501Y-111785980D01*
X174890501Y-111785980D02*
X174890501Y-111452647D01*
X174890501Y-111452647D02*
X174700025Y-111452647D01*
X175319073Y-111214552D02*
X175319073Y-111881219D01*
X175319073Y-111309790D02*
X175366692Y-111262171D01*
X175366692Y-111262171D02*
X175461930Y-111214552D01*
X175461930Y-111214552D02*
X175604787Y-111214552D01*
X175604787Y-111214552D02*
X175700025Y-111262171D01*
X175700025Y-111262171D02*
X175747644Y-111357409D01*
X175747644Y-111357409D02*
X175747644Y-111881219D01*
X176652406Y-111881219D02*
X176652406Y-110881219D01*
X176652406Y-111833600D02*
X176557168Y-111881219D01*
X176557168Y-111881219D02*
X176366692Y-111881219D01*
X176366692Y-111881219D02*
X176271454Y-111833600D01*
X176271454Y-111833600D02*
X176223835Y-111785980D01*
X176223835Y-111785980D02*
X176176216Y-111690742D01*
X176176216Y-111690742D02*
X176176216Y-111405028D01*
X176176216Y-111405028D02*
X176223835Y-111309790D01*
X176223835Y-111309790D02*
X176271454Y-111262171D01*
X176271454Y-111262171D02*
X176366692Y-111214552D01*
X176366692Y-111214552D02*
X176557168Y-111214552D01*
X176557168Y-111214552D02*
X176652406Y-111262171D01*
D12*
X177152547Y-54446133D02*
X178676357Y-54446133D01*
X177914452Y-55208038D02*
X177914452Y-53684228D01*
D11*
X177375388Y-71536038D02*
X177280150Y-71488419D01*
X177280150Y-71488419D02*
X177137293Y-71488419D01*
X177137293Y-71488419D02*
X176994436Y-71536038D01*
X176994436Y-71536038D02*
X176899198Y-71631276D01*
X176899198Y-71631276D02*
X176851579Y-71726514D01*
X176851579Y-71726514D02*
X176803960Y-71916990D01*
X176803960Y-71916990D02*
X176803960Y-72059847D01*
X176803960Y-72059847D02*
X176851579Y-72250323D01*
X176851579Y-72250323D02*
X176899198Y-72345561D01*
X176899198Y-72345561D02*
X176994436Y-72440800D01*
X176994436Y-72440800D02*
X177137293Y-72488419D01*
X177137293Y-72488419D02*
X177232531Y-72488419D01*
X177232531Y-72488419D02*
X177375388Y-72440800D01*
X177375388Y-72440800D02*
X177423007Y-72393180D01*
X177423007Y-72393180D02*
X177423007Y-72059847D01*
X177423007Y-72059847D02*
X177232531Y-72059847D01*
X177851579Y-71821752D02*
X177851579Y-72488419D01*
X177851579Y-71916990D02*
X177899198Y-71869371D01*
X177899198Y-71869371D02*
X177994436Y-71821752D01*
X177994436Y-71821752D02*
X178137293Y-71821752D01*
X178137293Y-71821752D02*
X178232531Y-71869371D01*
X178232531Y-71869371D02*
X178280150Y-71964609D01*
X178280150Y-71964609D02*
X178280150Y-72488419D01*
X179184912Y-72488419D02*
X179184912Y-71488419D01*
X179184912Y-72440800D02*
X179089674Y-72488419D01*
X179089674Y-72488419D02*
X178899198Y-72488419D01*
X178899198Y-72488419D02*
X178803960Y-72440800D01*
X178803960Y-72440800D02*
X178756341Y-72393180D01*
X178756341Y-72393180D02*
X178708722Y-72297942D01*
X178708722Y-72297942D02*
X178708722Y-72012228D01*
X178708722Y-72012228D02*
X178756341Y-71916990D01*
X178756341Y-71916990D02*
X178803960Y-71869371D01*
X178803960Y-71869371D02*
X178899198Y-71821752D01*
X178899198Y-71821752D02*
X179089674Y-71821752D01*
X179089674Y-71821752D02*
X179184912Y-71869371D01*
D12*
X178549547Y-73851733D02*
X180073357Y-73851733D01*
X179311452Y-74613638D02*
X179311452Y-73089828D01*
D14*
X158383653Y-90021628D02*
X157883653Y-89307342D01*
X157526510Y-90021628D02*
X157526510Y-88521628D01*
X157526510Y-88521628D02*
X158097939Y-88521628D01*
X158097939Y-88521628D02*
X158240796Y-88593057D01*
X158240796Y-88593057D02*
X158312225Y-88664485D01*
X158312225Y-88664485D02*
X158383653Y-88807342D01*
X158383653Y-88807342D02*
X158383653Y-89021628D01*
X158383653Y-89021628D02*
X158312225Y-89164485D01*
X158312225Y-89164485D02*
X158240796Y-89235914D01*
X158240796Y-89235914D02*
X158097939Y-89307342D01*
X158097939Y-89307342D02*
X157526510Y-89307342D01*
X159026510Y-89235914D02*
X159526510Y-89235914D01*
X159740796Y-90021628D02*
X159026510Y-90021628D01*
X159026510Y-90021628D02*
X159026510Y-88521628D01*
X159026510Y-88521628D02*
X159740796Y-88521628D01*
X160312225Y-89950200D02*
X160526511Y-90021628D01*
X160526511Y-90021628D02*
X160883653Y-90021628D01*
X160883653Y-90021628D02*
X161026511Y-89950200D01*
X161026511Y-89950200D02*
X161097939Y-89878771D01*
X161097939Y-89878771D02*
X161169368Y-89735914D01*
X161169368Y-89735914D02*
X161169368Y-89593057D01*
X161169368Y-89593057D02*
X161097939Y-89450200D01*
X161097939Y-89450200D02*
X161026511Y-89378771D01*
X161026511Y-89378771D02*
X160883653Y-89307342D01*
X160883653Y-89307342D02*
X160597939Y-89235914D01*
X160597939Y-89235914D02*
X160455082Y-89164485D01*
X160455082Y-89164485D02*
X160383653Y-89093057D01*
X160383653Y-89093057D02*
X160312225Y-88950200D01*
X160312225Y-88950200D02*
X160312225Y-88807342D01*
X160312225Y-88807342D02*
X160383653Y-88664485D01*
X160383653Y-88664485D02*
X160455082Y-88593057D01*
X160455082Y-88593057D02*
X160597939Y-88521628D01*
X160597939Y-88521628D02*
X160955082Y-88521628D01*
X160955082Y-88521628D02*
X161169368Y-88593057D01*
X161812224Y-89235914D02*
X162312224Y-89235914D01*
X162526510Y-90021628D02*
X161812224Y-90021628D01*
X161812224Y-90021628D02*
X161812224Y-88521628D01*
X161812224Y-88521628D02*
X162526510Y-88521628D01*
X162955082Y-88521628D02*
X163812225Y-88521628D01*
X163383653Y-90021628D02*
X163383653Y-88521628D01*
D12*
X177177947Y-93765333D02*
X178701757Y-93765333D01*
X177939852Y-94527238D02*
X177939852Y-93003428D01*
D14*
X76313003Y-71090571D02*
X77027289Y-71090571D01*
X77027289Y-71090571D02*
X77027289Y-72590571D01*
X73157910Y-61675228D02*
X73157910Y-60175228D01*
X73157910Y-60175228D02*
X73729339Y-60175228D01*
X73729339Y-60175228D02*
X73872196Y-60246657D01*
X73872196Y-60246657D02*
X73943625Y-60318085D01*
X73943625Y-60318085D02*
X74015053Y-60460942D01*
X74015053Y-60460942D02*
X74015053Y-60675228D01*
X74015053Y-60675228D02*
X73943625Y-60818085D01*
X73943625Y-60818085D02*
X73872196Y-60889514D01*
X73872196Y-60889514D02*
X73729339Y-60960942D01*
X73729339Y-60960942D02*
X73157910Y-60960942D01*
X149085710Y-89032714D02*
X149299996Y-89104142D01*
X149299996Y-89104142D02*
X149371425Y-89175571D01*
X149371425Y-89175571D02*
X149442853Y-89318428D01*
X149442853Y-89318428D02*
X149442853Y-89532714D01*
X149442853Y-89532714D02*
X149371425Y-89675571D01*
X149371425Y-89675571D02*
X149299996Y-89747000D01*
X149299996Y-89747000D02*
X149157139Y-89818428D01*
X149157139Y-89818428D02*
X148585710Y-89818428D01*
X148585710Y-89818428D02*
X148585710Y-88318428D01*
X148585710Y-88318428D02*
X149085710Y-88318428D01*
X149085710Y-88318428D02*
X149228568Y-88389857D01*
X149228568Y-88389857D02*
X149299996Y-88461285D01*
X149299996Y-88461285D02*
X149371425Y-88604142D01*
X149371425Y-88604142D02*
X149371425Y-88747000D01*
X149371425Y-88747000D02*
X149299996Y-88889857D01*
X149299996Y-88889857D02*
X149228568Y-88961285D01*
X149228568Y-88961285D02*
X149085710Y-89032714D01*
X149085710Y-89032714D02*
X148585710Y-89032714D01*
X150371425Y-88318428D02*
X150657139Y-88318428D01*
X150657139Y-88318428D02*
X150799996Y-88389857D01*
X150799996Y-88389857D02*
X150942853Y-88532714D01*
X150942853Y-88532714D02*
X151014282Y-88818428D01*
X151014282Y-88818428D02*
X151014282Y-89318428D01*
X151014282Y-89318428D02*
X150942853Y-89604142D01*
X150942853Y-89604142D02*
X150799996Y-89747000D01*
X150799996Y-89747000D02*
X150657139Y-89818428D01*
X150657139Y-89818428D02*
X150371425Y-89818428D01*
X150371425Y-89818428D02*
X150228568Y-89747000D01*
X150228568Y-89747000D02*
X150085710Y-89604142D01*
X150085710Y-89604142D02*
X150014282Y-89318428D01*
X150014282Y-89318428D02*
X150014282Y-88818428D01*
X150014282Y-88818428D02*
X150085710Y-88532714D01*
X150085710Y-88532714D02*
X150228568Y-88389857D01*
X150228568Y-88389857D02*
X150371425Y-88318428D01*
X151942854Y-88318428D02*
X152228568Y-88318428D01*
X152228568Y-88318428D02*
X152371425Y-88389857D01*
X152371425Y-88389857D02*
X152514282Y-88532714D01*
X152514282Y-88532714D02*
X152585711Y-88818428D01*
X152585711Y-88818428D02*
X152585711Y-89318428D01*
X152585711Y-89318428D02*
X152514282Y-89604142D01*
X152514282Y-89604142D02*
X152371425Y-89747000D01*
X152371425Y-89747000D02*
X152228568Y-89818428D01*
X152228568Y-89818428D02*
X151942854Y-89818428D01*
X151942854Y-89818428D02*
X151799997Y-89747000D01*
X151799997Y-89747000D02*
X151657139Y-89604142D01*
X151657139Y-89604142D02*
X151585711Y-89318428D01*
X151585711Y-89318428D02*
X151585711Y-88818428D01*
X151585711Y-88818428D02*
X151657139Y-88532714D01*
X151657139Y-88532714D02*
X151799997Y-88389857D01*
X151799997Y-88389857D02*
X151942854Y-88318428D01*
X153014283Y-88318428D02*
X153871426Y-88318428D01*
X153442854Y-89818428D02*
X153442854Y-88318428D01*
D11*
X132672905Y-86078219D02*
X132672905Y-85078219D01*
X132672905Y-85078219D02*
X132911000Y-85078219D01*
X132911000Y-85078219D02*
X133053857Y-85125838D01*
X133053857Y-85125838D02*
X133149095Y-85221076D01*
X133149095Y-85221076D02*
X133196714Y-85316314D01*
X133196714Y-85316314D02*
X133244333Y-85506790D01*
X133244333Y-85506790D02*
X133244333Y-85649647D01*
X133244333Y-85649647D02*
X133196714Y-85840123D01*
X133196714Y-85840123D02*
X133149095Y-85935361D01*
X133149095Y-85935361D02*
X133053857Y-86030600D01*
X133053857Y-86030600D02*
X132911000Y-86078219D01*
X132911000Y-86078219D02*
X132672905Y-86078219D01*
X133815762Y-85506790D02*
X133720524Y-85459171D01*
X133720524Y-85459171D02*
X133672905Y-85411552D01*
X133672905Y-85411552D02*
X133625286Y-85316314D01*
X133625286Y-85316314D02*
X133625286Y-85268695D01*
X133625286Y-85268695D02*
X133672905Y-85173457D01*
X133672905Y-85173457D02*
X133720524Y-85125838D01*
X133720524Y-85125838D02*
X133815762Y-85078219D01*
X133815762Y-85078219D02*
X134006238Y-85078219D01*
X134006238Y-85078219D02*
X134101476Y-85125838D01*
X134101476Y-85125838D02*
X134149095Y-85173457D01*
X134149095Y-85173457D02*
X134196714Y-85268695D01*
X134196714Y-85268695D02*
X134196714Y-85316314D01*
X134196714Y-85316314D02*
X134149095Y-85411552D01*
X134149095Y-85411552D02*
X134101476Y-85459171D01*
X134101476Y-85459171D02*
X134006238Y-85506790D01*
X134006238Y-85506790D02*
X133815762Y-85506790D01*
X133815762Y-85506790D02*
X133720524Y-85554409D01*
X133720524Y-85554409D02*
X133672905Y-85602028D01*
X133672905Y-85602028D02*
X133625286Y-85697266D01*
X133625286Y-85697266D02*
X133625286Y-85887742D01*
X133625286Y-85887742D02*
X133672905Y-85982980D01*
X133672905Y-85982980D02*
X133720524Y-86030600D01*
X133720524Y-86030600D02*
X133815762Y-86078219D01*
X133815762Y-86078219D02*
X134006238Y-86078219D01*
X134006238Y-86078219D02*
X134101476Y-86030600D01*
X134101476Y-86030600D02*
X134149095Y-85982980D01*
X134149095Y-85982980D02*
X134196714Y-85887742D01*
X134196714Y-85887742D02*
X134196714Y-85697266D01*
X134196714Y-85697266D02*
X134149095Y-85602028D01*
X134149095Y-85602028D02*
X134101476Y-85554409D01*
X134101476Y-85554409D02*
X134006238Y-85506790D01*
X114536419Y-79948066D02*
X114060228Y-80281399D01*
X114536419Y-80519494D02*
X113536419Y-80519494D01*
X113536419Y-80519494D02*
X113536419Y-80138542D01*
X113536419Y-80138542D02*
X113584038Y-80043304D01*
X113584038Y-80043304D02*
X113631657Y-79995685D01*
X113631657Y-79995685D02*
X113726895Y-79948066D01*
X113726895Y-79948066D02*
X113869752Y-79948066D01*
X113869752Y-79948066D02*
X113964990Y-79995685D01*
X113964990Y-79995685D02*
X114012609Y-80043304D01*
X114012609Y-80043304D02*
X114060228Y-80138542D01*
X114060228Y-80138542D02*
X114060228Y-80519494D01*
X113536419Y-79614732D02*
X113536419Y-78995685D01*
X113536419Y-78995685D02*
X113917371Y-79329018D01*
X113917371Y-79329018D02*
X113917371Y-79186161D01*
X113917371Y-79186161D02*
X113964990Y-79090923D01*
X113964990Y-79090923D02*
X114012609Y-79043304D01*
X114012609Y-79043304D02*
X114107847Y-78995685D01*
X114107847Y-78995685D02*
X114345942Y-78995685D01*
X114345942Y-78995685D02*
X114441180Y-79043304D01*
X114441180Y-79043304D02*
X114488800Y-79090923D01*
X114488800Y-79090923D02*
X114536419Y-79186161D01*
X114536419Y-79186161D02*
X114536419Y-79471875D01*
X114536419Y-79471875D02*
X114488800Y-79567113D01*
X114488800Y-79567113D02*
X114441180Y-79614732D01*
X167922980Y-83121866D02*
X167970600Y-83169485D01*
X167970600Y-83169485D02*
X168018219Y-83312342D01*
X168018219Y-83312342D02*
X168018219Y-83407580D01*
X168018219Y-83407580D02*
X167970600Y-83550437D01*
X167970600Y-83550437D02*
X167875361Y-83645675D01*
X167875361Y-83645675D02*
X167780123Y-83693294D01*
X167780123Y-83693294D02*
X167589647Y-83740913D01*
X167589647Y-83740913D02*
X167446790Y-83740913D01*
X167446790Y-83740913D02*
X167256314Y-83693294D01*
X167256314Y-83693294D02*
X167161076Y-83645675D01*
X167161076Y-83645675D02*
X167065838Y-83550437D01*
X167065838Y-83550437D02*
X167018219Y-83407580D01*
X167018219Y-83407580D02*
X167018219Y-83312342D01*
X167018219Y-83312342D02*
X167065838Y-83169485D01*
X167065838Y-83169485D02*
X167113457Y-83121866D01*
X168018219Y-82169485D02*
X168018219Y-82740913D01*
X168018219Y-82455199D02*
X167018219Y-82455199D01*
X167018219Y-82455199D02*
X167161076Y-82550437D01*
X167161076Y-82550437D02*
X167256314Y-82645675D01*
X167256314Y-82645675D02*
X167303933Y-82740913D01*
X171049171Y-112186309D02*
X170715838Y-112186309D01*
X170715838Y-112710119D02*
X170715838Y-111710119D01*
X170715838Y-111710119D02*
X171192028Y-111710119D01*
X171572981Y-112710119D02*
X171572981Y-111710119D01*
X172049171Y-112710119D02*
X172049171Y-111710119D01*
X172049171Y-111710119D02*
X172287266Y-111710119D01*
X172287266Y-111710119D02*
X172430123Y-111757738D01*
X172430123Y-111757738D02*
X172525361Y-111852976D01*
X172525361Y-111852976D02*
X172572980Y-111948214D01*
X172572980Y-111948214D02*
X172620599Y-112138690D01*
X172620599Y-112138690D02*
X172620599Y-112281547D01*
X172620599Y-112281547D02*
X172572980Y-112472023D01*
X172572980Y-112472023D02*
X172525361Y-112567261D01*
X172525361Y-112567261D02*
X172430123Y-112662500D01*
X172430123Y-112662500D02*
X172287266Y-112710119D01*
X172287266Y-112710119D02*
X172049171Y-112710119D01*
X172953933Y-111710119D02*
X173572980Y-111710119D01*
X173572980Y-111710119D02*
X173239647Y-112091071D01*
X173239647Y-112091071D02*
X173382504Y-112091071D01*
X173382504Y-112091071D02*
X173477742Y-112138690D01*
X173477742Y-112138690D02*
X173525361Y-112186309D01*
X173525361Y-112186309D02*
X173572980Y-112281547D01*
X173572980Y-112281547D02*
X173572980Y-112519642D01*
X173572980Y-112519642D02*
X173525361Y-112614880D01*
X173525361Y-112614880D02*
X173477742Y-112662500D01*
X173477742Y-112662500D02*
X173382504Y-112710119D01*
X173382504Y-112710119D02*
X173096790Y-112710119D01*
X173096790Y-112710119D02*
X173001552Y-112662500D01*
X173001552Y-112662500D02*
X172953933Y-112614880D01*
X139688780Y-63819066D02*
X139736400Y-63866685D01*
X139736400Y-63866685D02*
X139784019Y-64009542D01*
X139784019Y-64009542D02*
X139784019Y-64104780D01*
X139784019Y-64104780D02*
X139736400Y-64247637D01*
X139736400Y-64247637D02*
X139641161Y-64342875D01*
X139641161Y-64342875D02*
X139545923Y-64390494D01*
X139545923Y-64390494D02*
X139355447Y-64438113D01*
X139355447Y-64438113D02*
X139212590Y-64438113D01*
X139212590Y-64438113D02*
X139022114Y-64390494D01*
X139022114Y-64390494D02*
X138926876Y-64342875D01*
X138926876Y-64342875D02*
X138831638Y-64247637D01*
X138831638Y-64247637D02*
X138784019Y-64104780D01*
X138784019Y-64104780D02*
X138784019Y-64009542D01*
X138784019Y-64009542D02*
X138831638Y-63866685D01*
X138831638Y-63866685D02*
X138879257Y-63819066D01*
X138784019Y-62914304D02*
X138784019Y-63390494D01*
X138784019Y-63390494D02*
X139260209Y-63438113D01*
X139260209Y-63438113D02*
X139212590Y-63390494D01*
X139212590Y-63390494D02*
X139164971Y-63295256D01*
X139164971Y-63295256D02*
X139164971Y-63057161D01*
X139164971Y-63057161D02*
X139212590Y-62961923D01*
X139212590Y-62961923D02*
X139260209Y-62914304D01*
X139260209Y-62914304D02*
X139355447Y-62866685D01*
X139355447Y-62866685D02*
X139593542Y-62866685D01*
X139593542Y-62866685D02*
X139688780Y-62914304D01*
X139688780Y-62914304D02*
X139736400Y-62961923D01*
X139736400Y-62961923D02*
X139784019Y-63057161D01*
X139784019Y-63057161D02*
X139784019Y-63295256D01*
X139784019Y-63295256D02*
X139736400Y-63390494D01*
X139736400Y-63390494D02*
X139688780Y-63438113D01*
X132068780Y-73166266D02*
X132116400Y-73213885D01*
X132116400Y-73213885D02*
X132164019Y-73356742D01*
X132164019Y-73356742D02*
X132164019Y-73451980D01*
X132164019Y-73451980D02*
X132116400Y-73594837D01*
X132116400Y-73594837D02*
X132021161Y-73690075D01*
X132021161Y-73690075D02*
X131925923Y-73737694D01*
X131925923Y-73737694D02*
X131735447Y-73785313D01*
X131735447Y-73785313D02*
X131592590Y-73785313D01*
X131592590Y-73785313D02*
X131402114Y-73737694D01*
X131402114Y-73737694D02*
X131306876Y-73690075D01*
X131306876Y-73690075D02*
X131211638Y-73594837D01*
X131211638Y-73594837D02*
X131164019Y-73451980D01*
X131164019Y-73451980D02*
X131164019Y-73356742D01*
X131164019Y-73356742D02*
X131211638Y-73213885D01*
X131211638Y-73213885D02*
X131259257Y-73166266D01*
X131164019Y-72832932D02*
X131164019Y-72213885D01*
X131164019Y-72213885D02*
X131544971Y-72547218D01*
X131544971Y-72547218D02*
X131544971Y-72404361D01*
X131544971Y-72404361D02*
X131592590Y-72309123D01*
X131592590Y-72309123D02*
X131640209Y-72261504D01*
X131640209Y-72261504D02*
X131735447Y-72213885D01*
X131735447Y-72213885D02*
X131973542Y-72213885D01*
X131973542Y-72213885D02*
X132068780Y-72261504D01*
X132068780Y-72261504D02*
X132116400Y-72309123D01*
X132116400Y-72309123D02*
X132164019Y-72404361D01*
X132164019Y-72404361D02*
X132164019Y-72690075D01*
X132164019Y-72690075D02*
X132116400Y-72785313D01*
X132116400Y-72785313D02*
X132068780Y-72832932D01*
X124791657Y-84143838D02*
X124744038Y-84239076D01*
X124744038Y-84239076D02*
X124648800Y-84334314D01*
X124648800Y-84334314D02*
X124505942Y-84477171D01*
X124505942Y-84477171D02*
X124458323Y-84572409D01*
X124458323Y-84572409D02*
X124458323Y-84667647D01*
X124696419Y-84620028D02*
X124648800Y-84715266D01*
X124648800Y-84715266D02*
X124553561Y-84810504D01*
X124553561Y-84810504D02*
X124363085Y-84858123D01*
X124363085Y-84858123D02*
X124029752Y-84858123D01*
X124029752Y-84858123D02*
X123839276Y-84810504D01*
X123839276Y-84810504D02*
X123744038Y-84715266D01*
X123744038Y-84715266D02*
X123696419Y-84620028D01*
X123696419Y-84620028D02*
X123696419Y-84429552D01*
X123696419Y-84429552D02*
X123744038Y-84334314D01*
X123744038Y-84334314D02*
X123839276Y-84239076D01*
X123839276Y-84239076D02*
X124029752Y-84191457D01*
X124029752Y-84191457D02*
X124363085Y-84191457D01*
X124363085Y-84191457D02*
X124553561Y-84239076D01*
X124553561Y-84239076D02*
X124648800Y-84334314D01*
X124648800Y-84334314D02*
X124696419Y-84429552D01*
X124696419Y-84429552D02*
X124696419Y-84620028D01*
X123696419Y-83858123D02*
X123696419Y-83239076D01*
X123696419Y-83239076D02*
X124077371Y-83572409D01*
X124077371Y-83572409D02*
X124077371Y-83429552D01*
X124077371Y-83429552D02*
X124124990Y-83334314D01*
X124124990Y-83334314D02*
X124172609Y-83286695D01*
X124172609Y-83286695D02*
X124267847Y-83239076D01*
X124267847Y-83239076D02*
X124505942Y-83239076D01*
X124505942Y-83239076D02*
X124601180Y-83286695D01*
X124601180Y-83286695D02*
X124648800Y-83334314D01*
X124648800Y-83334314D02*
X124696419Y-83429552D01*
X124696419Y-83429552D02*
X124696419Y-83715266D01*
X124696419Y-83715266D02*
X124648800Y-83810504D01*
X124648800Y-83810504D02*
X124601180Y-83858123D01*
X140254733Y-53547180D02*
X140207114Y-53594800D01*
X140207114Y-53594800D02*
X140064257Y-53642419D01*
X140064257Y-53642419D02*
X139969019Y-53642419D01*
X139969019Y-53642419D02*
X139826162Y-53594800D01*
X139826162Y-53594800D02*
X139730924Y-53499561D01*
X139730924Y-53499561D02*
X139683305Y-53404323D01*
X139683305Y-53404323D02*
X139635686Y-53213847D01*
X139635686Y-53213847D02*
X139635686Y-53070990D01*
X139635686Y-53070990D02*
X139683305Y-52880514D01*
X139683305Y-52880514D02*
X139730924Y-52785276D01*
X139730924Y-52785276D02*
X139826162Y-52690038D01*
X139826162Y-52690038D02*
X139969019Y-52642419D01*
X139969019Y-52642419D02*
X140064257Y-52642419D01*
X140064257Y-52642419D02*
X140207114Y-52690038D01*
X140207114Y-52690038D02*
X140254733Y-52737657D01*
X140635686Y-52737657D02*
X140683305Y-52690038D01*
X140683305Y-52690038D02*
X140778543Y-52642419D01*
X140778543Y-52642419D02*
X141016638Y-52642419D01*
X141016638Y-52642419D02*
X141111876Y-52690038D01*
X141111876Y-52690038D02*
X141159495Y-52737657D01*
X141159495Y-52737657D02*
X141207114Y-52832895D01*
X141207114Y-52832895D02*
X141207114Y-52928133D01*
X141207114Y-52928133D02*
X141159495Y-53070990D01*
X141159495Y-53070990D02*
X140588067Y-53642419D01*
X140588067Y-53642419D02*
X141207114Y-53642419D01*
X142754819Y-80229366D02*
X142278628Y-80562699D01*
X142754819Y-80800794D02*
X141754819Y-80800794D01*
X141754819Y-80800794D02*
X141754819Y-80419842D01*
X141754819Y-80419842D02*
X141802438Y-80324604D01*
X141802438Y-80324604D02*
X141850057Y-80276985D01*
X141850057Y-80276985D02*
X141945295Y-80229366D01*
X141945295Y-80229366D02*
X142088152Y-80229366D01*
X142088152Y-80229366D02*
X142183390Y-80276985D01*
X142183390Y-80276985D02*
X142231009Y-80324604D01*
X142231009Y-80324604D02*
X142278628Y-80419842D01*
X142278628Y-80419842D02*
X142278628Y-80800794D01*
X142183390Y-79657937D02*
X142135771Y-79753175D01*
X142135771Y-79753175D02*
X142088152Y-79800794D01*
X142088152Y-79800794D02*
X141992914Y-79848413D01*
X141992914Y-79848413D02*
X141945295Y-79848413D01*
X141945295Y-79848413D02*
X141850057Y-79800794D01*
X141850057Y-79800794D02*
X141802438Y-79753175D01*
X141802438Y-79753175D02*
X141754819Y-79657937D01*
X141754819Y-79657937D02*
X141754819Y-79467461D01*
X141754819Y-79467461D02*
X141802438Y-79372223D01*
X141802438Y-79372223D02*
X141850057Y-79324604D01*
X141850057Y-79324604D02*
X141945295Y-79276985D01*
X141945295Y-79276985D02*
X141992914Y-79276985D01*
X141992914Y-79276985D02*
X142088152Y-79324604D01*
X142088152Y-79324604D02*
X142135771Y-79372223D01*
X142135771Y-79372223D02*
X142183390Y-79467461D01*
X142183390Y-79467461D02*
X142183390Y-79657937D01*
X142183390Y-79657937D02*
X142231009Y-79753175D01*
X142231009Y-79753175D02*
X142278628Y-79800794D01*
X142278628Y-79800794D02*
X142373866Y-79848413D01*
X142373866Y-79848413D02*
X142564342Y-79848413D01*
X142564342Y-79848413D02*
X142659580Y-79800794D01*
X142659580Y-79800794D02*
X142707200Y-79753175D01*
X142707200Y-79753175D02*
X142754819Y-79657937D01*
X142754819Y-79657937D02*
X142754819Y-79467461D01*
X142754819Y-79467461D02*
X142707200Y-79372223D01*
X142707200Y-79372223D02*
X142659580Y-79324604D01*
X142659580Y-79324604D02*
X142564342Y-79276985D01*
X142564342Y-79276985D02*
X142373866Y-79276985D01*
X142373866Y-79276985D02*
X142278628Y-79324604D01*
X142278628Y-79324604D02*
X142231009Y-79372223D01*
X142231009Y-79372223D02*
X142183390Y-79467461D01*
X83472219Y-54503485D02*
X82472219Y-54503485D01*
X82472219Y-54503485D02*
X82472219Y-54122533D01*
X82472219Y-54122533D02*
X82519838Y-54027295D01*
X82519838Y-54027295D02*
X82567457Y-53979676D01*
X82567457Y-53979676D02*
X82662695Y-53932057D01*
X82662695Y-53932057D02*
X82805552Y-53932057D01*
X82805552Y-53932057D02*
X82900790Y-53979676D01*
X82900790Y-53979676D02*
X82948409Y-54027295D01*
X82948409Y-54027295D02*
X82996028Y-54122533D01*
X82996028Y-54122533D02*
X82996028Y-54503485D01*
X83424600Y-53551104D02*
X83472219Y-53408247D01*
X83472219Y-53408247D02*
X83472219Y-53170152D01*
X83472219Y-53170152D02*
X83424600Y-53074914D01*
X83424600Y-53074914D02*
X83376980Y-53027295D01*
X83376980Y-53027295D02*
X83281742Y-52979676D01*
X83281742Y-52979676D02*
X83186504Y-52979676D01*
X83186504Y-52979676D02*
X83091266Y-53027295D01*
X83091266Y-53027295D02*
X83043647Y-53074914D01*
X83043647Y-53074914D02*
X82996028Y-53170152D01*
X82996028Y-53170152D02*
X82948409Y-53360628D01*
X82948409Y-53360628D02*
X82900790Y-53455866D01*
X82900790Y-53455866D02*
X82853171Y-53503485D01*
X82853171Y-53503485D02*
X82757933Y-53551104D01*
X82757933Y-53551104D02*
X82662695Y-53551104D01*
X82662695Y-53551104D02*
X82567457Y-53503485D01*
X82567457Y-53503485D02*
X82519838Y-53455866D01*
X82519838Y-53455866D02*
X82472219Y-53360628D01*
X82472219Y-53360628D02*
X82472219Y-53122533D01*
X82472219Y-53122533D02*
X82519838Y-52979676D01*
X83472219Y-52027295D02*
X83472219Y-52598723D01*
X83472219Y-52313009D02*
X82472219Y-52313009D01*
X82472219Y-52313009D02*
X82615076Y-52408247D01*
X82615076Y-52408247D02*
X82710314Y-52503485D01*
X82710314Y-52503485D02*
X82757933Y-52598723D01*
D15*
X160756572Y-84028489D02*
X160817048Y-83847060D01*
X160817048Y-83847060D02*
X160817048Y-83544679D01*
X160817048Y-83544679D02*
X160756572Y-83423727D01*
X160756572Y-83423727D02*
X160696095Y-83363251D01*
X160696095Y-83363251D02*
X160575143Y-83302774D01*
X160575143Y-83302774D02*
X160454191Y-83302774D01*
X160454191Y-83302774D02*
X160333238Y-83363251D01*
X160333238Y-83363251D02*
X160272762Y-83423727D01*
X160272762Y-83423727D02*
X160212286Y-83544679D01*
X160212286Y-83544679D02*
X160151810Y-83786584D01*
X160151810Y-83786584D02*
X160091333Y-83907536D01*
X160091333Y-83907536D02*
X160030857Y-83968013D01*
X160030857Y-83968013D02*
X159909905Y-84028489D01*
X159909905Y-84028489D02*
X159788952Y-84028489D01*
X159788952Y-84028489D02*
X159668000Y-83968013D01*
X159668000Y-83968013D02*
X159607524Y-83907536D01*
X159607524Y-83907536D02*
X159547048Y-83786584D01*
X159547048Y-83786584D02*
X159547048Y-83484203D01*
X159547048Y-83484203D02*
X159607524Y-83302774D01*
X160817048Y-82093250D02*
X160817048Y-82818965D01*
X160817048Y-82456108D02*
X159547048Y-82456108D01*
X159547048Y-82456108D02*
X159728476Y-82577060D01*
X159728476Y-82577060D02*
X159849429Y-82698012D01*
X159849429Y-82698012D02*
X159909905Y-82818965D01*
D11*
X142698657Y-83991438D02*
X142651038Y-84086676D01*
X142651038Y-84086676D02*
X142555800Y-84181914D01*
X142555800Y-84181914D02*
X142412942Y-84324771D01*
X142412942Y-84324771D02*
X142365323Y-84420009D01*
X142365323Y-84420009D02*
X142365323Y-84515247D01*
X142603419Y-84467628D02*
X142555800Y-84562866D01*
X142555800Y-84562866D02*
X142460561Y-84658104D01*
X142460561Y-84658104D02*
X142270085Y-84705723D01*
X142270085Y-84705723D02*
X141936752Y-84705723D01*
X141936752Y-84705723D02*
X141746276Y-84658104D01*
X141746276Y-84658104D02*
X141651038Y-84562866D01*
X141651038Y-84562866D02*
X141603419Y-84467628D01*
X141603419Y-84467628D02*
X141603419Y-84277152D01*
X141603419Y-84277152D02*
X141651038Y-84181914D01*
X141651038Y-84181914D02*
X141746276Y-84086676D01*
X141746276Y-84086676D02*
X141936752Y-84039057D01*
X141936752Y-84039057D02*
X142270085Y-84039057D01*
X142270085Y-84039057D02*
X142460561Y-84086676D01*
X142460561Y-84086676D02*
X142555800Y-84181914D01*
X142555800Y-84181914D02*
X142603419Y-84277152D01*
X142603419Y-84277152D02*
X142603419Y-84467628D01*
X141936752Y-83181914D02*
X142603419Y-83181914D01*
X141555800Y-83420009D02*
X142270085Y-83658104D01*
X142270085Y-83658104D02*
X142270085Y-83039057D01*
X99119505Y-78707119D02*
X99119505Y-77707119D01*
X99119505Y-77707119D02*
X99357600Y-77707119D01*
X99357600Y-77707119D02*
X99500457Y-77754738D01*
X99500457Y-77754738D02*
X99595695Y-77849976D01*
X99595695Y-77849976D02*
X99643314Y-77945214D01*
X99643314Y-77945214D02*
X99690933Y-78135690D01*
X99690933Y-78135690D02*
X99690933Y-78278547D01*
X99690933Y-78278547D02*
X99643314Y-78469023D01*
X99643314Y-78469023D02*
X99595695Y-78564261D01*
X99595695Y-78564261D02*
X99500457Y-78659500D01*
X99500457Y-78659500D02*
X99357600Y-78707119D01*
X99357600Y-78707119D02*
X99119505Y-78707119D01*
X100071886Y-77802357D02*
X100119505Y-77754738D01*
X100119505Y-77754738D02*
X100214743Y-77707119D01*
X100214743Y-77707119D02*
X100452838Y-77707119D01*
X100452838Y-77707119D02*
X100548076Y-77754738D01*
X100548076Y-77754738D02*
X100595695Y-77802357D01*
X100595695Y-77802357D02*
X100643314Y-77897595D01*
X100643314Y-77897595D02*
X100643314Y-77992833D01*
X100643314Y-77992833D02*
X100595695Y-78135690D01*
X100595695Y-78135690D02*
X100024267Y-78707119D01*
X100024267Y-78707119D02*
X100643314Y-78707119D01*
X143023333Y-53648780D02*
X142975714Y-53696400D01*
X142975714Y-53696400D02*
X142832857Y-53744019D01*
X142832857Y-53744019D02*
X142737619Y-53744019D01*
X142737619Y-53744019D02*
X142594762Y-53696400D01*
X142594762Y-53696400D02*
X142499524Y-53601161D01*
X142499524Y-53601161D02*
X142451905Y-53505923D01*
X142451905Y-53505923D02*
X142404286Y-53315447D01*
X142404286Y-53315447D02*
X142404286Y-53172590D01*
X142404286Y-53172590D02*
X142451905Y-52982114D01*
X142451905Y-52982114D02*
X142499524Y-52886876D01*
X142499524Y-52886876D02*
X142594762Y-52791638D01*
X142594762Y-52791638D02*
X142737619Y-52744019D01*
X142737619Y-52744019D02*
X142832857Y-52744019D01*
X142832857Y-52744019D02*
X142975714Y-52791638D01*
X142975714Y-52791638D02*
X143023333Y-52839257D01*
X143880476Y-53077352D02*
X143880476Y-53744019D01*
X143642381Y-52696400D02*
X143404286Y-53410685D01*
X143404286Y-53410685D02*
X144023333Y-53410685D01*
X74784419Y-77249257D02*
X74308228Y-77582590D01*
X74784419Y-77820685D02*
X73784419Y-77820685D01*
X73784419Y-77820685D02*
X73784419Y-77439733D01*
X73784419Y-77439733D02*
X73832038Y-77344495D01*
X73832038Y-77344495D02*
X73879657Y-77296876D01*
X73879657Y-77296876D02*
X73974895Y-77249257D01*
X73974895Y-77249257D02*
X74117752Y-77249257D01*
X74117752Y-77249257D02*
X74212990Y-77296876D01*
X74212990Y-77296876D02*
X74260609Y-77344495D01*
X74260609Y-77344495D02*
X74308228Y-77439733D01*
X74308228Y-77439733D02*
X74308228Y-77820685D01*
X74784419Y-76296876D02*
X74784419Y-76868304D01*
X74784419Y-76582590D02*
X73784419Y-76582590D01*
X73784419Y-76582590D02*
X73927276Y-76677828D01*
X73927276Y-76677828D02*
X74022514Y-76773066D01*
X74022514Y-76773066D02*
X74070133Y-76868304D01*
X74784419Y-75344495D02*
X74784419Y-75915923D01*
X74784419Y-75630209D02*
X73784419Y-75630209D01*
X73784419Y-75630209D02*
X73927276Y-75725447D01*
X73927276Y-75725447D02*
X74022514Y-75820685D01*
X74022514Y-75820685D02*
X74070133Y-75915923D01*
X70825495Y-110767019D02*
X70825495Y-109767019D01*
X70825495Y-110243209D02*
X71396923Y-110243209D01*
X71396923Y-110767019D02*
X71396923Y-109767019D01*
X71825495Y-109862257D02*
X71873114Y-109814638D01*
X71873114Y-109814638D02*
X71968352Y-109767019D01*
X71968352Y-109767019D02*
X72206447Y-109767019D01*
X72206447Y-109767019D02*
X72301685Y-109814638D01*
X72301685Y-109814638D02*
X72349304Y-109862257D01*
X72349304Y-109862257D02*
X72396923Y-109957495D01*
X72396923Y-109957495D02*
X72396923Y-110052733D01*
X72396923Y-110052733D02*
X72349304Y-110195590D01*
X72349304Y-110195590D02*
X71777876Y-110767019D01*
X71777876Y-110767019D02*
X72396923Y-110767019D01*
X130694223Y-103530794D02*
X129694129Y-103530794D01*
X130694223Y-102959312D02*
X130122741Y-103387923D01*
X129694129Y-102959312D02*
X130265611Y-103530794D01*
X130027494Y-102102088D02*
X130694223Y-102102088D01*
X129646506Y-102340206D02*
X130360858Y-102578323D01*
X130360858Y-102578323D02*
X130360858Y-101959218D01*
X112197423Y-103608394D02*
X111197329Y-103608394D01*
X112197423Y-103036912D02*
X111625941Y-103465523D01*
X111197329Y-103036912D02*
X111768811Y-103608394D01*
X111197329Y-102703547D02*
X111197329Y-102084441D01*
X111197329Y-102084441D02*
X111578317Y-102417806D01*
X111578317Y-102417806D02*
X111578317Y-102274935D01*
X111578317Y-102274935D02*
X111625941Y-102179688D01*
X111625941Y-102179688D02*
X111673564Y-102132065D01*
X111673564Y-102132065D02*
X111768811Y-102084441D01*
X111768811Y-102084441D02*
X112006929Y-102084441D01*
X112006929Y-102084441D02*
X112102176Y-102132065D01*
X112102176Y-102132065D02*
X112149800Y-102179688D01*
X112149800Y-102179688D02*
X112197423Y-102274935D01*
X112197423Y-102274935D02*
X112197423Y-102560676D01*
X112197423Y-102560676D02*
X112149800Y-102655923D01*
X112149800Y-102655923D02*
X112102176Y-102703547D01*
X159833066Y-111164019D02*
X159833066Y-111878304D01*
X159833066Y-111878304D02*
X159785447Y-112021161D01*
X159785447Y-112021161D02*
X159690209Y-112116400D01*
X159690209Y-112116400D02*
X159547352Y-112164019D01*
X159547352Y-112164019D02*
X159452114Y-112164019D01*
X160452114Y-111592590D02*
X160356876Y-111544971D01*
X160356876Y-111544971D02*
X160309257Y-111497352D01*
X160309257Y-111497352D02*
X160261638Y-111402114D01*
X160261638Y-111402114D02*
X160261638Y-111354495D01*
X160261638Y-111354495D02*
X160309257Y-111259257D01*
X160309257Y-111259257D02*
X160356876Y-111211638D01*
X160356876Y-111211638D02*
X160452114Y-111164019D01*
X160452114Y-111164019D02*
X160642590Y-111164019D01*
X160642590Y-111164019D02*
X160737828Y-111211638D01*
X160737828Y-111211638D02*
X160785447Y-111259257D01*
X160785447Y-111259257D02*
X160833066Y-111354495D01*
X160833066Y-111354495D02*
X160833066Y-111402114D01*
X160833066Y-111402114D02*
X160785447Y-111497352D01*
X160785447Y-111497352D02*
X160737828Y-111544971D01*
X160737828Y-111544971D02*
X160642590Y-111592590D01*
X160642590Y-111592590D02*
X160452114Y-111592590D01*
X160452114Y-111592590D02*
X160356876Y-111640209D01*
X160356876Y-111640209D02*
X160309257Y-111687828D01*
X160309257Y-111687828D02*
X160261638Y-111783066D01*
X160261638Y-111783066D02*
X160261638Y-111973542D01*
X160261638Y-111973542D02*
X160309257Y-112068780D01*
X160309257Y-112068780D02*
X160356876Y-112116400D01*
X160356876Y-112116400D02*
X160452114Y-112164019D01*
X160452114Y-112164019D02*
X160642590Y-112164019D01*
X160642590Y-112164019D02*
X160737828Y-112116400D01*
X160737828Y-112116400D02*
X160785447Y-112068780D01*
X160785447Y-112068780D02*
X160833066Y-111973542D01*
X160833066Y-111973542D02*
X160833066Y-111783066D01*
X160833066Y-111783066D02*
X160785447Y-111687828D01*
X160785447Y-111687828D02*
X160737828Y-111640209D01*
X160737828Y-111640209D02*
X160642590Y-111592590D01*
D15*
X156910837Y-61077118D02*
X156910837Y-59807118D01*
X158241314Y-60956165D02*
X158180838Y-61016642D01*
X158180838Y-61016642D02*
X157999409Y-61077118D01*
X157999409Y-61077118D02*
X157878457Y-61077118D01*
X157878457Y-61077118D02*
X157697028Y-61016642D01*
X157697028Y-61016642D02*
X157576076Y-60895689D01*
X157576076Y-60895689D02*
X157515599Y-60774737D01*
X157515599Y-60774737D02*
X157455123Y-60532832D01*
X157455123Y-60532832D02*
X157455123Y-60351403D01*
X157455123Y-60351403D02*
X157515599Y-60109499D01*
X157515599Y-60109499D02*
X157576076Y-59988546D01*
X157576076Y-59988546D02*
X157697028Y-59867594D01*
X157697028Y-59867594D02*
X157878457Y-59807118D01*
X157878457Y-59807118D02*
X157999409Y-59807118D01*
X157999409Y-59807118D02*
X158180838Y-59867594D01*
X158180838Y-59867594D02*
X158241314Y-59928070D01*
X159450838Y-61077118D02*
X158725123Y-61077118D01*
X159087980Y-61077118D02*
X159087980Y-59807118D01*
X159087980Y-59807118D02*
X158967028Y-59988546D01*
X158967028Y-59988546D02*
X158846076Y-60109499D01*
X158846076Y-60109499D02*
X158725123Y-60169975D01*
D11*
X177214219Y-103244933D02*
X177928504Y-103244933D01*
X177928504Y-103244933D02*
X178071361Y-103292552D01*
X178071361Y-103292552D02*
X178166600Y-103387790D01*
X178166600Y-103387790D02*
X178214219Y-103530647D01*
X178214219Y-103530647D02*
X178214219Y-103625885D01*
X178214219Y-102721123D02*
X178214219Y-102530647D01*
X178214219Y-102530647D02*
X178166600Y-102435409D01*
X178166600Y-102435409D02*
X178118980Y-102387790D01*
X178118980Y-102387790D02*
X177976123Y-102292552D01*
X177976123Y-102292552D02*
X177785647Y-102244933D01*
X177785647Y-102244933D02*
X177404695Y-102244933D01*
X177404695Y-102244933D02*
X177309457Y-102292552D01*
X177309457Y-102292552D02*
X177261838Y-102340171D01*
X177261838Y-102340171D02*
X177214219Y-102435409D01*
X177214219Y-102435409D02*
X177214219Y-102625885D01*
X177214219Y-102625885D02*
X177261838Y-102721123D01*
X177261838Y-102721123D02*
X177309457Y-102768742D01*
X177309457Y-102768742D02*
X177404695Y-102816361D01*
X177404695Y-102816361D02*
X177642790Y-102816361D01*
X177642790Y-102816361D02*
X177738028Y-102768742D01*
X177738028Y-102768742D02*
X177785647Y-102721123D01*
X177785647Y-102721123D02*
X177833266Y-102625885D01*
X177833266Y-102625885D02*
X177833266Y-102435409D01*
X177833266Y-102435409D02*
X177785647Y-102340171D01*
X177785647Y-102340171D02*
X177738028Y-102292552D01*
X177738028Y-102292552D02*
X177642790Y-102244933D01*
X95994419Y-80250266D02*
X95518228Y-80583599D01*
X95994419Y-80821694D02*
X94994419Y-80821694D01*
X94994419Y-80821694D02*
X94994419Y-80440742D01*
X94994419Y-80440742D02*
X95042038Y-80345504D01*
X95042038Y-80345504D02*
X95089657Y-80297885D01*
X95089657Y-80297885D02*
X95184895Y-80250266D01*
X95184895Y-80250266D02*
X95327752Y-80250266D01*
X95327752Y-80250266D02*
X95422990Y-80297885D01*
X95422990Y-80297885D02*
X95470609Y-80345504D01*
X95470609Y-80345504D02*
X95518228Y-80440742D01*
X95518228Y-80440742D02*
X95518228Y-80821694D01*
X95089657Y-79869313D02*
X95042038Y-79821694D01*
X95042038Y-79821694D02*
X94994419Y-79726456D01*
X94994419Y-79726456D02*
X94994419Y-79488361D01*
X94994419Y-79488361D02*
X95042038Y-79393123D01*
X95042038Y-79393123D02*
X95089657Y-79345504D01*
X95089657Y-79345504D02*
X95184895Y-79297885D01*
X95184895Y-79297885D02*
X95280133Y-79297885D01*
X95280133Y-79297885D02*
X95422990Y-79345504D01*
X95422990Y-79345504D02*
X95994419Y-79916932D01*
X95994419Y-79916932D02*
X95994419Y-79297885D01*
X106198857Y-84118438D02*
X106151238Y-84213676D01*
X106151238Y-84213676D02*
X106056000Y-84308914D01*
X106056000Y-84308914D02*
X105913142Y-84451771D01*
X105913142Y-84451771D02*
X105865523Y-84547009D01*
X105865523Y-84547009D02*
X105865523Y-84642247D01*
X106103619Y-84594628D02*
X106056000Y-84689866D01*
X106056000Y-84689866D02*
X105960761Y-84785104D01*
X105960761Y-84785104D02*
X105770285Y-84832723D01*
X105770285Y-84832723D02*
X105436952Y-84832723D01*
X105436952Y-84832723D02*
X105246476Y-84785104D01*
X105246476Y-84785104D02*
X105151238Y-84689866D01*
X105151238Y-84689866D02*
X105103619Y-84594628D01*
X105103619Y-84594628D02*
X105103619Y-84404152D01*
X105103619Y-84404152D02*
X105151238Y-84308914D01*
X105151238Y-84308914D02*
X105246476Y-84213676D01*
X105246476Y-84213676D02*
X105436952Y-84166057D01*
X105436952Y-84166057D02*
X105770285Y-84166057D01*
X105770285Y-84166057D02*
X105960761Y-84213676D01*
X105960761Y-84213676D02*
X106056000Y-84308914D01*
X106056000Y-84308914D02*
X106103619Y-84404152D01*
X106103619Y-84404152D02*
X106103619Y-84594628D01*
X105198857Y-83785104D02*
X105151238Y-83737485D01*
X105151238Y-83737485D02*
X105103619Y-83642247D01*
X105103619Y-83642247D02*
X105103619Y-83404152D01*
X105103619Y-83404152D02*
X105151238Y-83308914D01*
X105151238Y-83308914D02*
X105198857Y-83261295D01*
X105198857Y-83261295D02*
X105294095Y-83213676D01*
X105294095Y-83213676D02*
X105389333Y-83213676D01*
X105389333Y-83213676D02*
X105532190Y-83261295D01*
X105532190Y-83261295D02*
X106103619Y-83832723D01*
X106103619Y-83832723D02*
X106103619Y-83213676D01*
X165667733Y-79159819D02*
X165334400Y-78683628D01*
X165096305Y-79159819D02*
X165096305Y-78159819D01*
X165096305Y-78159819D02*
X165477257Y-78159819D01*
X165477257Y-78159819D02*
X165572495Y-78207438D01*
X165572495Y-78207438D02*
X165620114Y-78255057D01*
X165620114Y-78255057D02*
X165667733Y-78350295D01*
X165667733Y-78350295D02*
X165667733Y-78493152D01*
X165667733Y-78493152D02*
X165620114Y-78588390D01*
X165620114Y-78588390D02*
X165572495Y-78636009D01*
X165572495Y-78636009D02*
X165477257Y-78683628D01*
X165477257Y-78683628D02*
X165096305Y-78683628D01*
X166143924Y-79159819D02*
X166334400Y-79159819D01*
X166334400Y-79159819D02*
X166429638Y-79112200D01*
X166429638Y-79112200D02*
X166477257Y-79064580D01*
X166477257Y-79064580D02*
X166572495Y-78921723D01*
X166572495Y-78921723D02*
X166620114Y-78731247D01*
X166620114Y-78731247D02*
X166620114Y-78350295D01*
X166620114Y-78350295D02*
X166572495Y-78255057D01*
X166572495Y-78255057D02*
X166524876Y-78207438D01*
X166524876Y-78207438D02*
X166429638Y-78159819D01*
X166429638Y-78159819D02*
X166239162Y-78159819D01*
X166239162Y-78159819D02*
X166143924Y-78207438D01*
X166143924Y-78207438D02*
X166096305Y-78255057D01*
X166096305Y-78255057D02*
X166048686Y-78350295D01*
X166048686Y-78350295D02*
X166048686Y-78588390D01*
X166048686Y-78588390D02*
X166096305Y-78683628D01*
X166096305Y-78683628D02*
X166143924Y-78731247D01*
X166143924Y-78731247D02*
X166239162Y-78778866D01*
X166239162Y-78778866D02*
X166429638Y-78778866D01*
X166429638Y-78778866D02*
X166524876Y-78731247D01*
X166524876Y-78731247D02*
X166572495Y-78683628D01*
X166572495Y-78683628D02*
X166620114Y-78588390D01*
X93737223Y-103581594D02*
X92737129Y-103581594D01*
X93737223Y-103010112D02*
X93165741Y-103438723D01*
X92737129Y-103010112D02*
X93308611Y-103581594D01*
X92832376Y-102629123D02*
X92784753Y-102581500D01*
X92784753Y-102581500D02*
X92737129Y-102486253D01*
X92737129Y-102486253D02*
X92737129Y-102248135D01*
X92737129Y-102248135D02*
X92784753Y-102152888D01*
X92784753Y-102152888D02*
X92832376Y-102105265D01*
X92832376Y-102105265D02*
X92927623Y-102057641D01*
X92927623Y-102057641D02*
X93022870Y-102057641D01*
X93022870Y-102057641D02*
X93165741Y-102105265D01*
X93165741Y-102105265D02*
X93737223Y-102676747D01*
X93737223Y-102676747D02*
X93737223Y-102057641D01*
X174127295Y-114627819D02*
X174127295Y-113627819D01*
X174127295Y-114104009D02*
X174698723Y-114104009D01*
X174698723Y-114627819D02*
X174698723Y-113627819D01*
X175603485Y-113961152D02*
X175603485Y-114627819D01*
X175365390Y-113580200D02*
X175127295Y-114294485D01*
X175127295Y-114294485D02*
X175746342Y-114294485D01*
X76408771Y-47073409D02*
X76075438Y-47073409D01*
X76075438Y-47597219D02*
X76075438Y-46597219D01*
X76075438Y-46597219D02*
X76551628Y-46597219D01*
X76932581Y-47597219D02*
X76932581Y-46597219D01*
X77408771Y-47597219D02*
X77408771Y-46597219D01*
X77408771Y-46597219D02*
X77646866Y-46597219D01*
X77646866Y-46597219D02*
X77789723Y-46644838D01*
X77789723Y-46644838D02*
X77884961Y-46740076D01*
X77884961Y-46740076D02*
X77932580Y-46835314D01*
X77932580Y-46835314D02*
X77980199Y-47025790D01*
X77980199Y-47025790D02*
X77980199Y-47168647D01*
X77980199Y-47168647D02*
X77932580Y-47359123D01*
X77932580Y-47359123D02*
X77884961Y-47454361D01*
X77884961Y-47454361D02*
X77789723Y-47549600D01*
X77789723Y-47549600D02*
X77646866Y-47597219D01*
X77646866Y-47597219D02*
X77408771Y-47597219D01*
X78932580Y-47597219D02*
X78361152Y-47597219D01*
X78646866Y-47597219D02*
X78646866Y-46597219D01*
X78646866Y-46597219D02*
X78551628Y-46740076D01*
X78551628Y-46740076D02*
X78456390Y-46835314D01*
X78456390Y-46835314D02*
X78361152Y-46882933D01*
X73416295Y-47419419D02*
X73416295Y-46419419D01*
X73416295Y-46895609D02*
X73987723Y-46895609D01*
X73987723Y-47419419D02*
X73987723Y-46419419D01*
X74987723Y-47419419D02*
X74416295Y-47419419D01*
X74702009Y-47419419D02*
X74702009Y-46419419D01*
X74702009Y-46419419D02*
X74606771Y-46562276D01*
X74606771Y-46562276D02*
X74511533Y-46657514D01*
X74511533Y-46657514D02*
X74416295Y-46705133D01*
X84151666Y-112967419D02*
X84151666Y-113681704D01*
X84151666Y-113681704D02*
X84104047Y-113824561D01*
X84104047Y-113824561D02*
X84008809Y-113919800D01*
X84008809Y-113919800D02*
X83865952Y-113967419D01*
X83865952Y-113967419D02*
X83770714Y-113967419D01*
X84580238Y-113062657D02*
X84627857Y-113015038D01*
X84627857Y-113015038D02*
X84723095Y-112967419D01*
X84723095Y-112967419D02*
X84961190Y-112967419D01*
X84961190Y-112967419D02*
X85056428Y-113015038D01*
X85056428Y-113015038D02*
X85104047Y-113062657D01*
X85104047Y-113062657D02*
X85151666Y-113157895D01*
X85151666Y-113157895D02*
X85151666Y-113253133D01*
X85151666Y-113253133D02*
X85104047Y-113395990D01*
X85104047Y-113395990D02*
X84532619Y-113967419D01*
X84532619Y-113967419D02*
X85151666Y-113967419D01*
X89282457Y-84118438D02*
X89234838Y-84213676D01*
X89234838Y-84213676D02*
X89139600Y-84308914D01*
X89139600Y-84308914D02*
X88996742Y-84451771D01*
X88996742Y-84451771D02*
X88949123Y-84547009D01*
X88949123Y-84547009D02*
X88949123Y-84642247D01*
X89187219Y-84594628D02*
X89139600Y-84689866D01*
X89139600Y-84689866D02*
X89044361Y-84785104D01*
X89044361Y-84785104D02*
X88853885Y-84832723D01*
X88853885Y-84832723D02*
X88520552Y-84832723D01*
X88520552Y-84832723D02*
X88330076Y-84785104D01*
X88330076Y-84785104D02*
X88234838Y-84689866D01*
X88234838Y-84689866D02*
X88187219Y-84594628D01*
X88187219Y-84594628D02*
X88187219Y-84404152D01*
X88187219Y-84404152D02*
X88234838Y-84308914D01*
X88234838Y-84308914D02*
X88330076Y-84213676D01*
X88330076Y-84213676D02*
X88520552Y-84166057D01*
X88520552Y-84166057D02*
X88853885Y-84166057D01*
X88853885Y-84166057D02*
X89044361Y-84213676D01*
X89044361Y-84213676D02*
X89139600Y-84308914D01*
X89139600Y-84308914D02*
X89187219Y-84404152D01*
X89187219Y-84404152D02*
X89187219Y-84594628D01*
X89187219Y-83213676D02*
X89187219Y-83785104D01*
X89187219Y-83499390D02*
X88187219Y-83499390D01*
X88187219Y-83499390D02*
X88330076Y-83594628D01*
X88330076Y-83594628D02*
X88425314Y-83689866D01*
X88425314Y-83689866D02*
X88472933Y-83785104D01*
X79053505Y-86281419D02*
X79053505Y-85281419D01*
X79053505Y-85281419D02*
X79291600Y-85281419D01*
X79291600Y-85281419D02*
X79434457Y-85329038D01*
X79434457Y-85329038D02*
X79529695Y-85424276D01*
X79529695Y-85424276D02*
X79577314Y-85519514D01*
X79577314Y-85519514D02*
X79624933Y-85709990D01*
X79624933Y-85709990D02*
X79624933Y-85852847D01*
X79624933Y-85852847D02*
X79577314Y-86043323D01*
X79577314Y-86043323D02*
X79529695Y-86138561D01*
X79529695Y-86138561D02*
X79434457Y-86233800D01*
X79434457Y-86233800D02*
X79291600Y-86281419D01*
X79291600Y-86281419D02*
X79053505Y-86281419D01*
X80529695Y-85281419D02*
X80053505Y-85281419D01*
X80053505Y-85281419D02*
X80005886Y-85757609D01*
X80005886Y-85757609D02*
X80053505Y-85709990D01*
X80053505Y-85709990D02*
X80148743Y-85662371D01*
X80148743Y-85662371D02*
X80386838Y-85662371D01*
X80386838Y-85662371D02*
X80482076Y-85709990D01*
X80482076Y-85709990D02*
X80529695Y-85757609D01*
X80529695Y-85757609D02*
X80577314Y-85852847D01*
X80577314Y-85852847D02*
X80577314Y-86090942D01*
X80577314Y-86090942D02*
X80529695Y-86186180D01*
X80529695Y-86186180D02*
X80482076Y-86233800D01*
X80482076Y-86233800D02*
X80386838Y-86281419D01*
X80386838Y-86281419D02*
X80148743Y-86281419D01*
X80148743Y-86281419D02*
X80053505Y-86233800D01*
X80053505Y-86233800D02*
X80005886Y-86186180D01*
X79282219Y-80924366D02*
X78806028Y-81257699D01*
X79282219Y-81495794D02*
X78282219Y-81495794D01*
X78282219Y-81495794D02*
X78282219Y-81114842D01*
X78282219Y-81114842D02*
X78329838Y-81019604D01*
X78329838Y-81019604D02*
X78377457Y-80971985D01*
X78377457Y-80971985D02*
X78472695Y-80924366D01*
X78472695Y-80924366D02*
X78615552Y-80924366D01*
X78615552Y-80924366D02*
X78710790Y-80971985D01*
X78710790Y-80971985D02*
X78758409Y-81019604D01*
X78758409Y-81019604D02*
X78806028Y-81114842D01*
X78806028Y-81114842D02*
X78806028Y-81495794D01*
X79282219Y-79971985D02*
X79282219Y-80543413D01*
X79282219Y-80257699D02*
X78282219Y-80257699D01*
X78282219Y-80257699D02*
X78425076Y-80352937D01*
X78425076Y-80352937D02*
X78520314Y-80448175D01*
X78520314Y-80448175D02*
X78567933Y-80543413D01*
X114232505Y-86154419D02*
X114232505Y-85154419D01*
X114232505Y-85154419D02*
X114470600Y-85154419D01*
X114470600Y-85154419D02*
X114613457Y-85202038D01*
X114613457Y-85202038D02*
X114708695Y-85297276D01*
X114708695Y-85297276D02*
X114756314Y-85392514D01*
X114756314Y-85392514D02*
X114803933Y-85582990D01*
X114803933Y-85582990D02*
X114803933Y-85725847D01*
X114803933Y-85725847D02*
X114756314Y-85916323D01*
X114756314Y-85916323D02*
X114708695Y-86011561D01*
X114708695Y-86011561D02*
X114613457Y-86106800D01*
X114613457Y-86106800D02*
X114470600Y-86154419D01*
X114470600Y-86154419D02*
X114232505Y-86154419D01*
X115137267Y-85154419D02*
X115803933Y-85154419D01*
X115803933Y-85154419D02*
X115375362Y-86154419D01*
X68603819Y-61318733D02*
X69318104Y-61318733D01*
X69318104Y-61318733D02*
X69460961Y-61366352D01*
X69460961Y-61366352D02*
X69556200Y-61461590D01*
X69556200Y-61461590D02*
X69603819Y-61604447D01*
X69603819Y-61604447D02*
X69603819Y-61699685D01*
X69603819Y-60318733D02*
X69603819Y-60890161D01*
X69603819Y-60604447D02*
X68603819Y-60604447D01*
X68603819Y-60604447D02*
X68746676Y-60699685D01*
X68746676Y-60699685D02*
X68841914Y-60794923D01*
X68841914Y-60794923D02*
X68889533Y-60890161D01*
X117229705Y-78661419D02*
X117229705Y-77661419D01*
X117229705Y-77661419D02*
X117467800Y-77661419D01*
X117467800Y-77661419D02*
X117610657Y-77709038D01*
X117610657Y-77709038D02*
X117705895Y-77804276D01*
X117705895Y-77804276D02*
X117753514Y-77899514D01*
X117753514Y-77899514D02*
X117801133Y-78089990D01*
X117801133Y-78089990D02*
X117801133Y-78232847D01*
X117801133Y-78232847D02*
X117753514Y-78423323D01*
X117753514Y-78423323D02*
X117705895Y-78518561D01*
X117705895Y-78518561D02*
X117610657Y-78613800D01*
X117610657Y-78613800D02*
X117467800Y-78661419D01*
X117467800Y-78661419D02*
X117229705Y-78661419D01*
X118134467Y-77661419D02*
X118753514Y-77661419D01*
X118753514Y-77661419D02*
X118420181Y-78042371D01*
X118420181Y-78042371D02*
X118563038Y-78042371D01*
X118563038Y-78042371D02*
X118658276Y-78089990D01*
X118658276Y-78089990D02*
X118705895Y-78137609D01*
X118705895Y-78137609D02*
X118753514Y-78232847D01*
X118753514Y-78232847D02*
X118753514Y-78470942D01*
X118753514Y-78470942D02*
X118705895Y-78566180D01*
X118705895Y-78566180D02*
X118658276Y-78613800D01*
X118658276Y-78613800D02*
X118563038Y-78661419D01*
X118563038Y-78661419D02*
X118277324Y-78661419D01*
X118277324Y-78661419D02*
X118182086Y-78613800D01*
X118182086Y-78613800D02*
X118134467Y-78566180D01*
X101657866Y-113424619D02*
X101657866Y-114138904D01*
X101657866Y-114138904D02*
X101610247Y-114281761D01*
X101610247Y-114281761D02*
X101515009Y-114377000D01*
X101515009Y-114377000D02*
X101372152Y-114424619D01*
X101372152Y-114424619D02*
X101276914Y-114424619D01*
X102038819Y-113424619D02*
X102657866Y-113424619D01*
X102657866Y-113424619D02*
X102324533Y-113805571D01*
X102324533Y-113805571D02*
X102467390Y-113805571D01*
X102467390Y-113805571D02*
X102562628Y-113853190D01*
X102562628Y-113853190D02*
X102610247Y-113900809D01*
X102610247Y-113900809D02*
X102657866Y-113996047D01*
X102657866Y-113996047D02*
X102657866Y-114234142D01*
X102657866Y-114234142D02*
X102610247Y-114329380D01*
X102610247Y-114329380D02*
X102562628Y-114377000D01*
X102562628Y-114377000D02*
X102467390Y-114424619D01*
X102467390Y-114424619D02*
X102181676Y-114424619D01*
X102181676Y-114424619D02*
X102086438Y-114377000D01*
X102086438Y-114377000D02*
X102038819Y-114329380D01*
X177265019Y-83051933D02*
X177979304Y-83051933D01*
X177979304Y-83051933D02*
X178122161Y-83099552D01*
X178122161Y-83099552D02*
X178217400Y-83194790D01*
X178217400Y-83194790D02*
X178265019Y-83337647D01*
X178265019Y-83337647D02*
X178265019Y-83432885D01*
X177265019Y-82670980D02*
X177265019Y-82004314D01*
X177265019Y-82004314D02*
X178265019Y-82432885D01*
X82253905Y-78813819D02*
X82253905Y-77813819D01*
X82253905Y-77813819D02*
X82492000Y-77813819D01*
X82492000Y-77813819D02*
X82634857Y-77861438D01*
X82634857Y-77861438D02*
X82730095Y-77956676D01*
X82730095Y-77956676D02*
X82777714Y-78051914D01*
X82777714Y-78051914D02*
X82825333Y-78242390D01*
X82825333Y-78242390D02*
X82825333Y-78385247D01*
X82825333Y-78385247D02*
X82777714Y-78575723D01*
X82777714Y-78575723D02*
X82730095Y-78670961D01*
X82730095Y-78670961D02*
X82634857Y-78766200D01*
X82634857Y-78766200D02*
X82492000Y-78813819D01*
X82492000Y-78813819D02*
X82253905Y-78813819D01*
X83777714Y-78813819D02*
X83206286Y-78813819D01*
X83492000Y-78813819D02*
X83492000Y-77813819D01*
X83492000Y-77813819D02*
X83396762Y-77956676D01*
X83396762Y-77956676D02*
X83301524Y-78051914D01*
X83301524Y-78051914D02*
X83206286Y-78099533D01*
X95868305Y-85692119D02*
X95868305Y-84692119D01*
X95868305Y-84692119D02*
X96106400Y-84692119D01*
X96106400Y-84692119D02*
X96249257Y-84739738D01*
X96249257Y-84739738D02*
X96344495Y-84834976D01*
X96344495Y-84834976D02*
X96392114Y-84930214D01*
X96392114Y-84930214D02*
X96439733Y-85120690D01*
X96439733Y-85120690D02*
X96439733Y-85263547D01*
X96439733Y-85263547D02*
X96392114Y-85454023D01*
X96392114Y-85454023D02*
X96344495Y-85549261D01*
X96344495Y-85549261D02*
X96249257Y-85644500D01*
X96249257Y-85644500D02*
X96106400Y-85692119D01*
X96106400Y-85692119D02*
X95868305Y-85692119D01*
X97296876Y-84692119D02*
X97106400Y-84692119D01*
X97106400Y-84692119D02*
X97011162Y-84739738D01*
X97011162Y-84739738D02*
X96963543Y-84787357D01*
X96963543Y-84787357D02*
X96868305Y-84930214D01*
X96868305Y-84930214D02*
X96820686Y-85120690D01*
X96820686Y-85120690D02*
X96820686Y-85501642D01*
X96820686Y-85501642D02*
X96868305Y-85596880D01*
X96868305Y-85596880D02*
X96915924Y-85644500D01*
X96915924Y-85644500D02*
X97011162Y-85692119D01*
X97011162Y-85692119D02*
X97201638Y-85692119D01*
X97201638Y-85692119D02*
X97296876Y-85644500D01*
X97296876Y-85644500D02*
X97344495Y-85596880D01*
X97344495Y-85596880D02*
X97392114Y-85501642D01*
X97392114Y-85501642D02*
X97392114Y-85263547D01*
X97392114Y-85263547D02*
X97344495Y-85168309D01*
X97344495Y-85168309D02*
X97296876Y-85120690D01*
X97296876Y-85120690D02*
X97201638Y-85073071D01*
X97201638Y-85073071D02*
X97011162Y-85073071D01*
X97011162Y-85073071D02*
X96915924Y-85120690D01*
X96915924Y-85120690D02*
X96868305Y-85168309D01*
X96868305Y-85168309D02*
X96820686Y-85263547D01*
X180832895Y-54048819D02*
X180832895Y-53048819D01*
X180832895Y-53525009D02*
X181404323Y-53525009D01*
X181404323Y-54048819D02*
X181404323Y-53048819D01*
X181785276Y-53048819D02*
X182404323Y-53048819D01*
X182404323Y-53048819D02*
X182070990Y-53429771D01*
X182070990Y-53429771D02*
X182213847Y-53429771D01*
X182213847Y-53429771D02*
X182309085Y-53477390D01*
X182309085Y-53477390D02*
X182356704Y-53525009D01*
X182356704Y-53525009D02*
X182404323Y-53620247D01*
X182404323Y-53620247D02*
X182404323Y-53858342D01*
X182404323Y-53858342D02*
X182356704Y-53953580D01*
X182356704Y-53953580D02*
X182309085Y-54001200D01*
X182309085Y-54001200D02*
X182213847Y-54048819D01*
X182213847Y-54048819D02*
X181928133Y-54048819D01*
X181928133Y-54048819D02*
X181832895Y-54001200D01*
X181832895Y-54001200D02*
X181785276Y-53953580D01*
X138868866Y-113373819D02*
X138868866Y-114088104D01*
X138868866Y-114088104D02*
X138821247Y-114230961D01*
X138821247Y-114230961D02*
X138726009Y-114326200D01*
X138726009Y-114326200D02*
X138583152Y-114373819D01*
X138583152Y-114373819D02*
X138487914Y-114373819D01*
X139821247Y-113373819D02*
X139345057Y-113373819D01*
X139345057Y-113373819D02*
X139297438Y-113850009D01*
X139297438Y-113850009D02*
X139345057Y-113802390D01*
X139345057Y-113802390D02*
X139440295Y-113754771D01*
X139440295Y-113754771D02*
X139678390Y-113754771D01*
X139678390Y-113754771D02*
X139773628Y-113802390D01*
X139773628Y-113802390D02*
X139821247Y-113850009D01*
X139821247Y-113850009D02*
X139868866Y-113945247D01*
X139868866Y-113945247D02*
X139868866Y-114183342D01*
X139868866Y-114183342D02*
X139821247Y-114278580D01*
X139821247Y-114278580D02*
X139773628Y-114326200D01*
X139773628Y-114326200D02*
X139678390Y-114373819D01*
X139678390Y-114373819D02*
X139440295Y-114373819D01*
X139440295Y-114373819D02*
X139345057Y-114326200D01*
X139345057Y-114326200D02*
X139297438Y-114278580D01*
X89365019Y-80532266D02*
X88888828Y-80865599D01*
X89365019Y-81103694D02*
X88365019Y-81103694D01*
X88365019Y-81103694D02*
X88365019Y-80722742D01*
X88365019Y-80722742D02*
X88412638Y-80627504D01*
X88412638Y-80627504D02*
X88460257Y-80579885D01*
X88460257Y-80579885D02*
X88555495Y-80532266D01*
X88555495Y-80532266D02*
X88698352Y-80532266D01*
X88698352Y-80532266D02*
X88793590Y-80579885D01*
X88793590Y-80579885D02*
X88841209Y-80627504D01*
X88841209Y-80627504D02*
X88888828Y-80722742D01*
X88888828Y-80722742D02*
X88888828Y-81103694D01*
X88365019Y-79627504D02*
X88365019Y-80103694D01*
X88365019Y-80103694D02*
X88841209Y-80151313D01*
X88841209Y-80151313D02*
X88793590Y-80103694D01*
X88793590Y-80103694D02*
X88745971Y-80008456D01*
X88745971Y-80008456D02*
X88745971Y-79770361D01*
X88745971Y-79770361D02*
X88793590Y-79675123D01*
X88793590Y-79675123D02*
X88841209Y-79627504D01*
X88841209Y-79627504D02*
X88936447Y-79579885D01*
X88936447Y-79579885D02*
X89174542Y-79579885D01*
X89174542Y-79579885D02*
X89269780Y-79627504D01*
X89269780Y-79627504D02*
X89317400Y-79675123D01*
X89317400Y-79675123D02*
X89365019Y-79770361D01*
X89365019Y-79770361D02*
X89365019Y-80008456D01*
X89365019Y-80008456D02*
X89317400Y-80103694D01*
X89317400Y-80103694D02*
X89269780Y-80151313D01*
X145798342Y-79626619D02*
X145465009Y-79150428D01*
X145226914Y-79626619D02*
X145226914Y-78626619D01*
X145226914Y-78626619D02*
X145607866Y-78626619D01*
X145607866Y-78626619D02*
X145703104Y-78674238D01*
X145703104Y-78674238D02*
X145750723Y-78721857D01*
X145750723Y-78721857D02*
X145798342Y-78817095D01*
X145798342Y-78817095D02*
X145798342Y-78959952D01*
X145798342Y-78959952D02*
X145750723Y-79055190D01*
X145750723Y-79055190D02*
X145703104Y-79102809D01*
X145703104Y-79102809D02*
X145607866Y-79150428D01*
X145607866Y-79150428D02*
X145226914Y-79150428D01*
X146750723Y-79626619D02*
X146179295Y-79626619D01*
X146465009Y-79626619D02*
X146465009Y-78626619D01*
X146465009Y-78626619D02*
X146369771Y-78769476D01*
X146369771Y-78769476D02*
X146274533Y-78864714D01*
X146274533Y-78864714D02*
X146179295Y-78912333D01*
X147369771Y-78626619D02*
X147465009Y-78626619D01*
X147465009Y-78626619D02*
X147560247Y-78674238D01*
X147560247Y-78674238D02*
X147607866Y-78721857D01*
X147607866Y-78721857D02*
X147655485Y-78817095D01*
X147655485Y-78817095D02*
X147703104Y-79007571D01*
X147703104Y-79007571D02*
X147703104Y-79245666D01*
X147703104Y-79245666D02*
X147655485Y-79436142D01*
X147655485Y-79436142D02*
X147607866Y-79531380D01*
X147607866Y-79531380D02*
X147560247Y-79579000D01*
X147560247Y-79579000D02*
X147465009Y-79626619D01*
X147465009Y-79626619D02*
X147369771Y-79626619D01*
X147369771Y-79626619D02*
X147274533Y-79579000D01*
X147274533Y-79579000D02*
X147226914Y-79531380D01*
X147226914Y-79531380D02*
X147179295Y-79436142D01*
X147179295Y-79436142D02*
X147131676Y-79245666D01*
X147131676Y-79245666D02*
X147131676Y-79007571D01*
X147131676Y-79007571D02*
X147179295Y-78817095D01*
X147179295Y-78817095D02*
X147226914Y-78721857D01*
X147226914Y-78721857D02*
X147274533Y-78674238D01*
X147274533Y-78674238D02*
X147369771Y-78626619D01*
X174521819Y-54155933D02*
X175236104Y-54155933D01*
X175236104Y-54155933D02*
X175378961Y-54203552D01*
X175378961Y-54203552D02*
X175474200Y-54298790D01*
X175474200Y-54298790D02*
X175521819Y-54441647D01*
X175521819Y-54441647D02*
X175521819Y-54536885D01*
X174521819Y-53251171D02*
X174521819Y-53441647D01*
X174521819Y-53441647D02*
X174569438Y-53536885D01*
X174569438Y-53536885D02*
X174617057Y-53584504D01*
X174617057Y-53584504D02*
X174759914Y-53679742D01*
X174759914Y-53679742D02*
X174950390Y-53727361D01*
X174950390Y-53727361D02*
X175331342Y-53727361D01*
X175331342Y-53727361D02*
X175426580Y-53679742D01*
X175426580Y-53679742D02*
X175474200Y-53632123D01*
X175474200Y-53632123D02*
X175521819Y-53536885D01*
X175521819Y-53536885D02*
X175521819Y-53346409D01*
X175521819Y-53346409D02*
X175474200Y-53251171D01*
X175474200Y-53251171D02*
X175426580Y-53203552D01*
X175426580Y-53203552D02*
X175331342Y-53155933D01*
X175331342Y-53155933D02*
X175093247Y-53155933D01*
X175093247Y-53155933D02*
X174998009Y-53203552D01*
X174998009Y-53203552D02*
X174950390Y-53251171D01*
X174950390Y-53251171D02*
X174902771Y-53346409D01*
X174902771Y-53346409D02*
X174902771Y-53536885D01*
X174902771Y-53536885D02*
X174950390Y-53632123D01*
X174950390Y-53632123D02*
X174998009Y-53679742D01*
X174998009Y-53679742D02*
X175093247Y-53727361D01*
X177417419Y-64360323D02*
X178131704Y-64360323D01*
X178131704Y-64360323D02*
X178274561Y-64407942D01*
X178274561Y-64407942D02*
X178369800Y-64503180D01*
X178369800Y-64503180D02*
X178417419Y-64646037D01*
X178417419Y-64646037D02*
X178417419Y-64741275D01*
X178417419Y-63360323D02*
X178417419Y-63931751D01*
X178417419Y-63646037D02*
X177417419Y-63646037D01*
X177417419Y-63646037D02*
X177560276Y-63741275D01*
X177560276Y-63741275D02*
X177655514Y-63836513D01*
X177655514Y-63836513D02*
X177703133Y-63931751D01*
X177417419Y-62741275D02*
X177417419Y-62646037D01*
X177417419Y-62646037D02*
X177465038Y-62550799D01*
X177465038Y-62550799D02*
X177512657Y-62503180D01*
X177512657Y-62503180D02*
X177607895Y-62455561D01*
X177607895Y-62455561D02*
X177798371Y-62407942D01*
X177798371Y-62407942D02*
X178036466Y-62407942D01*
X178036466Y-62407942D02*
X178226942Y-62455561D01*
X178226942Y-62455561D02*
X178322180Y-62503180D01*
X178322180Y-62503180D02*
X178369800Y-62550799D01*
X178369800Y-62550799D02*
X178417419Y-62646037D01*
X178417419Y-62646037D02*
X178417419Y-62741275D01*
X178417419Y-62741275D02*
X178369800Y-62836513D01*
X178369800Y-62836513D02*
X178322180Y-62884132D01*
X178322180Y-62884132D02*
X178226942Y-62931751D01*
X178226942Y-62931751D02*
X178036466Y-62979370D01*
X178036466Y-62979370D02*
X177798371Y-62979370D01*
X177798371Y-62979370D02*
X177607895Y-62931751D01*
X177607895Y-62931751D02*
X177512657Y-62884132D01*
X177512657Y-62884132D02*
X177465038Y-62836513D01*
X177465038Y-62836513D02*
X177417419Y-62741275D01*
X132547495Y-58251619D02*
X132547495Y-59061142D01*
X132547495Y-59061142D02*
X132595114Y-59156380D01*
X132595114Y-59156380D02*
X132642733Y-59204000D01*
X132642733Y-59204000D02*
X132737971Y-59251619D01*
X132737971Y-59251619D02*
X132928447Y-59251619D01*
X132928447Y-59251619D02*
X133023685Y-59204000D01*
X133023685Y-59204000D02*
X133071304Y-59156380D01*
X133071304Y-59156380D02*
X133118923Y-59061142D01*
X133118923Y-59061142D02*
X133118923Y-58251619D01*
X134118923Y-59251619D02*
X133547495Y-59251619D01*
X133833209Y-59251619D02*
X133833209Y-58251619D01*
X133833209Y-58251619D02*
X133737971Y-58394476D01*
X133737971Y-58394476D02*
X133642733Y-58489714D01*
X133642733Y-58489714D02*
X133547495Y-58537333D01*
X71339819Y-81870594D02*
X70339819Y-81870594D01*
X70339819Y-81870594D02*
X70339819Y-81632499D01*
X70339819Y-81632499D02*
X70387438Y-81489642D01*
X70387438Y-81489642D02*
X70482676Y-81394404D01*
X70482676Y-81394404D02*
X70577914Y-81346785D01*
X70577914Y-81346785D02*
X70768390Y-81299166D01*
X70768390Y-81299166D02*
X70911247Y-81299166D01*
X70911247Y-81299166D02*
X71101723Y-81346785D01*
X71101723Y-81346785D02*
X71196961Y-81394404D01*
X71196961Y-81394404D02*
X71292200Y-81489642D01*
X71292200Y-81489642D02*
X71339819Y-81632499D01*
X71339819Y-81632499D02*
X71339819Y-81870594D01*
X71339819Y-80822975D02*
X71339819Y-80632499D01*
X71339819Y-80632499D02*
X71292200Y-80537261D01*
X71292200Y-80537261D02*
X71244580Y-80489642D01*
X71244580Y-80489642D02*
X71101723Y-80394404D01*
X71101723Y-80394404D02*
X70911247Y-80346785D01*
X70911247Y-80346785D02*
X70530295Y-80346785D01*
X70530295Y-80346785D02*
X70435057Y-80394404D01*
X70435057Y-80394404D02*
X70387438Y-80442023D01*
X70387438Y-80442023D02*
X70339819Y-80537261D01*
X70339819Y-80537261D02*
X70339819Y-80727737D01*
X70339819Y-80727737D02*
X70387438Y-80822975D01*
X70387438Y-80822975D02*
X70435057Y-80870594D01*
X70435057Y-80870594D02*
X70530295Y-80918213D01*
X70530295Y-80918213D02*
X70768390Y-80918213D01*
X70768390Y-80918213D02*
X70863628Y-80870594D01*
X70863628Y-80870594D02*
X70911247Y-80822975D01*
X70911247Y-80822975D02*
X70958866Y-80727737D01*
X70958866Y-80727737D02*
X70958866Y-80537261D01*
X70958866Y-80537261D02*
X70911247Y-80442023D01*
X70911247Y-80442023D02*
X70863628Y-80394404D01*
X70863628Y-80394404D02*
X70768390Y-80346785D01*
X137168705Y-78737619D02*
X137168705Y-77737619D01*
X137168705Y-77737619D02*
X137406800Y-77737619D01*
X137406800Y-77737619D02*
X137549657Y-77785238D01*
X137549657Y-77785238D02*
X137644895Y-77880476D01*
X137644895Y-77880476D02*
X137692514Y-77975714D01*
X137692514Y-77975714D02*
X137740133Y-78166190D01*
X137740133Y-78166190D02*
X137740133Y-78309047D01*
X137740133Y-78309047D02*
X137692514Y-78499523D01*
X137692514Y-78499523D02*
X137644895Y-78594761D01*
X137644895Y-78594761D02*
X137549657Y-78690000D01*
X137549657Y-78690000D02*
X137406800Y-78737619D01*
X137406800Y-78737619D02*
X137168705Y-78737619D01*
X138597276Y-78070952D02*
X138597276Y-78737619D01*
X138359181Y-77690000D02*
X138121086Y-78404285D01*
X138121086Y-78404285D02*
X138740133Y-78404285D01*
X104997633Y-79448819D02*
X104664300Y-78972628D01*
X104426205Y-79448819D02*
X104426205Y-78448819D01*
X104426205Y-78448819D02*
X104807157Y-78448819D01*
X104807157Y-78448819D02*
X104902395Y-78496438D01*
X104902395Y-78496438D02*
X104950014Y-78544057D01*
X104950014Y-78544057D02*
X104997633Y-78639295D01*
X104997633Y-78639295D02*
X104997633Y-78782152D01*
X104997633Y-78782152D02*
X104950014Y-78877390D01*
X104950014Y-78877390D02*
X104902395Y-78925009D01*
X104902395Y-78925009D02*
X104807157Y-78972628D01*
X104807157Y-78972628D02*
X104426205Y-78972628D01*
X105854776Y-78448819D02*
X105664300Y-78448819D01*
X105664300Y-78448819D02*
X105569062Y-78496438D01*
X105569062Y-78496438D02*
X105521443Y-78544057D01*
X105521443Y-78544057D02*
X105426205Y-78686914D01*
X105426205Y-78686914D02*
X105378586Y-78877390D01*
X105378586Y-78877390D02*
X105378586Y-79258342D01*
X105378586Y-79258342D02*
X105426205Y-79353580D01*
X105426205Y-79353580D02*
X105473824Y-79401200D01*
X105473824Y-79401200D02*
X105569062Y-79448819D01*
X105569062Y-79448819D02*
X105759538Y-79448819D01*
X105759538Y-79448819D02*
X105854776Y-79401200D01*
X105854776Y-79401200D02*
X105902395Y-79353580D01*
X105902395Y-79353580D02*
X105950014Y-79258342D01*
X105950014Y-79258342D02*
X105950014Y-79020247D01*
X105950014Y-79020247D02*
X105902395Y-78925009D01*
X105902395Y-78925009D02*
X105854776Y-78877390D01*
X105854776Y-78877390D02*
X105759538Y-78829771D01*
X105759538Y-78829771D02*
X105569062Y-78829771D01*
X105569062Y-78829771D02*
X105473824Y-78877390D01*
X105473824Y-78877390D02*
X105426205Y-78925009D01*
X105426205Y-78925009D02*
X105378586Y-79020247D01*
X75723023Y-103664394D02*
X74722929Y-103664394D01*
X75723023Y-103092912D02*
X75151541Y-103521523D01*
X74722929Y-103092912D02*
X75294411Y-103664394D01*
X75723023Y-102140441D02*
X75723023Y-102711923D01*
X75723023Y-102426182D02*
X74722929Y-102426182D01*
X74722929Y-102426182D02*
X74865800Y-102521429D01*
X74865800Y-102521429D02*
X74961047Y-102616676D01*
X74961047Y-102616676D02*
X75008670Y-102711923D01*
X70642971Y-102534309D02*
X70309638Y-102534309D01*
X70309638Y-103058119D02*
X70309638Y-102058119D01*
X70309638Y-102058119D02*
X70785828Y-102058119D01*
X71166781Y-103058119D02*
X71166781Y-102058119D01*
X71642971Y-103058119D02*
X71642971Y-102058119D01*
X71642971Y-102058119D02*
X71881066Y-102058119D01*
X71881066Y-102058119D02*
X72023923Y-102105738D01*
X72023923Y-102105738D02*
X72119161Y-102200976D01*
X72119161Y-102200976D02*
X72166780Y-102296214D01*
X72166780Y-102296214D02*
X72214399Y-102486690D01*
X72214399Y-102486690D02*
X72214399Y-102629547D01*
X72214399Y-102629547D02*
X72166780Y-102820023D01*
X72166780Y-102820023D02*
X72119161Y-102915261D01*
X72119161Y-102915261D02*
X72023923Y-103010500D01*
X72023923Y-103010500D02*
X71881066Y-103058119D01*
X71881066Y-103058119D02*
X71642971Y-103058119D01*
X72595352Y-102153357D02*
X72642971Y-102105738D01*
X72642971Y-102105738D02*
X72738209Y-102058119D01*
X72738209Y-102058119D02*
X72976304Y-102058119D01*
X72976304Y-102058119D02*
X73071542Y-102105738D01*
X73071542Y-102105738D02*
X73119161Y-102153357D01*
X73119161Y-102153357D02*
X73166780Y-102248595D01*
X73166780Y-102248595D02*
X73166780Y-102343833D01*
X73166780Y-102343833D02*
X73119161Y-102486690D01*
X73119161Y-102486690D02*
X72547733Y-103058119D01*
X72547733Y-103058119D02*
X73166780Y-103058119D01*
X120245066Y-114094419D02*
X120245066Y-114808704D01*
X120245066Y-114808704D02*
X120197447Y-114951561D01*
X120197447Y-114951561D02*
X120102209Y-115046800D01*
X120102209Y-115046800D02*
X119959352Y-115094419D01*
X119959352Y-115094419D02*
X119864114Y-115094419D01*
X121149828Y-114427752D02*
X121149828Y-115094419D01*
X120911733Y-114046800D02*
X120673638Y-114761085D01*
X120673638Y-114761085D02*
X121292685Y-114761085D01*
D15*
X151627372Y-83674089D02*
X151687848Y-83492660D01*
X151687848Y-83492660D02*
X151687848Y-83190279D01*
X151687848Y-83190279D02*
X151627372Y-83069327D01*
X151627372Y-83069327D02*
X151566895Y-83008851D01*
X151566895Y-83008851D02*
X151445943Y-82948374D01*
X151445943Y-82948374D02*
X151324991Y-82948374D01*
X151324991Y-82948374D02*
X151204038Y-83008851D01*
X151204038Y-83008851D02*
X151143562Y-83069327D01*
X151143562Y-83069327D02*
X151083086Y-83190279D01*
X151083086Y-83190279D02*
X151022610Y-83432184D01*
X151022610Y-83432184D02*
X150962133Y-83553136D01*
X150962133Y-83553136D02*
X150901657Y-83613613D01*
X150901657Y-83613613D02*
X150780705Y-83674089D01*
X150780705Y-83674089D02*
X150659752Y-83674089D01*
X150659752Y-83674089D02*
X150538800Y-83613613D01*
X150538800Y-83613613D02*
X150478324Y-83553136D01*
X150478324Y-83553136D02*
X150417848Y-83432184D01*
X150417848Y-83432184D02*
X150417848Y-83129803D01*
X150417848Y-83129803D02*
X150478324Y-82948374D01*
X150538800Y-82464565D02*
X150478324Y-82404089D01*
X150478324Y-82404089D02*
X150417848Y-82283136D01*
X150417848Y-82283136D02*
X150417848Y-81980755D01*
X150417848Y-81980755D02*
X150478324Y-81859803D01*
X150478324Y-81859803D02*
X150538800Y-81799327D01*
X150538800Y-81799327D02*
X150659752Y-81738850D01*
X150659752Y-81738850D02*
X150780705Y-81738850D01*
X150780705Y-81738850D02*
X150962133Y-81799327D01*
X150962133Y-81799327D02*
X151687848Y-82525041D01*
X151687848Y-82525041D02*
X151687848Y-81738850D01*
D11*
X132799019Y-80278266D02*
X132322828Y-80611599D01*
X132799019Y-80849694D02*
X131799019Y-80849694D01*
X131799019Y-80849694D02*
X131799019Y-80468742D01*
X131799019Y-80468742D02*
X131846638Y-80373504D01*
X131846638Y-80373504D02*
X131894257Y-80325885D01*
X131894257Y-80325885D02*
X131989495Y-80278266D01*
X131989495Y-80278266D02*
X132132352Y-80278266D01*
X132132352Y-80278266D02*
X132227590Y-80325885D01*
X132227590Y-80325885D02*
X132275209Y-80373504D01*
X132275209Y-80373504D02*
X132322828Y-80468742D01*
X132322828Y-80468742D02*
X132322828Y-80849694D01*
X132132352Y-79421123D02*
X132799019Y-79421123D01*
X131751400Y-79659218D02*
X132465685Y-79897313D01*
X132465685Y-79897313D02*
X132465685Y-79278266D01*
D16*
%TO.C,D8*%
X134418400Y-83977200D02*
X134418400Y-85897200D01*
X134418400Y-85897200D02*
X137103400Y-85897200D01*
X137103400Y-83977200D02*
X134418400Y-83977200D01*
%TO.C,R3*%
X115032200Y-80790464D02*
X115032200Y-80336336D01*
X116502200Y-80790464D02*
X116502200Y-80336336D01*
%TO.C,C1*%
X164288400Y-83216452D02*
X164288400Y-82693948D01*
X165758400Y-83216452D02*
X165758400Y-82693948D01*
%TO.C,C5*%
X138594200Y-61119652D02*
X138594200Y-60597148D01*
X140064200Y-61119652D02*
X140064200Y-60597148D01*
%TO.C,C3*%
X130691600Y-73119348D02*
X130691600Y-73641852D01*
X129221600Y-73119348D02*
X129221600Y-73641852D01*
%TO.C,Q3*%
X120192400Y-84124800D02*
X120192400Y-85799800D01*
X120192400Y-84124800D02*
X120192400Y-83474800D01*
X123312400Y-84124800D02*
X123312400Y-84774800D01*
X123312400Y-84124800D02*
X123312400Y-83474800D01*
%TO.C,C2*%
X139686400Y-55836452D02*
X139686400Y-55313948D01*
X141156400Y-55836452D02*
X141156400Y-55313948D01*
%TO.C,R8*%
X141385000Y-79835636D02*
X141385000Y-80289764D01*
X139915000Y-79835636D02*
X139915000Y-80289764D01*
%TO.C,PS1*%
X79996900Y-56009200D02*
X79996900Y-58019200D01*
X80376900Y-46549200D02*
X80376900Y-75269200D01*
X80386900Y-75269200D02*
X128096900Y-75269200D01*
X128096900Y-46549200D02*
X80386900Y-46549200D01*
X128096900Y-75269200D02*
X128096900Y-46549200D01*
D15*
%TO.C,S1*%
X161489070Y-80520200D02*
X159053400Y-80520200D01*
X163228400Y-81015200D02*
X163228400Y-86015200D01*
X157238400Y-81015200D02*
X157238400Y-86015200D01*
X161545730Y-86510200D02*
X158954070Y-86510200D01*
X163089405Y-79010865D02*
G75*
G03*
X163089405Y-79010865I-99335J0D01*
G01*
D16*
%TO.C,Q4*%
X138048600Y-83972400D02*
X138048600Y-85647400D01*
X138048600Y-83972400D02*
X138048600Y-83322400D01*
X141168600Y-83972400D02*
X141168600Y-84622400D01*
X141168600Y-83972400D02*
X141168600Y-83322400D01*
%TO.C,D2*%
X100992600Y-79020400D02*
X98722600Y-79020400D01*
X98722600Y-79020400D02*
X98722600Y-82905400D01*
X100992600Y-82905400D02*
X100992600Y-79020400D01*
%TO.C,C4*%
X142480400Y-55836452D02*
X142480400Y-55313948D01*
X143950400Y-55836452D02*
X143950400Y-55313948D01*
%TO.C,R11*%
X73414600Y-76379336D02*
X73414600Y-76833464D01*
X71944600Y-76379336D02*
X71944600Y-76833464D01*
D17*
%TO.C,K4*%
X131325200Y-105717000D02*
X131325200Y-86617000D01*
X146825200Y-105717000D02*
X131325200Y-105717000D01*
X131325200Y-86617000D02*
X146825200Y-86617000D01*
X146825200Y-86617000D02*
X146825200Y-105717000D01*
D14*
X133056200Y-106367000D02*
G75*
G03*
X133056200Y-106367000I-100000J0D01*
G01*
D17*
%TO.C,K3*%
X112828400Y-105794600D02*
X112828400Y-86694600D01*
X128328400Y-105794600D02*
X112828400Y-105794600D01*
X112828400Y-86694600D02*
X128328400Y-86694600D01*
X128328400Y-86694600D02*
X128328400Y-105794600D01*
D14*
X114559400Y-106444600D02*
G75*
G03*
X114559400Y-106444600I-100000J0D01*
G01*
D16*
%TO.C,J8*%
X167712400Y-106749200D02*
X167712400Y-105909200D01*
X167712400Y-105909200D02*
X167112400Y-105909200D01*
X167472400Y-117269200D02*
X167472400Y-106149200D01*
X167472400Y-117269200D02*
X152352400Y-117269200D01*
X167472400Y-115309200D02*
X152352400Y-115309200D01*
X167472400Y-108709200D02*
X152352400Y-108709200D01*
X167472400Y-106809200D02*
X152352400Y-106809200D01*
X167472400Y-106149200D02*
X152352400Y-106149200D01*
X157389400Y-110686200D02*
X157436400Y-110640200D01*
X157196400Y-110470200D02*
X157231400Y-110435200D01*
X155092400Y-112984200D02*
X155127400Y-112948200D01*
X154887400Y-112778200D02*
X154934400Y-112732200D01*
X152352400Y-117269200D02*
X152352400Y-106149200D01*
X165197399Y-112393199D02*
G75*
G03*
X165197826Y-111026158I-1534992J684000D01*
G01*
X162978401Y-113244199D02*
G75*
G03*
X164345442Y-113244626I684000J1534992D01*
G01*
X164346400Y-110174201D02*
G75*
G03*
X163633595Y-110028948I-683999J-1535000D01*
G01*
X163662400Y-110029201D02*
G75*
G03*
X162979082Y-110174445I0J-1679999D01*
G01*
X162127400Y-111025200D02*
G75*
G03*
X162126974Y-112392242I1535000J-684000D01*
G01*
X157842400Y-111709200D02*
G75*
G03*
X157842400Y-111709200I-1680000J0D01*
G01*
D18*
%TO.C,IC1*%
X145701400Y-54633200D02*
X145701400Y-54633200D01*
X145801400Y-54633200D02*
X145801400Y-54633200D01*
D13*
X146801400Y-47143200D02*
X164801400Y-47143200D01*
X146801400Y-53893200D02*
X146801400Y-47143200D01*
X146801400Y-72643200D02*
X146801400Y-71893200D01*
X149301400Y-72643200D02*
X146801400Y-72643200D01*
X164801400Y-47143200D02*
X164801400Y-53893200D01*
X164801400Y-71893200D02*
X164801400Y-72643200D01*
X164801400Y-72643200D02*
X162301400Y-72643200D01*
D18*
X145801400Y-54633200D02*
G75*
G03*
X145701400Y-54633200I-50000J0D01*
G01*
X145701400Y-54633200D02*
G75*
G03*
X145801400Y-54633200I50000J0D01*
G01*
D16*
%TO.C,J9*%
X172799400Y-95111600D02*
X171959400Y-95111600D01*
X171959400Y-95111600D02*
X171959400Y-95711600D01*
X183319400Y-95351600D02*
X172199400Y-95351600D01*
X183319400Y-95351600D02*
X183319400Y-110471600D01*
X181359400Y-95351600D02*
X181359400Y-110471600D01*
X174759400Y-95351600D02*
X174759400Y-110471600D01*
X172859400Y-95351600D02*
X172859400Y-110471600D01*
X172199400Y-95351600D02*
X172199400Y-110471600D01*
X176736400Y-105434600D02*
X176690400Y-105387600D01*
X176520400Y-105627600D02*
X176485400Y-105592600D01*
X179034400Y-107731600D02*
X178998400Y-107696600D01*
X178828400Y-107936600D02*
X178782400Y-107889600D01*
X183319400Y-110471600D02*
X172199400Y-110471600D01*
X178443399Y-97626601D02*
G75*
G03*
X177076358Y-97626174I-684000J-1534992D01*
G01*
X179294399Y-99845599D02*
G75*
G03*
X179294826Y-98478558I-1534992J684000D01*
G01*
X176224401Y-98477600D02*
G75*
G03*
X176079148Y-99190405I1535000J-683999D01*
G01*
X176079401Y-99161600D02*
G75*
G03*
X176224645Y-99844918I1679999J0D01*
G01*
X177075400Y-100696600D02*
G75*
G03*
X178442442Y-100697026I684000J1535000D01*
G01*
X179439400Y-106661600D02*
G75*
G03*
X179439400Y-106661600I-1680000J0D01*
G01*
%TO.C,R2*%
X96481000Y-81075264D02*
X96481000Y-80621136D01*
X97951000Y-81075264D02*
X97951000Y-80621136D01*
%TO.C,Q2*%
X101523400Y-83997800D02*
X101523400Y-85672800D01*
X101523400Y-83997800D02*
X101523400Y-83347800D01*
X104643400Y-83997800D02*
X104643400Y-84647800D01*
X104643400Y-83997800D02*
X104643400Y-83347800D01*
%TO.C,R9*%
X163521464Y-77790000D02*
X163067336Y-77790000D01*
X163521464Y-76320000D02*
X163067336Y-76320000D01*
D17*
%TO.C,K2*%
X94368200Y-105767800D02*
X94368200Y-86667800D01*
X109868200Y-105767800D02*
X94368200Y-105767800D01*
X94368200Y-86667800D02*
X109868200Y-86667800D01*
X109868200Y-86667800D02*
X109868200Y-105767800D01*
D14*
X96099200Y-106417800D02*
G75*
G03*
X96099200Y-106417800I-100000J0D01*
G01*
D16*
%TO.C,J2*%
X91904000Y-107346600D02*
X91904000Y-106506600D01*
X91904000Y-106506600D02*
X91304000Y-106506600D01*
X91664000Y-117866600D02*
X91664000Y-106746600D01*
X91664000Y-117866600D02*
X76544000Y-117866600D01*
X91664000Y-115906600D02*
X76544000Y-115906600D01*
X91664000Y-109306600D02*
X76544000Y-109306600D01*
X91664000Y-107406600D02*
X76544000Y-107406600D01*
X91664000Y-106746600D02*
X76544000Y-106746600D01*
X81581000Y-111283600D02*
X81628000Y-111237600D01*
X81388000Y-111067600D02*
X81423000Y-111032600D01*
X79284000Y-113581600D02*
X79319000Y-113545600D01*
X79079000Y-113375600D02*
X79126000Y-113329600D01*
X76544000Y-117866600D02*
X76544000Y-106746600D01*
X89388999Y-112990599D02*
G75*
G03*
X89389426Y-111623558I-1534992J684000D01*
G01*
X87170001Y-113841599D02*
G75*
G03*
X88537042Y-113842026I684000J1534992D01*
G01*
X88538000Y-110771601D02*
G75*
G03*
X87825195Y-110626348I-683999J-1535000D01*
G01*
X87854000Y-110626601D02*
G75*
G03*
X87170682Y-110771845I0J-1679999D01*
G01*
X86319000Y-111622600D02*
G75*
G03*
X86318574Y-112989642I1535000J-684000D01*
G01*
X82034000Y-112306600D02*
G75*
G03*
X82034000Y-112306600I-1680000J0D01*
G01*
%TO.C,Q1*%
X84501000Y-84249500D02*
X84501000Y-85924500D01*
X84501000Y-84249500D02*
X84501000Y-83599500D01*
X87621000Y-84249500D02*
X87621000Y-84899500D01*
X87621000Y-84249500D02*
X87621000Y-83599500D01*
%TO.C,D5*%
X80824400Y-84266200D02*
X80824400Y-86186200D01*
X80824400Y-86186200D02*
X83509400Y-86186200D01*
X83509400Y-84266200D02*
X80824400Y-84266200D01*
%TO.C,R1*%
X79742400Y-80984764D02*
X79742400Y-80530636D01*
X81212400Y-80984764D02*
X81212400Y-80530636D01*
%TO.C,D7*%
X116165000Y-84045400D02*
X116165000Y-85965400D01*
X116165000Y-85965400D02*
X118850000Y-85965400D01*
X118850000Y-84045400D02*
X116165000Y-84045400D01*
%TO.C,J1*%
X78579400Y-68903200D02*
X79419400Y-68903200D01*
X79419400Y-68903200D02*
X79419400Y-68303200D01*
X68059400Y-68663200D02*
X79179400Y-68663200D01*
X68059400Y-68663200D02*
X68059400Y-53543200D01*
X70019400Y-68663200D02*
X70019400Y-53543200D01*
X76619400Y-68663200D02*
X76619400Y-53543200D01*
X78519400Y-68663200D02*
X78519400Y-53543200D01*
X79179400Y-68663200D02*
X79179400Y-53543200D01*
X74642400Y-58580200D02*
X74688400Y-58627200D01*
X74858400Y-58387200D02*
X74893400Y-58422200D01*
X72344400Y-56283200D02*
X72380400Y-56318200D01*
X72550400Y-56078200D02*
X72596400Y-56125200D01*
X68059400Y-53543200D02*
X79179400Y-53543200D01*
X72935401Y-66388199D02*
G75*
G03*
X74302442Y-66388626I684000J1534992D01*
G01*
X72084401Y-64169201D02*
G75*
G03*
X72083974Y-65536242I1534992J-684000D01*
G01*
X75154399Y-65537200D02*
G75*
G03*
X75299652Y-64824395I-1535000J683999D01*
G01*
X75299399Y-64853200D02*
G75*
G03*
X75154155Y-64169882I-1679999J0D01*
G01*
X74303400Y-63318200D02*
G75*
G03*
X72936358Y-63317774I-684000J-1535000D01*
G01*
X75299400Y-57353200D02*
G75*
G03*
X75299400Y-57353200I-1680000J0D01*
G01*
%TO.C,D3*%
X119188200Y-78910400D02*
X116918200Y-78910400D01*
X116918200Y-78910400D02*
X116918200Y-82795400D01*
X119188200Y-82795400D02*
X119188200Y-78910400D01*
%TO.C,J3*%
X109918200Y-107259800D02*
X109918200Y-106419800D01*
X109918200Y-106419800D02*
X109318200Y-106419800D01*
X109678200Y-117779800D02*
X109678200Y-106659800D01*
X109678200Y-117779800D02*
X94558200Y-117779800D01*
X109678200Y-115819800D02*
X94558200Y-115819800D01*
X109678200Y-109219800D02*
X94558200Y-109219800D01*
X109678200Y-107319800D02*
X94558200Y-107319800D01*
X109678200Y-106659800D02*
X94558200Y-106659800D01*
X99595200Y-111196800D02*
X99642200Y-111150800D01*
X99402200Y-110980800D02*
X99437200Y-110945800D01*
X97298200Y-113494800D02*
X97333200Y-113458800D01*
X97093200Y-113288800D02*
X97140200Y-113242800D01*
X94558200Y-117779800D02*
X94558200Y-106659800D01*
X107403199Y-112903799D02*
G75*
G03*
X107403626Y-111536758I-1534992J684000D01*
G01*
X105184201Y-113754799D02*
G75*
G03*
X106551242Y-113755226I684000J1534992D01*
G01*
X106552200Y-110684801D02*
G75*
G03*
X105839395Y-110539548I-683999J-1535000D01*
G01*
X105868200Y-110539801D02*
G75*
G03*
X105184882Y-110685045I0J-1679999D01*
G01*
X104333200Y-111535800D02*
G75*
G03*
X104332774Y-112902842I1535000J-684000D01*
G01*
X100048200Y-112219800D02*
G75*
G03*
X100048200Y-112219800I-1680000J0D01*
G01*
%TO.C,J7*%
X172850200Y-75172600D02*
X172010200Y-75172600D01*
X172010200Y-75172600D02*
X172010200Y-75772600D01*
X183370200Y-75412600D02*
X172250200Y-75412600D01*
X183370200Y-75412600D02*
X183370200Y-90532600D01*
X181410200Y-75412600D02*
X181410200Y-90532600D01*
X174810200Y-75412600D02*
X174810200Y-90532600D01*
X172910200Y-75412600D02*
X172910200Y-90532600D01*
X172250200Y-75412600D02*
X172250200Y-90532600D01*
X176787200Y-85495600D02*
X176741200Y-85448600D01*
X176571200Y-85688600D02*
X176536200Y-85653600D01*
X179085200Y-87792600D02*
X179049200Y-87757600D01*
X178879200Y-87997600D02*
X178833200Y-87950600D01*
X183370200Y-90532600D02*
X172250200Y-90532600D01*
X178494199Y-77687601D02*
G75*
G03*
X177127158Y-77687174I-684000J-1534992D01*
G01*
X179345199Y-79906599D02*
G75*
G03*
X179345626Y-78539558I-1534992J684000D01*
G01*
X176275201Y-78538600D02*
G75*
G03*
X176129948Y-79251405I1535000J-683999D01*
G01*
X176130201Y-79222600D02*
G75*
G03*
X176275445Y-79905918I1679999J0D01*
G01*
X177126200Y-80757600D02*
G75*
G03*
X178493242Y-80758026I684000J1535000D01*
G01*
X179490200Y-86722600D02*
G75*
G03*
X179490200Y-86722600I-1680000J0D01*
G01*
%TO.C,D1*%
X84152400Y-79131200D02*
X81882400Y-79131200D01*
X81882400Y-79131200D02*
X81882400Y-83016200D01*
X84152400Y-83016200D02*
X84152400Y-79131200D01*
%TO.C,D6*%
X97842400Y-83901400D02*
X97842400Y-85821400D01*
X97842400Y-85821400D02*
X100527400Y-85821400D01*
X100527400Y-83901400D02*
X97842400Y-83901400D01*
%TO.C,R7*%
X124122264Y-81422400D02*
X123668136Y-81422400D01*
X124122264Y-79952400D02*
X123668136Y-79952400D01*
%TO.C,J5*%
X146875200Y-107209000D02*
X146875200Y-106369000D01*
X146875200Y-106369000D02*
X146275200Y-106369000D01*
X146635200Y-117729000D02*
X146635200Y-106609000D01*
X146635200Y-117729000D02*
X131515200Y-117729000D01*
X146635200Y-115769000D02*
X131515200Y-115769000D01*
X146635200Y-109169000D02*
X131515200Y-109169000D01*
X146635200Y-107269000D02*
X131515200Y-107269000D01*
X146635200Y-106609000D02*
X131515200Y-106609000D01*
X136552200Y-111146000D02*
X136599200Y-111100000D01*
X136359200Y-110930000D02*
X136394200Y-110895000D01*
X134255200Y-113444000D02*
X134290200Y-113408000D01*
X134050200Y-113238000D02*
X134097200Y-113192000D01*
X131515200Y-117729000D02*
X131515200Y-106609000D01*
X144360199Y-112852999D02*
G75*
G03*
X144360626Y-111485958I-1534992J684000D01*
G01*
X142141201Y-113703999D02*
G75*
G03*
X143508242Y-113704426I684000J1534992D01*
G01*
X143509200Y-110634001D02*
G75*
G03*
X142796395Y-110488748I-683999J-1535000D01*
G01*
X142825200Y-110489001D02*
G75*
G03*
X142141882Y-110634245I0J-1679999D01*
G01*
X141290200Y-111485000D02*
G75*
G03*
X141289774Y-112852042I1535000J-684000D01*
G01*
X137005200Y-112169000D02*
G75*
G03*
X137005200Y-112169000I-1680000J0D01*
G01*
%TO.C,R5*%
X86600400Y-80476764D02*
X86600400Y-80022636D01*
X88070400Y-80476764D02*
X88070400Y-80022636D01*
%TO.C,R10*%
X147687836Y-76626000D02*
X148141964Y-76626000D01*
X147687836Y-78096000D02*
X148141964Y-78096000D01*
%TO.C,J6*%
X167387000Y-51977600D02*
X167387000Y-50647600D01*
X168717000Y-51977600D02*
X167387000Y-51977600D01*
X169987000Y-51977600D02*
X175127000Y-51977600D01*
X169987000Y-51977600D02*
X169987000Y-49317600D01*
X175127000Y-51977600D02*
X175127000Y-49317600D01*
X169987000Y-49317600D02*
X175127000Y-49317600D01*
%TO.C,J10*%
X173002600Y-55750800D02*
X172162600Y-55750800D01*
X172162600Y-55750800D02*
X172162600Y-56350800D01*
X183522600Y-55990800D02*
X172402600Y-55990800D01*
X183522600Y-55990800D02*
X183522600Y-71110800D01*
X181562600Y-55990800D02*
X181562600Y-71110800D01*
X174962600Y-55990800D02*
X174962600Y-71110800D01*
X173062600Y-55990800D02*
X173062600Y-71110800D01*
X172402600Y-55990800D02*
X172402600Y-71110800D01*
X176939600Y-66073800D02*
X176893600Y-66026800D01*
X176723600Y-66266800D02*
X176688600Y-66231800D01*
X179237600Y-68370800D02*
X179201600Y-68335800D01*
X179031600Y-68575800D02*
X178985600Y-68528800D01*
X183522600Y-71110800D02*
X172402600Y-71110800D01*
X178646599Y-58265801D02*
G75*
G03*
X177279558Y-58265374I-684000J-1534992D01*
G01*
X179497599Y-60484799D02*
G75*
G03*
X179498026Y-59117758I-1534992J684000D01*
G01*
X176427601Y-59116800D02*
G75*
G03*
X176282348Y-59829605I1535000J-683999D01*
G01*
X176282601Y-59800800D02*
G75*
G03*
X176427845Y-60484118I1679999J0D01*
G01*
X177278600Y-61335800D02*
G75*
G03*
X178645642Y-61336226I684000J1535000D01*
G01*
X179642600Y-67300800D02*
G75*
G03*
X179642600Y-67300800I-1680000J0D01*
G01*
%TO.C,U1*%
X129209400Y-59886800D02*
X135219400Y-59886800D01*
X131459400Y-66706800D02*
X135219400Y-66706800D01*
X135219400Y-59886800D02*
X135219400Y-61146800D01*
X135219400Y-66706800D02*
X135219400Y-65446800D01*
%TO.C,D9*%
X71570000Y-83417500D02*
X73840000Y-83417500D01*
X73840000Y-83417500D02*
X73840000Y-79532500D01*
X71570000Y-79532500D02*
X71570000Y-83417500D01*
%TO.C,D4*%
X137746400Y-79096200D02*
X135476400Y-79096200D01*
X135476400Y-79096200D02*
X135476400Y-82981200D01*
X137746400Y-82981200D02*
X137746400Y-79096200D01*
%TO.C,R6*%
X105240864Y-81253000D02*
X104786736Y-81253000D01*
X105240864Y-79783000D02*
X104786736Y-79783000D01*
D17*
%TO.C,K1*%
X76354000Y-105850600D02*
X76354000Y-86750600D01*
X91854000Y-105850600D02*
X76354000Y-105850600D01*
X76354000Y-86750600D02*
X91854000Y-86750600D01*
X91854000Y-86750600D02*
X91854000Y-105850600D01*
D14*
X78085000Y-106500600D02*
G75*
G03*
X78085000Y-106500600I-100000J0D01*
G01*
D16*
%TO.C,J4*%
X128378400Y-107286600D02*
X128378400Y-106446600D01*
X128378400Y-106446600D02*
X127778400Y-106446600D01*
X128138400Y-117806600D02*
X128138400Y-106686600D01*
X128138400Y-117806600D02*
X113018400Y-117806600D01*
X128138400Y-115846600D02*
X113018400Y-115846600D01*
X128138400Y-109246600D02*
X113018400Y-109246600D01*
X128138400Y-107346600D02*
X113018400Y-107346600D01*
X128138400Y-106686600D02*
X113018400Y-106686600D01*
X118055400Y-111223600D02*
X118102400Y-111177600D01*
X117862400Y-111007600D02*
X117897400Y-110972600D01*
X115758400Y-113521600D02*
X115793400Y-113485600D01*
X115553400Y-113315600D02*
X115600400Y-113269600D01*
X113018400Y-117806600D02*
X113018400Y-106686600D01*
X125863399Y-112930599D02*
G75*
G03*
X125863826Y-111563558I-1534992J684000D01*
G01*
X123644401Y-113781599D02*
G75*
G03*
X125011442Y-113782026I684000J1534992D01*
G01*
X125012400Y-110711601D02*
G75*
G03*
X124299595Y-110566348I-683999J-1535000D01*
G01*
X124328400Y-110566601D02*
G75*
G03*
X123645082Y-110711845I0J-1679999D01*
G01*
X122793400Y-111562600D02*
G75*
G03*
X122792974Y-112929642I1535000J-684000D01*
G01*
X118508400Y-112246600D02*
G75*
G03*
X118508400Y-112246600I-1680000J0D01*
G01*
D15*
%TO.C,S2*%
X152359870Y-80165800D02*
X149924200Y-80165800D01*
X154099200Y-80660800D02*
X154099200Y-85660800D01*
X148109200Y-80660800D02*
X148109200Y-85660800D01*
X152416530Y-86155800D02*
X149824870Y-86155800D01*
X153960205Y-78656465D02*
G75*
G03*
X153960205Y-78656465I-99335J0D01*
G01*
D16*
%TO.C,R4*%
X133336400Y-80976264D02*
X133336400Y-80522136D01*
X134806400Y-80976264D02*
X134806400Y-80522136D01*
%TD*%
M02*
