M48
; DRILL file {KiCad 7.0.8} date Wed Sep 18 17:34:08 2024
; FORMAT={-:-/ absolute / inch / decimal}
; #@! TF.CreationDate,2024-09-18T17:34:08+05:30
; #@! TF.GenerationSoftware,Kicad,Pcbnew,7.0.8
; #@! TF.FileFunction,Plated,1,4,PTH
FMAT,2
INCH
; #@! TA.AperFunction,Plated,PTH,ViaDrill
T1C0.0157
; #@! TA.AperFunction,Plated,PTH,ViaDrill
T2C0.0197
; #@! TA.AperFunction,Plated,PTH,ComponentDrill
T3C0.0394
; #@! TA.AperFunction,Plated,PTH,ComponentDrill
T4C0.0508
; #@! TA.AperFunction,Plated,PTH,ComponentDrill
T5C0.0512
; #@! TA.AperFunction,Plated,PTH,ComponentDrill
T6C0.0520
; #@! TA.AperFunction,Plated,PTH,ComponentDrill
T7C0.0551
; #@! TA.AperFunction,Plated,PTH,ComponentDrill
T8C0.0984
%
G90
G05
T1
X2.8634Y-2.914
X2.8634Y-3.316
X3.1034Y-3.214
X3.7634Y-3.219
X4.4924Y-3.208
X5.1244Y-2.318
X5.1884Y-2.926
X5.2124Y-3.215
X5.4504Y-2.49
X5.4534Y-2.543
X5.4594Y-2.224
X5.4794Y-2.586
X5.5004Y-2.492
X5.5034Y-2.541
X5.5264Y-2.278
X5.5544Y-2.358
T2
X3.0084Y-3.355
X3.3524Y-3.209
X3.61Y-1.98
X3.61Y-2.11
X3.61Y-2.23
X3.61Y-2.36
X3.61Y-2.51
X3.61Y-2.67
X3.6434Y-3.329
X3.68Y-1.98
X3.68Y-2.11
X3.68Y-2.24
X3.68Y-2.51
X3.69Y-2.36
X3.69Y-2.67
X3.74Y-2.12
X3.76Y-1.98
X3.76Y-2.23
X3.76Y-2.39
X3.76Y-2.53
X3.77Y-2.66
X3.82Y-2.12
X3.84Y-1.98
X3.87Y-2.33
X3.88Y-2.24
X3.88Y-2.48
X3.9Y-2.64
X3.93Y-1.98
X3.95Y-2.09
X3.98Y-2.25
X3.99Y-2.37
X3.99Y-2.53
X4.01Y-2.65
X4.02Y-1.98
X4.0294Y-3.206
X4.12Y-1.98
X4.21Y-1.98
X4.3Y-1.98
X4.39Y-1.98
X4.3924Y-3.347
X4.48Y-1.98
X4.58Y-1.98
X4.68Y-1.98
X4.7694Y-3.198
X5.1044Y-3.34
X5.4484Y-2.158
X5.4554Y-3.197
X5.6661Y-3.0457
X5.9184Y-2.768
X5.92Y-2.62
X5.9684Y-2.508
X5.97Y-2.62
X5.9784Y-2.448
X6.0Y-2.69
X6.0184Y-2.348
X6.03Y-2.74
X6.04Y-2.62
X6.0684Y-2.348
X6.0684Y-2.558
X6.07Y-2.69
X6.11Y-2.73
X6.12Y-2.62
X6.1284Y-2.348
X6.14Y-2.67
X6.1784Y-2.448
X6.1784Y-2.508
X6.18Y-2.72
X6.2Y-2.62
X6.22Y-2.67
X6.24Y-2.73
X6.26Y-2.62
X6.27Y-2.67
X6.32Y-2.62
X6.32Y-2.73
X6.39Y-2.62
X6.4984Y-3.358
X6.5884Y-3.038
T3
X5.8604Y-3.1461
X5.8604Y-3.402
X6.0376Y-3.1461
X6.0376Y-3.402
X6.2198Y-3.16
X6.2198Y-3.416
X6.397Y-3.16
X6.397Y-3.416
X6.6424Y-1.994
X6.7424Y-1.994
X6.8424Y-1.994
T4
X3.3112Y-4.1103
X4.0204Y-4.107
X4.7472Y-4.1081
X5.4754Y-4.105
T5
X3.2672Y-2.2445
X3.2672Y-2.5515
X4.9404Y-1.9531
X4.9404Y-2.8429
T6
X3.075Y-3.5512
X3.075Y-4.0315
X3.5474Y-3.5512
X3.5474Y-4.0315
X3.7842Y-3.5479
X3.7842Y-4.0283
X4.2566Y-3.5479
X4.2566Y-4.0283
X4.511Y-3.549
X4.511Y-4.0293
X4.9834Y-3.549
X4.9834Y-4.0293
X5.2392Y-3.5459
X5.2392Y-4.0263
X5.7116Y-3.5459
X5.7116Y-4.0263
T7
X2.8984Y-2.258
X2.8984Y-2.5533
X3.1635Y-4.4215
X3.4588Y-4.4215
X3.8728Y-4.4181
X4.168Y-4.4181
X4.5995Y-4.4192
X4.8948Y-4.4192
X5.3278Y-4.4161
X5.623Y-4.4161
X6.1481Y-4.398
X6.4434Y-4.398
X6.9984Y-3.904
X6.9984Y-4.1993
X7.0004Y-3.119
X7.0004Y-3.4143
X7.0064Y-2.3544
X7.0064Y-2.6496
T8
X2.8124Y-1.954
X2.8194Y-4.491
X7.0564Y-4.491
X7.0584Y-1.962
T0
M30
